Saitamaar.ufo
<glyph name="exclam" format="2">
  <advance width="320"/>
  <unicode hex="0021"/>
  <outline>
    <contour>
      <point x="0" y="82" type="line"/>
      <point x="80" y="82" type="line"/>
      <point x="80" y="2" type="line"/>
      <point x="0" y="2" type="line"/>
    </contour>
    <contour>
      <point x="0" y="882" type="line"/>
      <point x="80" y="882" type="line"/>
      <point x="80" y="242" type="line"/>
      <point x="0" y="242" type="line"/>
    </contour>
  </outline>
</glyph>
<glyph name="quotedbl" format="2">
  <advance width="640"/>
  <unicode hex="0022"/>
  <outline>
    <contour>
      <point x="400" y="1042" type="line"/>
      <point x="480" y="1042" type="line"/>
      <point x="480" y="962" type="line"/>
      <point x="400" y="962" type="line"/>
      <point x="400" y="882" type="line"/>
      <point x="320" y="882" type="line"/>
      <point x="320" y="802" type="line"/>
      <point x="240" y="802" type="line"/>
      <point x="240" y="882" type="line"/>
      <point x="320" y="882" type="line"/>
      <point x="320" y="962" type="line"/>
      <point x="400" y="962" type="line"/>
    </contour>
    <contour>
      <point x="160" y="1042" type="line"/>
      <point x="240" y="1042" type="line"/>
      <point x="240" y="962" type="line"/>
      <point x="160" y="962" type="line"/>
      <point x="160" y="882" type="line"/>
      <point x="80" y="882" type="line"/>
      <point x="80" y="802" type="line"/>
      <point x="0" y="802" type="line"/>
      <point x="0" y="882" type="line"/>
      <point x="80" y="882" type="line"/>
      <point x="80" y="962" type="line"/>
      <point x="160" y="962" type="line"/>
    </contour>
  </outline>
</glyph>
<glyph name="numbersign" format="2">
  <advance width="640"/>
  <unicode hex="0023"/>
  <outline>
    <contour>
      <point x="400" y="882" type="line"/>
      <point x="480" y="882" type="line"/>
      <point x="480" y="642" type="line"/>
      <point x="560" y="642" type="line"/>
      <point x="560" y="562" type="line"/>
      <point x="480" y="562" type="line"/>
      <point x="480" y="482" type="line"/>
      <point x="400" y="482" type="line"/>
      <point x="400" y="322" type="line"/>
      <point x="560" y="322" type="line"/>
      <point x="560" y="242" type="line"/>
      <point x="400" y="242" type="line"/>
      <point x="400" y="2" type="line"/>
      <point x="320" y="2" type="line"/>
      <point x="320" y="242" type="line"/>
      <point x="160" y="242" type="line"/>
      <point x="160" y="2" type="line"/>
      <point x="80" y="2" type="line"/>
      <point x="80" y="242" type="line"/>
      <point x="0" y="242" type="line"/>
      <point x="0" y="322" type="line"/>
      <point x="80" y="322" type="line"/>
      <point x="80" y="482" type="line"/>
      <point x="160" y="482" type="line"/>
      <point x="160" y="322" type="line"/>
      <point x="320" y="322" type="line"/>
      <point x="320" y="482" type="line"/>
      <point x="400" y="482" type="line"/>
      <point x="400" y="562" type="line"/>
      <point x="240" y="562" type="line"/>
      <point x="240" y="482" type="line"/>
      <point x="160" y="482" type="line"/>
      <point x="160" y="562" type="line"/>
      <point x="0" y="562" type="line"/>
      <point x="0" y="642" type="line"/>
      <point x="160" y="642" type="line"/>
      <point x="160" y="882" type="line"/>
      <point x="240" y="882" type="line"/>
      <point x="240" y="642" type="line"/>
      <point x="400" y="642" type="line"/>
    </contour>
  </outline>
</glyph>
<glyph name="percent" format="2">
  <advance width="640"/>
  <unicode hex="0025"/>
  <outline>
    <contour>
      <point x="400" y="482" type="line"/>
      <point x="480" y="482" type="line"/>
      <point x="480" y="402" type="line"/>
      <point x="560" y="402" type="line"/>
      <point x="560" y="82" type="line"/>
      <point x="480" y="82" type="line"/>
      <point x="480" y="2" type="line"/>
      <point x="400" y="2" type="line"/>
      <point x="400" y="82" type="line"/>
      <point x="480" y="82" type="line"/>
      <point x="480" y="402" type="line"/>
      <point x="400" y="402" type="line"/>
      <point x="400" y="82" type="line"/>
      <point x="320" y="82" type="line"/>
      <point x="320" y="402" type="line"/>
      <point x="400" y="402" type="line"/>
    </contour>
    <contour>
      <point x="400" y="882" type="line"/>
      <point x="480" y="882" type="line"/>
      <point x="480" y="802" type="line"/>
      <point x="400" y="802" type="line"/>
      <point x="400" y="562" type="line"/>
      <point x="320" y="562" type="line"/>
      <point x="320" y="402" type="line"/>
      <point x="240" y="402" type="line"/>
      <point x="240" y="162" type="line"/>
      <point x="160" y="162" type="line"/>
      <point x="160" y="2" type="line"/>
      <point x="80" y="2" type="line"/>
      <point x="80" y="162" type="line"/>
      <point x="160" y="162" type="line"/>
      <point x="160" y="402" type="line"/>
      <point x="240" y="402" type="line"/>
      <point x="240" y="482" type="line"/>
      <point x="160" y="482" type="line"/>
      <point x="160" y="402" type="line"/>
      <point x="80" y="402" type="line"/>
      <point x="80" y="482" type="line"/>
      <point x="160" y="482" type="line"/>
      <point x="160" y="802" type="line"/>
      <point x="240" y="802" type="line"/>
      <point x="240" y="562" type="line"/>
      <point x="320" y="562" type="line"/>
      <point x="320" y="802" type="line"/>
      <point x="400" y="802" type="line"/>
    </contour>
    <contour>
      <point x="80" y="882" type="line"/>
      <point x="160" y="882" type="line"/>
      <point x="160" y="802" type="line"/>
      <point x="80" y="802" type="line"/>
      <point x="80" y="482" type="line"/>
      <point x="0" y="482" type="line"/>
      <point x="0" y="802" type="line"/>
      <point x="80" y="802" type="line"/>
    </contour>
  </outline>
</glyph>
<glyph name="quotesingle" format="2">
  <advance width="240"/>
  <unicode hex="0027"/>
  <outline>
    <contour>
      <point x="80" y="882" type="line"/>
      <point x="160" y="882" type="line"/>
      <point x="160" y="722" type="line"/>
      <point x="80" y="722" type="line"/>
      <point x="80" y="642" type="line"/>
      <point x="0" y="642" type="line"/>
      <point x="0" y="722" type="line"/>
      <point x="80" y="722" type="line"/>
    </contour>
  </outline>
</glyph>
<glyph name="asterisk" format="2">
  <advance width="640"/>
  <unicode hex="002A"/>
  <outline>
    <contour>
      <point x="240" y="802" type="line"/>
      <point x="320" y="802" type="line"/>
      <point x="320" y="562" type="line"/>
      <point x="400" y="562" type="line"/>
      <point x="400" y="402" type="line"/>
      <point x="560" y="402" type="line"/>
      <point x="560" y="322" type="line"/>
      <point x="400" y="322" type="line"/>
      <point x="400" y="402" type="line"/>
      <point x="320" y="402" type="line"/>
      <point x="320" y="162" type="line"/>
      <point x="240" y="162" type="line"/>
      <point x="240" y="402" type="line"/>
      <point x="160" y="402" type="line"/>
      <point x="160" y="322" type="line"/>
      <point x="0" y="322" type="line"/>
      <point x="0" y="402" type="line"/>
      <point x="160" y="402" type="line"/>
      <point x="160" y="562" type="line"/>
      <point x="240" y="562" type="line"/>
    </contour>
    <contour>
      <point x="160" y="562" type="line"/>
      <point x="0" y="562" type="line"/>
      <point x="0" y="642" type="line"/>
      <point x="160" y="642" type="line"/>
    </contour>
    <contour>
      <point x="400" y="562" type="line"/>
      <point x="400" y="642" type="line"/>
      <point x="560" y="642" type="line"/>
      <point x="560" y="562" type="line"/>
    </contour>
  </outline>
</glyph>
<glyph name="plus" format="2">
  <advance width="640"/>
  <unicode hex="002B"/>
  <outline>
    <contour>
      <point x="240" y="722" type="line"/>
      <point x="320" y="722" type="line"/>
      <point x="320" y="482" type="line"/>
      <point x="560" y="482" type="line"/>
      <point x="560" y="402" type="line"/>
      <point x="320" y="402" type="line"/>
      <point x="320" y="162" type="line"/>
      <point x="240" y="162" type="line"/>
      <point x="240" y="402" type="line"/>
      <point x="0" y="402" type="line"/>
      <point x="0" y="482" type="line"/>
      <point x="240" y="482" type="line"/>
    </contour>
  </outline>
</glyph>
<glyph name="comma" format="2">
  <advance width="240"/>
  <unicode hex="002C"/>
  <outline>
    <contour>
      <point x="80" y="82" type="line"/>
      <point x="160" y="82" type="line"/>
      <point x="160" y="-78" type="line"/>
      <point x="80" y="-78" type="line"/>
      <point x="80" y="-158" type="line"/>
      <point x="0" y="-158" type="line"/>
      <point x="0" y="-78" type="line"/>
      <point x="80" y="-78" type="line"/>
    </contour>
  </outline>
</glyph>
<glyph name="period" format="2">
  <advance width="240"/>
  <unicode hex="002E"/>
  <outline>
    <contour>
      <point x="0" y="82" type="line"/>
      <point x="80" y="82" type="line"/>
      <point x="80" y="2" type="line"/>
      <point x="0" y="2" type="line"/>
    </contour>
  </outline>
</glyph>
<glyph name="one" format="2">
  <advance width="640"/>
  <unicode hex="0031"/>
  <outline>
    <contour>
      <point x="240" y="882" type="line"/>
      <point x="320" y="882" type="line"/>
      <point x="320" y="2" type="line"/>
      <point x="240" y="2" type="line"/>
      <point x="240" y="642" type="line"/>
      <point x="80" y="642" type="line"/>
      <point x="80" y="722" type="line"/>
      <point x="160" y="722" type="line"/>
      <point x="160" y="802" type="line"/>
      <point x="240" y="802" type="line"/>
    </contour>
  </outline>
</glyph>
<glyph name="three" format="2">
  <advance width="640"/>
  <unicode hex="0033"/>
  <outline>
    <contour>
      <point x="0" y="322" type="line"/>
      <point x="80" y="322" type="line"/>
      <point x="80" y="82" type="line"/>
      <point x="400" y="82" type="line"/>
      <point x="400" y="2" type="line"/>
      <point x="80" y="2" type="line"/>
      <point x="80" y="82" type="line"/>
      <point x="0" y="82" type="line"/>
    </contour>
    <contour>
      <point x="0" y="642" type="line"/>
      <point x="0" y="802" type="line"/>
      <point x="80" y="802" type="line"/>
      <point x="80" y="642" type="line"/>
    </contour>
    <contour>
      <point x="400" y="82" type="line"/>
      <point x="400" y="402" type="line"/>
      <point x="480" y="402" type="line"/>
      <point x="480" y="82" type="line"/>
    </contour>
    <contour>
      <point x="400" y="402" type="line"/>
      <point x="240" y="402" type="line"/>
      <point x="240" y="482" type="line"/>
      <point x="400" y="482" type="line"/>
    </contour>
    <contour>
      <point x="400" y="482" type="line"/>
      <point x="400" y="802" type="line"/>
      <point x="480" y="802" type="line"/>
      <point x="480" y="482" type="line"/>
    </contour>
    <contour>
      <point x="400" y="802" type="line"/>
      <point x="80" y="802" type="line"/>
      <point x="80" y="882" type="line"/>
      <point x="400" y="882" type="line"/>
    </contour>
  </outline>
</glyph>
<glyph name="colon" format="2">
  <advance width="240"/>
  <unicode hex="003A"/>
  <outline>
    <contour>
      <point x="80" y="82" type="line"/>
      <point x="160" y="82" type="line"/>
      <point x="160" y="2" type="line"/>
      <point x="80" y="2" type="line"/>
    </contour>
    <contour>
      <point x="80" y="562" type="line"/>
      <point x="160" y="562" type="line"/>
      <point x="160" y="482" type="line"/>
      <point x="80" y="482" type="line"/>
    </contour>
  </outline>
</glyph>
<glyph name="semicolon" format="2">
  <advance width="240"/>
  <unicode hex="003B"/>
  <outline>
    <contour>
      <point x="80" y="82" type="line"/>
      <point x="160" y="82" type="line"/>
      <point x="160" y="-78" type="line"/>
      <point x="80" y="-78" type="line"/>
      <point x="80" y="-158" type="line"/>
      <point x="0" y="-158" type="line"/>
      <point x="0" y="-78" type="line"/>
      <point x="80" y="-78" type="line"/>
    </contour>
    <contour>
      <point x="80" y="562" type="line"/>
      <point x="160" y="562" type="line"/>
      <point x="160" y="482" type="line"/>
      <point x="80" y="482" type="line"/>
    </contour>
  </outline>
</glyph>
<glyph name="equal" format="2">
  <advance width="640"/>
  <unicode hex="003D"/>
  <outline>
    <contour>
      <point x="560" y="242" type="line"/>
      <point x="0" y="242" type="line"/>
      <point x="0" y="322" type="line"/>
      <point x="560" y="322" type="line"/>
    </contour>
    <contour>
      <point x="560" y="562" type="line"/>
      <point x="0" y="562" type="line"/>
      <point x="0" y="642" type="line"/>
      <point x="560" y="642" type="line"/>
    </contour>
  </outline>
</glyph>
<glyph name="at" format="2">
  <advance width="880"/>
  <unicode hex="0040"/>
  <outline>
    <contour>
      <point x="560" y="2" type="line"/>
      <point x="240" y="2" type="line"/>
      <point x="240" y="82" type="line"/>
      <point x="560" y="82" type="line"/>
    </contour>
    <contour>
      <point x="640" y="162" type="line"/>
      <point x="480" y="162" type="line"/>
      <point x="480" y="242" type="line"/>
      <point x="640" y="242" type="line"/>
    </contour>
    <contour>
      <point x="240" y="162" type="line"/>
      <point x="240" y="82" type="line"/>
      <point x="80" y="82" type="line"/>
      <point x="80" y="242" type="line"/>
      <point x="160" y="242" type="line"/>
      <point x="160" y="162" type="line"/>
    </contour>
    <contour>
      <point x="240" y="162" type="line"/>
      <point x="240" y="242" type="line"/>
      <point x="400" y="242" type="line"/>
      <point x="400" y="162" type="line"/>
    </contour>
    <contour>
      <point x="240" y="242" type="line"/>
      <point x="160" y="242" type="line"/>
      <point x="160" y="562" type="line"/>
      <point x="240" y="562" type="line"/>
    </contour>
    <contour>
      <point x="240" y="562" type="line"/>
      <point x="240" y="642" type="line"/>
      <point x="320" y="642" type="line"/>
      <point x="320" y="562" type="line"/>
    </contour>
    <contour>
      <point x="80" y="642" type="line"/>
      <point x="80" y="242" type="line"/>
      <point x="0" y="242" type="line"/>
      <point x="0" y="642" type="line"/>
    </contour>
    <contour>
      <point x="80" y="642" type="line"/>
      <point x="80" y="802" type="line"/>
      <point x="240" y="802" type="line"/>
      <point x="240" y="722" type="line"/>
      <point x="160" y="722" type="line"/>
      <point x="160" y="642" type="line"/>
    </contour>
    <contour>
      <point x="640" y="242" type="line"/>
      <point x="640" y="642" type="line"/>
      <point x="720" y="642" type="line"/>
      <point x="720" y="242" type="line"/>
    </contour>
    <contour>
      <point x="640" y="642" type="line"/>
      <point x="560" y="642" type="line"/>
      <point x="560" y="482" type="line"/>
      <point x="480" y="482" type="line"/>
      <point x="480" y="242" type="line"/>
      <point x="400" y="242" type="line"/>
      <point x="400" y="482" type="line"/>
      <point x="480" y="482" type="line"/>
      <point x="480" y="642" type="line"/>
      <point x="320" y="642" type="line"/>
      <point x="320" y="722" type="line"/>
      <point x="480" y="722" type="line"/>
      <point x="480" y="802" type="line"/>
      <point x="640" y="802" type="line"/>
    </contour>
    <contour>
      <point x="240" y="802" type="line"/>
      <point x="240" y="882" type="line"/>
      <point x="480" y="882" type="line"/>
      <point x="480" y="802" type="line"/>
    </contour>
  </outline>
</glyph>
<glyph name="D" format="2">
  <advance width="800"/>
  <unicode hex="0044"/>
  <outline>
    <contour>
      <point x="480" y="2" type="line"/>
      <point x="80" y="2" type="line"/>
      <point x="80" y="882" type="line"/>
      <point x="480" y="882" type="line"/>
      <point x="480" y="802" type="line"/>
      <point x="560" y="802" type="line"/>
      <point x="560" y="722" type="line"/>
      <point x="640" y="722" type="line"/>
      <point x="640" y="642" type="line"/>
      <point x="720" y="642" type="line"/>
      <point x="720" y="242" type="line"/>
      <point x="640" y="242" type="line"/>
      <point x="640" y="162" type="line"/>
      <point x="560" y="162" type="line"/>
      <point x="560" y="82" type="line"/>
      <point x="480" y="82" type="line"/>
    </contour>
    <contour>
      <point x="560" y="722" type="line"/>
      <point x="480" y="722" type="line"/>
      <point x="480" y="802" type="line"/>
      <point x="160" y="802" type="line"/>
      <point x="160" y="82" type="line"/>
      <point x="480" y="82" type="line"/>
      <point x="480" y="162" type="line"/>
      <point x="560" y="162" type="line"/>
      <point x="560" y="242" type="line"/>
      <point x="640" y="242" type="line"/>
      <point x="640" y="642" type="line"/>
      <point x="560" y="642" type="line"/>
    </contour>
  </outline>
</glyph>
<glyph name="E" format="2">
  <advance width="720"/>
  <unicode hex="0045"/>
  <outline>
    <contour>
      <point x="640" y="2" type="line"/>
      <point x="80" y="2" type="line"/>
      <point x="80" y="882" type="line"/>
      <point x="640" y="882" type="line"/>
      <point x="640" y="802" type="line"/>
      <point x="160" y="802" type="line"/>
      <point x="160" y="482" type="line"/>
      <point x="560" y="482" type="line"/>
      <point x="560" y="402" type="line"/>
      <point x="160" y="402" type="line"/>
      <point x="160" y="82" type="line"/>
      <point x="640" y="82" type="line"/>
    </contour>
  </outline>
</glyph>
<glyph name="H" format="2">
  <advance width="800"/>
  <unicode hex="0048"/>
  <outline>
    <contour>
      <point x="640" y="882" type="line"/>
      <point x="720" y="882" type="line"/>
      <point x="720" y="2" type="line"/>
      <point x="640" y="2" type="line"/>
      <point x="640" y="402" type="line"/>
      <point x="160" y="402" type="line"/>
      <point x="160" y="2" type="line"/>
      <point x="80" y="2" type="line"/>
      <point x="80" y="882" type="line"/>
      <point x="160" y="882" type="line"/>
      <point x="160" y="482" type="line"/>
      <point x="640" y="482" type="line"/>
    </contour>
  </outline>
</glyph>
<glyph name="J" format="2">
  <advance width="720"/>
  <unicode hex="004A"/>
  <outline>
    <contour>
      <point x="0" y="322" type="line"/>
      <point x="80" y="322" type="line"/>
      <point x="80" y="162" type="line"/>
      <point x="160" y="162" type="line"/>
      <point x="160" y="82" type="line"/>
      <point x="400" y="82" type="line"/>
      <point x="400" y="2" type="line"/>
      <point x="160" y="2" type="line"/>
      <point x="160" y="82" type="line"/>
      <point x="80" y="82" type="line"/>
      <point x="80" y="162" type="line"/>
      <point x="0" y="162" type="line"/>
    </contour>
    <contour>
      <point x="480" y="882" type="line"/>
      <point x="560" y="882" type="line"/>
      <point x="560" y="162" type="line"/>
      <point x="480" y="162" type="line"/>
      <point x="480" y="82" type="line"/>
      <point x="400" y="82" type="line"/>
      <point x="400" y="162" type="line"/>
      <point x="480" y="162" type="line"/>
    </contour>
  </outline>
</glyph>
<glyph name="K" format="2">
  <advance width="800"/>
  <unicode hex="004B"/>
  <outline>
    <contour>
      <point x="560" y="882" type="line"/>
      <point x="640" y="882" type="line"/>
      <point x="640" y="802" type="line"/>
      <point x="560" y="802" type="line"/>
      <point x="560" y="722" type="line"/>
      <point x="480" y="722" type="line"/>
      <point x="480" y="642" type="line"/>
      <point x="400" y="642" type="line"/>
      <point x="400" y="562" type="line"/>
      <point x="320" y="562" type="line"/>
      <point x="320" y="482" type="line"/>
      <point x="400" y="482" type="line"/>
      <point x="400" y="402" type="line"/>
      <point x="480" y="402" type="line"/>
      <point x="480" y="242" type="line"/>
      <point x="560" y="242" type="line"/>
      <point x="560" y="162" type="line"/>
      <point x="640" y="162" type="line"/>
      <point x="640" y="82" type="line"/>
      <point x="720" y="82" type="line"/>
      <point x="720" y="2" type="line"/>
      <point x="640" y="2" type="line"/>
      <point x="640" y="82" type="line"/>
      <point x="560" y="82" type="line"/>
      <point x="560" y="162" type="line"/>
      <point x="480" y="162" type="line"/>
      <point x="480" y="242" type="line"/>
      <point x="400" y="242" type="line"/>
      <point x="400" y="402" type="line"/>
      <point x="320" y="402" type="line"/>
      <point x="320" y="482" type="line"/>
      <point x="240" y="482" type="line"/>
      <point x="240" y="402" type="line"/>
      <point x="160" y="402" type="line"/>
      <point x="160" y="2" type="line"/>
      <point x="80" y="2" type="line"/>
      <point x="80" y="882" type="line"/>
      <point x="160" y="882" type="line"/>
      <point x="160" y="482" type="line"/>
      <point x="240" y="482" type="line"/>
      <point x="240" y="562" type="line"/>
      <point x="320" y="562" type="line"/>
      <point x="320" y="642" type="line"/>
      <point x="400" y="642" type="line"/>
      <point x="400" y="722" type="line"/>
      <point x="480" y="722" type="line"/>
      <point x="480" y="802" type="line"/>
      <point x="560" y="802" type="line"/>
    </contour>
  </outline>
</glyph>
<glyph name="L" format="2">
  <advance width="720"/>
  <unicode hex="004C"/>
  <outline>
    <contour>
      <point x="80" y="882" type="line"/>
      <point x="160" y="882" type="line"/>
      <point x="160" y="82" type="line"/>
      <point x="640" y="82" type="line"/>
      <point x="640" y="2" type="line"/>
      <point x="80" y="2" type="line"/>
    </contour>
  </outline>
</glyph>
<glyph name="P" format="2">
  <advance width="800"/>
  <unicode hex="0050"/>
  <outline>
    <contour>
      <point x="80" y="2" type="line"/>
      <point x="80" y="882" type="line"/>
      <point x="560" y="882" type="line"/>
      <point x="560" y="802" type="line"/>
      <point x="640" y="802" type="line"/>
      <point x="640" y="722" type="line"/>
      <point x="720" y="722" type="line"/>
      <point x="720" y="482" type="line"/>
      <point x="640" y="482" type="line"/>
      <point x="640" y="402" type="line"/>
      <point x="560" y="402" type="line"/>
      <point x="560" y="322" type="line"/>
      <point x="160" y="322" type="line"/>
      <point x="160" y="2" type="line"/>
    </contour>
    <contour>
      <point x="640" y="722" type="line"/>
      <point x="560" y="722" type="line"/>
      <point x="560" y="802" type="line"/>
      <point x="160" y="802" type="line"/>
      <point x="160" y="402" type="line"/>
      <point x="560" y="402" type="line"/>
      <point x="560" y="482" type="line"/>
      <point x="640" y="482" type="line"/>
    </contour>
  </outline>
</glyph>
<glyph name="R" format="2">
  <advance width="800"/>
  <unicode hex="0052"/>
  <outline>
    <contour>
      <point x="80" y="2" type="line"/>
      <point x="80" y="882" type="line"/>
      <point x="560" y="882" type="line"/>
      <point x="560" y="802" type="line"/>
      <point x="640" y="802" type="line"/>
      <point x="640" y="722" type="line"/>
      <point x="720" y="722" type="line"/>
      <point x="720" y="562" type="line"/>
      <point x="640" y="562" type="line"/>
      <point x="640" y="482" type="line"/>
      <point x="560" y="482" type="line"/>
      <point x="560" y="322" type="line"/>
      <point x="640" y="322" type="line"/>
      <point x="640" y="82" type="line"/>
      <point x="720" y="82" type="line"/>
      <point x="720" y="2" type="line"/>
      <point x="640" y="2" type="line"/>
      <point x="640" y="82" type="line"/>
      <point x="560" y="82" type="line"/>
      <point x="560" y="322" type="line"/>
      <point x="480" y="322" type="line"/>
      <point x="480" y="402" type="line"/>
      <point x="160" y="402" type="line"/>
      <point x="160" y="2" type="line"/>
    </contour>
    <contour>
      <point x="640" y="722" type="line"/>
      <point x="560" y="722" type="line"/>
      <point x="560" y="802" type="line"/>
      <point x="160" y="802" type="line"/>
      <point x="160" y="482" type="line"/>
      <point x="560" y="482" type="line"/>
      <point x="560" y="562" type="line"/>
      <point x="640" y="562" type="line"/>
    </contour>
  </outline>
</glyph>
<glyph name="T" format="2">
  <advance width="720"/>
  <unicode hex="0054"/>
  <outline>
    <contour>
      <point x="320" y="2" type="line"/>
      <point x="320" y="802" type="line"/>
      <point x="0" y="802" type="line"/>
      <point x="0" y="882" type="line"/>
      <point x="720" y="882" type="line"/>
      <point x="720" y="802" type="line"/>
      <point x="400" y="802" type="line"/>
      <point x="400" y="2" type="line"/>
    </contour>
  </outline>
</glyph>
<glyph name="U" format="2">
  <advance width="800"/>
  <unicode hex="0055"/>
  <outline>
    <contour>
      <point x="640" y="882" type="line"/>
      <point x="720" y="882" type="line"/>
      <point x="720" y="162" type="line"/>
      <point x="640" y="162" type="line"/>
      <point x="640" y="82" type="line"/>
      <point x="560" y="82" type="line"/>
      <point x="560" y="2" type="line"/>
      <point x="240" y="2" type="line"/>
      <point x="240" y="82" type="line"/>
      <point x="560" y="82" type="line"/>
      <point x="560" y="162" type="line"/>
      <point x="640" y="162" type="line"/>
    </contour>
    <contour>
      <point x="80" y="882" type="line"/>
      <point x="160" y="882" type="line"/>
      <point x="160" y="162" type="line"/>
      <point x="240" y="162" type="line"/>
      <point x="240" y="82" type="line"/>
      <point x="160" y="82" type="line"/>
      <point x="160" y="162" type="line"/>
      <point x="80" y="162" type="line"/>
    </contour>
  </outline>
</glyph>
<glyph name="V" format="2">
  <advance width="800"/>
  <unicode hex="0056"/>
  <outline>
    <contour>
      <point x="720" y="882" type="line"/>
      <point x="800" y="882" type="line"/>
      <point x="800" y="802" type="line"/>
      <point x="720" y="802" type="line"/>
      <point x="720" y="562" type="line"/>
      <point x="640" y="562" type="line"/>
      <point x="640" y="402" type="line"/>
      <point x="560" y="402" type="line"/>
      <point x="560" y="162" type="line"/>
      <point x="480" y="162" type="line"/>
      <point x="480" y="2" type="line"/>
      <point x="320" y="2" type="line"/>
      <point x="320" y="162" type="line"/>
      <point x="480" y="162" type="line"/>
      <point x="480" y="402" type="line"/>
      <point x="560" y="402" type="line"/>
      <point x="560" y="562" type="line"/>
      <point x="640" y="562" type="line"/>
      <point x="640" y="802" type="line"/>
      <point x="720" y="802" type="line"/>
    </contour>
    <contour>
      <point x="0" y="882" type="line"/>
      <point x="80" y="882" type="line"/>
      <point x="80" y="802" type="line"/>
      <point x="160" y="802" type="line"/>
      <point x="160" y="562" type="line"/>
      <point x="240" y="562" type="line"/>
      <point x="240" y="402" type="line"/>
      <point x="320" y="402" type="line"/>
      <point x="320" y="162" type="line"/>
      <point x="240" y="162" type="line"/>
      <point x="240" y="402" type="line"/>
      <point x="160" y="402" type="line"/>
      <point x="160" y="562" type="line"/>
      <point x="80" y="562" type="line"/>
      <point x="80" y="802" type="line"/>
      <point x="0" y="802" type="line"/>
    </contour>
  </outline>
</glyph>
<glyph name="W" format="2">
  <advance width="960"/>
  <unicode hex="0057"/>
  <outline>
    <contour>
      <point x="880" y="882" type="line"/>
      <point x="960" y="882" type="line"/>
      <point x="960" y="642" type="line"/>
      <point x="880" y="642" type="line"/>
      <point x="880" y="162" type="line"/>
      <point x="800" y="162" type="line"/>
      <point x="800" y="2" type="line"/>
      <point x="720" y="2" type="line"/>
      <point x="720" y="162" type="line"/>
      <point x="800" y="162" type="line"/>
      <point x="800" y="642" type="line"/>
      <point x="880" y="642" type="line"/>
    </contour>
    <contour>
      <point x="0" y="882" type="line"/>
      <point x="80" y="882" type="line"/>
      <point x="80" y="642" type="line"/>
      <point x="160" y="642" type="line"/>
      <point x="160" y="162" type="line"/>
      <point x="240" y="162" type="line"/>
      <point x="240" y="2" type="line"/>
      <point x="160" y="2" type="line"/>
      <point x="160" y="162" type="line"/>
      <point x="80" y="162" type="line"/>
      <point x="80" y="642" type="line"/>
      <point x="0" y="642" type="line"/>
    </contour>
    <contour>
      <point x="720" y="162" type="line"/>
      <point x="640" y="162" type="line"/>
      <point x="640" y="402" type="line"/>
      <point x="720" y="402" type="line"/>
    </contour>
    <contour>
      <point x="240" y="162" type="line"/>
      <point x="240" y="402" type="line"/>
      <point x="320" y="402" type="line"/>
      <point x="320" y="162" type="line"/>
    </contour>
    <contour>
      <point x="640" y="402" type="line"/>
      <point x="560" y="402" type="line"/>
      <point x="560" y="642" type="line"/>
      <point x="640" y="642" type="line"/>
    </contour>
    <contour>
      <point x="320" y="402" type="line"/>
      <point x="320" y="642" type="line"/>
      <point x="400" y="642" type="line"/>
      <point x="400" y="402" type="line"/>
    </contour>
    <contour>
      <point x="560" y="642" type="line"/>
      <point x="400" y="642" type="line"/>
      <point x="400" y="882" type="line"/>
      <point x="560" y="882" type="line"/>
    </contour>
  </outline>
</glyph>
<glyph name="Z" format="2">
  <advance width="720"/>
  <unicode hex="005A"/>
  <outline>
    <contour>
      <point x="560" y="2" type="line"/>
      <point x="0" y="2" type="line"/>
      <point x="0" y="162" type="line"/>
      <point x="80" y="162" type="line"/>
      <point x="80" y="82" type="line"/>
      <point x="560" y="82" type="line"/>
    </contour>
    <contour>
      <point x="480" y="722" type="line"/>
      <point x="480" y="642" type="line"/>
      <point x="400" y="642" type="line"/>
      <point x="400" y="482" type="line"/>
      <point x="320" y="482" type="line"/>
      <point x="320" y="402" type="line"/>
      <point x="240" y="402" type="line"/>
      <point x="240" y="322" type="line"/>
      <point x="160" y="322" type="line"/>
      <point x="160" y="162" type="line"/>
      <point x="80" y="162" type="line"/>
      <point x="80" y="322" type="line"/>
      <point x="160" y="322" type="line"/>
      <point x="160" y="402" type="line"/>
      <point x="240" y="402" type="line"/>
      <point x="240" y="482" type="line"/>
      <point x="320" y="482" type="line"/>
      <point x="320" y="642" type="line"/>
      <point x="400" y="642" type="line"/>
      <point x="400" y="722" type="line"/>
    </contour>
    <contour>
      <point x="480" y="722" type="line"/>
      <point x="480" y="802" type="line"/>
      <point x="0" y="802" type="line"/>
      <point x="0" y="882" type="line"/>
      <point x="560" y="882" type="line"/>
      <point x="560" y="722" type="line"/>
    </contour>
  </outline>
</glyph>
<glyph name="bracketleft" format="2">
  <advance width="400"/>
  <unicode hex="005B"/>
  <outline>
    <contour>
      <point x="400" y="-78" type="line"/>
      <point x="80" y="-78" type="line"/>
      <point x="80" y="1122" type="line"/>
      <point x="400" y="1122" type="line"/>
      <point x="400" y="1042" type="line"/>
      <point x="160" y="1042" type="line"/>
      <point x="160" y="2" type="line"/>
      <point x="400" y="2" type="line"/>
    </contour>
  </outline>
</glyph>
<glyph name="backslash" format="2">
  <advance width="640"/>
  <unicode hex="005C"/>
  <outline>
    <contour>
      <point x="480" y="882" type="line"/>
      <point x="560" y="882" type="line"/>
      <point x="560" y="802" type="line"/>
      <point x="480" y="802" type="line"/>
      <point x="480" y="642" type="line"/>
      <point x="400" y="642" type="line"/>
      <point x="400" y="482" type="line"/>
      <point x="480" y="482" type="line"/>
      <point x="480" y="402" type="line"/>
      <point x="320" y="402" type="line"/>
      <point x="320" y="322" type="line"/>
      <point x="480" y="322" type="line"/>
      <point x="480" y="242" type="line"/>
      <point x="320" y="242" type="line"/>
      <point x="320" y="2" type="line"/>
      <point x="240" y="2" type="line"/>
      <point x="240" y="242" type="line"/>
      <point x="80" y="242" type="line"/>
      <point x="80" y="322" type="line"/>
      <point x="240" y="322" type="line"/>
      <point x="240" y="402" type="line"/>
      <point x="80" y="402" type="line"/>
      <point x="80" y="482" type="line"/>
      <point x="160" y="482" type="line"/>
      <point x="160" y="642" type="line"/>
      <point x="240" y="642" type="line"/>
      <point x="240" y="482" type="line"/>
      <point x="320" y="482" type="line"/>
      <point x="320" y="642" type="line"/>
      <point x="400" y="642" type="line"/>
      <point x="400" y="802" type="line"/>
      <point x="480" y="802" type="line"/>
    </contour>
    <contour>
      <point x="0" y="882" type="line"/>
      <point x="80" y="882" type="line"/>
      <point x="80" y="802" type="line"/>
      <point x="160" y="802" type="line"/>
      <point x="160" y="642" type="line"/>
      <point x="80" y="642" type="line"/>
      <point x="80" y="802" type="line"/>
      <point x="0" y="802" type="line"/>
    </contour>
  </outline>
</glyph>
<glyph name="bracketright" format="2">
  <advance width="400"/>
  <unicode hex="005D"/>
  <outline>
    <contour>
      <point x="320" y="-78" type="line"/>
      <point x="0" y="-78" type="line"/>
      <point x="0" y="2" type="line"/>
      <point x="240" y="2" type="line"/>
      <point x="240" y="1042" type="line"/>
      <point x="0" y="1042" type="line"/>
      <point x="0" y="1122" type="line"/>
      <point x="320" y="1122" type="line"/>
    </contour>
  </outline>
</glyph>
<glyph name="underscore" format="2">
  <advance width="400"/>
  <unicode hex="005F"/>
  <outline>
    <contour>
      <point x="320" y="-158" type="line"/>
      <point x="0" y="-158" type="line"/>
      <point x="0" y="-78" type="line"/>
      <point x="320" y="-78" type="line"/>
    </contour>
  </outline>
</glyph>
<glyph name="grave" format="2">
  <advance width="560"/>
  <unicode hex="0060"/>
  <outline>
    <contour>
      <point x="320" y="882" type="line"/>
      <point x="400" y="882" type="line"/>
      <point x="400" y="802" type="line"/>
      <point x="320" y="802" type="line"/>
    </contour>
    <contour>
      <point x="320" y="882" type="line"/>
      <point x="160" y="882" type="line"/>
      <point x="160" y="962" type="line"/>
      <point x="80" y="962" type="line"/>
      <point x="80" y="1042" type="line"/>
      <point x="240" y="1042" type="line"/>
      <point x="240" y="962" type="line"/>
      <point x="320" y="962" type="line"/>
    </contour>
  </outline>
</glyph>
<glyph name="a" format="2">
  <advance width="640"/>
  <unicode hex="0061"/>
  <outline>
    <contour>
      <point x="320" y="2" type="line"/>
      <point x="80" y="2" type="line"/>
      <point x="80" y="82" type="line"/>
      <point x="320" y="82" type="line"/>
    </contour>
    <contour>
      <point x="480" y="482" type="line"/>
      <point x="480" y="2" type="line"/>
      <point x="400" y="2" type="line"/>
      <point x="400" y="82" type="line"/>
      <point x="320" y="82" type="line"/>
      <point x="320" y="162" type="line"/>
      <point x="400" y="162" type="line"/>
      <point x="400" y="242" type="line"/>
      <point x="80" y="242" type="line"/>
      <point x="80" y="82" type="line"/>
      <point x="0" y="82" type="line"/>
      <point x="0" y="242" type="line"/>
      <point x="80" y="242" type="line"/>
      <point x="80" y="322" type="line"/>
      <point x="400" y="322" type="line"/>
      <point x="400" y="482" type="line"/>
    </contour>
    <contour>
      <point x="80" y="482" type="line"/>
      <point x="80" y="402" type="line"/>
      <point x="0" y="402" type="line"/>
      <point x="0" y="482" type="line"/>
    </contour>
    <contour>
      <point x="80" y="482" type="line"/>
      <point x="80" y="562" type="line"/>
      <point x="400" y="562" type="line"/>
      <point x="400" y="482" type="line"/>
    </contour>
  </outline>
</glyph>
<glyph name="c" format="2">
  <advance width="640"/>
  <unicode hex="0063"/>
  <outline>
    <contour>
      <point x="480" y="162" type="line"/>
      <point x="560" y="162" type="line"/>
      <point x="560" y="82" type="line"/>
      <point x="480" y="82" type="line"/>
      <point x="480" y="2" type="line"/>
      <point x="160" y="2" type="line"/>
      <point x="160" y="82" type="line"/>
      <point x="480" y="82" type="line"/>
    </contour>
    <contour>
      <point x="160" y="82" type="line"/>
      <point x="80" y="82" type="line"/>
      <point x="80" y="162" type="line"/>
      <point x="160" y="162" type="line"/>
    </contour>
    <contour>
      <point x="80" y="162" type="line"/>
      <point x="0" y="162" type="line"/>
      <point x="0" y="402" type="line"/>
      <point x="80" y="402" type="line"/>
    </contour>
    <contour>
      <point x="80" y="402" type="line"/>
      <point x="80" y="482" type="line"/>
      <point x="160" y="482" type="line"/>
      <point x="160" y="402" type="line"/>
    </contour>
    <contour>
      <point x="480" y="482" type="line"/>
      <point x="560" y="482" type="line"/>
      <point x="560" y="402" type="line"/>
      <point x="480" y="402" type="line"/>
    </contour>
    <contour>
      <point x="480" y="482" type="line"/>
      <point x="160" y="482" type="line"/>
      <point x="160" y="562" type="line"/>
      <point x="480" y="562" type="line"/>
    </contour>
  </outline>
</glyph>
<glyph name="d" format="2">
  <advance width="640"/>
  <unicode hex="0064"/>
  <outline>
    <contour>
      <point x="400" y="882" type="line"/>
      <point x="480" y="882" type="line"/>
      <point x="480" y="2" type="line"/>
      <point x="400" y="2" type="line"/>
      <point x="400" y="82" type="line"/>
      <point x="320" y="82" type="line"/>
      <point x="320" y="2" type="line"/>
      <point x="80" y="2" type="line"/>
      <point x="80" y="82" type="line"/>
      <point x="320" y="82" type="line"/>
      <point x="320" y="162" type="line"/>
      <point x="400" y="162" type="line"/>
      <point x="400" y="402" type="line"/>
      <point x="320" y="402" type="line"/>
      <point x="320" y="482" type="line"/>
      <point x="400" y="482" type="line"/>
    </contour>
    <contour>
      <point x="80" y="82" type="line"/>
      <point x="0" y="82" type="line"/>
      <point x="0" y="482" type="line"/>
      <point x="80" y="482" type="line"/>
    </contour>
    <contour>
      <point x="80" y="482" type="line"/>
      <point x="80" y="562" type="line"/>
      <point x="320" y="562" type="line"/>
      <point x="320" y="482" type="line"/>
    </contour>
  </outline>
</glyph>
<glyph name="g" format="2">
  <advance width="560"/>
  <unicode hex="0067"/>
  <outline>
    <contour>
      <point x="480" y="-158" type="line"/>
      <point x="80" y="-158" type="line"/>
      <point x="80" y="-78" type="line"/>
      <point x="480" y="-78" type="line"/>
    </contour>
    <contour>
      <point x="480" y="-78" type="line"/>
      <point x="480" y="2" type="line"/>
      <point x="560" y="2" type="line"/>
      <point x="560" y="-78" type="line"/>
    </contour>
    <contour>
      <point x="480" y="2" type="line"/>
      <point x="80" y="2" type="line"/>
      <point x="80" y="-78" type="line"/>
      <point x="0" y="-78" type="line"/>
      <point x="0" y="2" type="line"/>
      <point x="80" y="2" type="line"/>
      <point x="80" y="162" type="line"/>
      <point x="160" y="162" type="line"/>
      <point x="160" y="82" type="line"/>
      <point x="480" y="82" type="line"/>
    </contour>
    <contour>
      <point x="400" y="242" type="line"/>
      <point x="400" y="162" type="line"/>
      <point x="160" y="162" type="line"/>
      <point x="160" y="242" type="line"/>
    </contour>
    <contour>
      <point x="400" y="242" type="line"/>
      <point x="400" y="482" type="line"/>
      <point x="160" y="482" type="line"/>
      <point x="160" y="242" type="line"/>
      <point x="80" y="242" type="line"/>
      <point x="80" y="482" type="line"/>
      <point x="160" y="482" type="line"/>
      <point x="160" y="562" type="line"/>
      <point x="560" y="562" type="line"/>
      <point x="560" y="482" type="line"/>
      <point x="480" y="482" type="line"/>
      <point x="480" y="242" type="line"/>
    </contour>
  </outline>
</glyph>
<glyph name="h" format="2">
  <advance width="640"/>
  <unicode hex="0068"/>
  <outline>
    <contour>
      <point x="80" y="882" type="line"/>
      <point x="160" y="882" type="line"/>
      <point x="160" y="482" type="line"/>
      <point x="240" y="482" type="line"/>
      <point x="240" y="402" type="line"/>
      <point x="160" y="402" type="line"/>
      <point x="160" y="2" type="line"/>
      <point x="80" y="2" type="line"/>
    </contour>
    <contour>
      <point x="480" y="482" type="line"/>
      <point x="560" y="482" type="line"/>
      <point x="560" y="2" type="line"/>
      <point x="480" y="2" type="line"/>
    </contour>
    <contour>
      <point x="480" y="482" type="line"/>
      <point x="240" y="482" type="line"/>
      <point x="240" y="562" type="line"/>
      <point x="480" y="562" type="line"/>
    </contour>
  </outline>
</glyph>
<glyph name="j" format="2">
  <advance width="320"/>
  <unicode hex="006A"/>
  <outline>
    <contour>
      <point x="160" y="562" type="line"/>
      <point x="240" y="562" type="line"/>
      <point x="240" y="-78" type="line"/>
      <point x="160" y="-78" type="line"/>
      <point x="160" y="-158" type="line"/>
      <point x="0" y="-158" type="line"/>
      <point x="0" y="-78" type="line"/>
      <point x="160" y="-78" type="line"/>
    </contour>
    <contour>
      <point x="160" y="882" type="line"/>
      <point x="240" y="882" type="line"/>
      <point x="240" y="722" type="line"/>
      <point x="160" y="722" type="line"/>
    </contour>
  </outline>
</glyph>
<glyph name="k" format="2">
  <advance width="560"/>
  <unicode hex="006B"/>
  <outline>
    <contour>
      <point x="400" y="562" type="line"/>
      <point x="480" y="562" type="line"/>
      <point x="480" y="482" type="line"/>
      <point x="400" y="482" type="line"/>
      <point x="400" y="402" type="line"/>
      <point x="320" y="402" type="line"/>
      <point x="320" y="322" type="line"/>
      <point x="400" y="322" type="line"/>
      <point x="400" y="162" type="line"/>
      <point x="480" y="162" type="line"/>
      <point x="480" y="82" type="line"/>
      <point x="560" y="82" type="line"/>
      <point x="560" y="2" type="line"/>
      <point x="480" y="2" type="line"/>
      <point x="480" y="82" type="line"/>
      <point x="400" y="82" type="line"/>
      <point x="400" y="162" type="line"/>
      <point x="320" y="162" type="line"/>
      <point x="320" y="322" type="line"/>
      <point x="240" y="322" type="line"/>
      <point x="240" y="242" type="line"/>
      <point x="160" y="242" type="line"/>
      <point x="160" y="2" type="line"/>
      <point x="80" y="2" type="line"/>
      <point x="80" y="882" type="line"/>
      <point x="160" y="882" type="line"/>
      <point x="160" y="322" type="line"/>
      <point x="240" y="322" type="line"/>
      <point x="240" y="402" type="line"/>
      <point x="320" y="402" type="line"/>
      <point x="320" y="482" type="line"/>
      <point x="400" y="482" type="line"/>
    </contour>
  </outline>
</glyph>
<glyph name="m" format="2">
  <advance width="960"/>
  <unicode hex="006D"/>
  <outline>
    <contour>
      <point x="80" y="562" type="line"/>
      <point x="160" y="562" type="line"/>
      <point x="160" y="482" type="line"/>
      <point x="240" y="482" type="line"/>
      <point x="240" y="402" type="line"/>
      <point x="160" y="402" type="line"/>
      <point x="160" y="2" type="line"/>
      <point x="80" y="2" type="line"/>
    </contour>
    <contour>
      <point x="720" y="482" type="line"/>
      <point x="800" y="482" type="line"/>
      <point x="800" y="2" type="line"/>
      <point x="720" y="2" type="line"/>
    </contour>
    <contour>
      <point x="720" y="482" type="line"/>
      <point x="560" y="482" type="line"/>
      <point x="560" y="402" type="line"/>
      <point x="480" y="402" type="line"/>
      <point x="480" y="2" type="line"/>
      <point x="400" y="2" type="line"/>
      <point x="400" y="482" type="line"/>
      <point x="560" y="482" type="line"/>
      <point x="560" y="562" type="line"/>
      <point x="720" y="562" type="line"/>
    </contour>
    <contour>
      <point x="400" y="482" type="line"/>
      <point x="240" y="482" type="line"/>
      <point x="240" y="562" type="line"/>
      <point x="400" y="562" type="line"/>
    </contour>
  </outline>
</glyph>
<glyph name="q" format="2">
  <advance width="640"/>
  <unicode hex="0071"/>
  <outline>
    <contour>
      <point x="400" y="562" type="line"/>
      <point x="480" y="562" type="line"/>
      <point x="480" y="-158" type="line"/>
      <point x="400" y="-158" type="line"/>
      <point x="400" y="82" type="line"/>
      <point x="320" y="82" type="line"/>
      <point x="320" y="2" type="line"/>
      <point x="80" y="2" type="line"/>
      <point x="80" y="82" type="line"/>
      <point x="320" y="82" type="line"/>
      <point x="320" y="162" type="line"/>
      <point x="400" y="162" type="line"/>
      <point x="400" y="402" type="line"/>
      <point x="320" y="402" type="line"/>
      <point x="320" y="482" type="line"/>
      <point x="400" y="482" type="line"/>
    </contour>
    <contour>
      <point x="80" y="82" type="line"/>
      <point x="0" y="82" type="line"/>
      <point x="0" y="482" type="line"/>
      <point x="80" y="482" type="line"/>
    </contour>
    <contour>
      <point x="80" y="482" type="line"/>
      <point x="80" y="562" type="line"/>
      <point x="320" y="562" type="line"/>
      <point x="320" y="482" type="line"/>
    </contour>
  </outline>
</glyph>
<glyph name="r" format="2">
  <advance width="480"/>
  <unicode hex="0072"/>
  <outline>
    <contour>
      <point x="80" y="562" type="line"/>
      <point x="160" y="562" type="line"/>
      <point x="160" y="482" type="line"/>
      <point x="320" y="482" type="line"/>
      <point x="320" y="402" type="line"/>
      <point x="160" y="402" type="line"/>
      <point x="160" y="2" type="line"/>
      <point x="80" y="2" type="line"/>
    </contour>
    <contour>
      <point x="320" y="482" type="line"/>
      <point x="320" y="562" type="line"/>
      <point x="480" y="562" type="line"/>
      <point x="480" y="482" type="line"/>
    </contour>
  </outline>
</glyph>
<glyph name="s" format="2">
  <advance width="560"/>
  <unicode hex="0073"/>
  <outline>
    <contour>
      <point x="0" y="162" type="line"/>
      <point x="80" y="162" type="line"/>
      <point x="80" y="82" type="line"/>
      <point x="400" y="82" type="line"/>
      <point x="400" y="2" type="line"/>
      <point x="80" y="2" type="line"/>
      <point x="80" y="82" type="line"/>
      <point x="0" y="82" type="line"/>
    </contour>
    <contour>
      <point x="400" y="82" type="line"/>
      <point x="400" y="242" type="line"/>
      <point x="480" y="242" type="line"/>
      <point x="480" y="82" type="line"/>
    </contour>
    <contour>
      <point x="400" y="242" type="line"/>
      <point x="80" y="242" type="line"/>
      <point x="80" y="322" type="line"/>
      <point x="400" y="322" type="line"/>
    </contour>
    <contour>
      <point x="80" y="322" type="line"/>
      <point x="0" y="322" type="line"/>
      <point x="0" y="482" type="line"/>
      <point x="80" y="482" type="line"/>
    </contour>
    <contour>
      <point x="400" y="482" type="line"/>
      <point x="480" y="482" type="line"/>
      <point x="480" y="402" type="line"/>
      <point x="400" y="402" type="line"/>
    </contour>
    <contour>
      <point x="400" y="482" type="line"/>
      <point x="80" y="482" type="line"/>
      <point x="80" y="562" type="line"/>
      <point x="400" y="562" type="line"/>
    </contour>
  </outline>
</glyph>
<glyph name="t" format="2">
  <advance width="480"/>
  <unicode hex="0074"/>
  <outline>
    <contour>
      <point x="160" y="722" type="line"/>
      <point x="240" y="722" type="line"/>
      <point x="240" y="562" type="line"/>
      <point x="400" y="562" type="line"/>
      <point x="400" y="482" type="line"/>
      <point x="240" y="482" type="line"/>
      <point x="240" y="82" type="line"/>
      <point x="400" y="82" type="line"/>
      <point x="400" y="2" type="line"/>
      <point x="240" y="2" type="line"/>
      <point x="240" y="82" type="line"/>
      <point x="160" y="82" type="line"/>
      <point x="160" y="482" type="line"/>
      <point x="0" y="482" type="line"/>
      <point x="0" y="562" type="line"/>
      <point x="160" y="562" type="line"/>
    </contour>
  </outline>
</glyph>
<glyph name="u" format="2">
  <advance width="640"/>
  <unicode hex="0075"/>
  <outline>
    <contour>
      <point x="480" y="562" type="line"/>
      <point x="560" y="562" type="line"/>
      <point x="560" y="2" type="line"/>
      <point x="480" y="2" type="line"/>
      <point x="480" y="82" type="line"/>
      <point x="400" y="82" type="line"/>
      <point x="400" y="2" type="line"/>
      <point x="160" y="2" type="line"/>
      <point x="160" y="82" type="line"/>
      <point x="400" y="82" type="line"/>
      <point x="400" y="162" type="line"/>
      <point x="480" y="162" type="line"/>
    </contour>
    <contour>
      <point x="80" y="562" type="line"/>
      <point x="160" y="562" type="line"/>
      <point x="160" y="82" type="line"/>
      <point x="80" y="82" type="line"/>
    </contour>
  </outline>
</glyph>
<glyph name="v" format="2">
  <advance width="640"/>
  <unicode hex="0076"/>
  <outline>
    <contour>
      <point x="480" y="562" type="line"/>
      <point x="560" y="562" type="line"/>
      <point x="560" y="482" type="line"/>
      <point x="480" y="482" type="line"/>
      <point x="480" y="242" type="line"/>
      <point x="400" y="242" type="line"/>
      <point x="400" y="82" type="line"/>
      <point x="320" y="82" type="line"/>
      <point x="320" y="2" type="line"/>
      <point x="240" y="2" type="line"/>
      <point x="240" y="82" type="line"/>
      <point x="320" y="82" type="line"/>
      <point x="320" y="242" type="line"/>
      <point x="400" y="242" type="line"/>
      <point x="400" y="482" type="line"/>
      <point x="480" y="482" type="line"/>
    </contour>
    <contour>
      <point x="0" y="562" type="line"/>
      <point x="80" y="562" type="line"/>
      <point x="80" y="482" type="line"/>
      <point x="160" y="482" type="line"/>
      <point x="160" y="242" type="line"/>
      <point x="240" y="242" type="line"/>
      <point x="240" y="82" type="line"/>
      <point x="160" y="82" type="line"/>
      <point x="160" y="242" type="line"/>
      <point x="80" y="242" type="line"/>
      <point x="80" y="482" type="line"/>
      <point x="0" y="482" type="line"/>
    </contour>
  </outline>
</glyph>
<glyph name="w" format="2">
  <advance width="800"/>
  <unicode hex="0077"/>
  <outline>
    <contour>
      <point x="720" y="562" type="line"/>
      <point x="800" y="562" type="line"/>
      <point x="800" y="402" type="line"/>
      <point x="720" y="402" type="line"/>
      <point x="720" y="162" type="line"/>
      <point x="640" y="162" type="line"/>
      <point x="640" y="2" type="line"/>
      <point x="560" y="2" type="line"/>
      <point x="560" y="162" type="line"/>
      <point x="640" y="162" type="line"/>
      <point x="640" y="402" type="line"/>
      <point x="720" y="402" type="line"/>
    </contour>
    <contour>
      <point x="0" y="562" type="line"/>
      <point x="80" y="562" type="line"/>
      <point x="80" y="402" type="line"/>
      <point x="160" y="402" type="line"/>
      <point x="160" y="162" type="line"/>
      <point x="240" y="162" type="line"/>
      <point x="240" y="2" type="line"/>
      <point x="160" y="2" type="line"/>
      <point x="160" y="162" type="line"/>
      <point x="80" y="162" type="line"/>
      <point x="80" y="402" type="line"/>
      <point x="0" y="402" type="line"/>
    </contour>
    <contour>
      <point x="560" y="162" type="line"/>
      <point x="480" y="162" type="line"/>
      <point x="480" y="322" type="line"/>
      <point x="560" y="322" type="line"/>
    </contour>
    <contour>
      <point x="240" y="162" type="line"/>
      <point x="240" y="322" type="line"/>
      <point x="320" y="322" type="line"/>
      <point x="320" y="162" type="line"/>
    </contour>
    <contour>
      <point x="480" y="322" type="line"/>
      <point x="320" y="322" type="line"/>
      <point x="320" y="562" type="line"/>
      <point x="480" y="562" type="line"/>
    </contour>
  </outline>
</glyph>
<glyph name="braceleft" format="2">
  <advance width="320"/>
  <unicode hex="007B"/>
  <outline>
    <contour>
      <point x="240" y="2" type="line"/>
      <point x="80" y="2" type="line"/>
      <point x="80" y="482" type="line"/>
      <point x="160" y="482" type="line"/>
      <point x="160" y="82" type="line"/>
      <point x="240" y="82" type="line"/>
    </contour>
    <contour>
      <point x="80" y="562" type="line"/>
      <point x="80" y="482" type="line"/>
      <point x="0" y="482" type="line"/>
      <point x="0" y="562" type="line"/>
    </contour>
    <contour>
      <point x="80" y="562" type="line"/>
      <point x="80" y="1042" type="line"/>
      <point x="240" y="1042" type="line"/>
      <point x="240" y="962" type="line"/>
      <point x="160" y="962" type="line"/>
      <point x="160" y="562" type="line"/>
    </contour>
  </outline>
</glyph>
<glyph name="bar" format="2">
  <advance width="320"/>
  <unicode hex="007C"/>
  <outline>
    <contour>
      <point x="80" y="1122" type="line"/>
      <point x="160" y="1122" type="line"/>
      <point x="160" y="-158" type="line"/>
      <point x="80" y="-158" type="line"/>
    </contour>
  </outline>
</glyph>
<glyph name="braceright" format="2">
  <advance width="320"/>
  <unicode hex="007D"/>
  <outline>
    <contour>
      <point x="160" y="2" type="line"/>
      <point x="0" y="2" type="line"/>
      <point x="0" y="82" type="line"/>
      <point x="80" y="82" type="line"/>
      <point x="80" y="482" type="line"/>
      <point x="160" y="482" type="line"/>
    </contour>
    <contour>
      <point x="160" y="562" type="line"/>
      <point x="240" y="562" type="line"/>
      <point x="240" y="482" type="line"/>
      <point x="160" y="482" type="line"/>
    </contour>
    <contour>
      <point x="160" y="562" type="line"/>
      <point x="80" y="562" type="line"/>
      <point x="80" y="962" type="line"/>
      <point x="0" y="962" type="line"/>
      <point x="0" y="1042" type="line"/>
      <point x="160" y="1042" type="line"/>
    </contour>
  </outline>
</glyph>
<glyph name="exclamdown" format="2">
  <advance width="320"/>
  <unicode hex="00A1"/>
  <outline>
    <contour>
      <point x="160" y="562" type="line"/>
      <point x="240" y="562" type="line"/>
      <point x="240" y="2" type="line"/>
      <point x="160" y="2" type="line"/>
    </contour>
    <contour>
      <point x="240" y="722" type="line"/>
      <point x="80" y="722" type="line"/>
      <point x="80" y="882" type="line"/>
      <point x="240" y="882" type="line"/>
    </contour>
  </outline>
</glyph>
<glyph name="currency" format="2">
  <advance width="640"/>
  <unicode hex="00A4"/>
  <outline>
    <contour>
      <point x="480" y="722" type="line"/>
      <point x="560" y="722" type="line"/>
      <point x="560" y="642" type="line"/>
      <point x="480" y="642" type="line"/>
      <point x="480" y="562" type="line"/>
      <point x="560" y="562" type="line"/>
      <point x="560" y="322" type="line"/>
      <point x="480" y="322" type="line"/>
      <point x="480" y="242" type="line"/>
      <point x="560" y="242" type="line"/>
      <point x="560" y="162" type="line"/>
      <point x="480" y="162" type="line"/>
      <point x="480" y="242" type="line"/>
      <point x="400" y="242" type="line"/>
      <point x="400" y="162" type="line"/>
      <point x="160" y="162" type="line"/>
      <point x="160" y="242" type="line"/>
      <point x="400" y="242" type="line"/>
      <point x="400" y="322" type="line"/>
      <point x="480" y="322" type="line"/>
      <point x="480" y="562" type="line"/>
      <point x="400" y="562" type="line"/>
      <point x="400" y="642" type="line"/>
      <point x="480" y="642" type="line"/>
    </contour>
    <contour>
      <point x="0" y="722" type="line"/>
      <point x="80" y="722" type="line"/>
      <point x="80" y="642" type="line"/>
      <point x="160" y="642" type="line"/>
      <point x="160" y="562" type="line"/>
      <point x="80" y="562" type="line"/>
      <point x="80" y="322" type="line"/>
      <point x="160" y="322" type="line"/>
      <point x="160" y="242" type="line"/>
      <point x="80" y="242" type="line"/>
      <point x="80" y="162" type="line"/>
      <point x="0" y="162" type="line"/>
      <point x="0" y="242" type="line"/>
      <point x="80" y="242" type="line"/>
      <point x="80" y="322" type="line"/>
      <point x="0" y="322" type="line"/>
      <point x="0" y="562" type="line"/>
      <point x="80" y="562" type="line"/>
      <point x="80" y="642" type="line"/>
      <point x="0" y="642" type="line"/>
    </contour>
    <contour>
      <point x="400" y="642" type="line"/>
      <point x="160" y="642" type="line"/>
      <point x="160" y="722" type="line"/>
      <point x="400" y="722" type="line"/>
    </contour>
  </outline>
</glyph>
<glyph name="brokenbar" format="2">
  <advance width="320"/>
  <unicode hex="00A6"/>
  <outline>
    <contour>
      <point x="80" y="322" type="line"/>
      <point x="160" y="322" type="line"/>
      <point x="160" y="-158" type="line"/>
      <point x="80" y="-158" type="line"/>
    </contour>
    <contour>
      <point x="80" y="1122" type="line"/>
      <point x="160" y="1122" type="line"/>
      <point x="160" y="642" type="line"/>
      <point x="80" y="642" type="line"/>
    </contour>
  </outline>
</glyph>
<glyph name="section" format="2">
  <advance width="1280"/>
  <unicode hex="00A7"/>
  <outline>
    <contour>
      <point x="320" y="162" type="line"/>
      <point x="400" y="162" type="line"/>
      <point x="400" y="2" type="line"/>
      <point x="720" y="2" type="line"/>
      <point x="720" y="-78" type="line"/>
      <point x="400" y="-78" type="line"/>
      <point x="400" y="2" type="line"/>
      <point x="320" y="2" type="line"/>
    </contour>
    <contour>
      <point x="720" y="2" type="line"/>
      <point x="720" y="162" type="line"/>
      <point x="800" y="162" type="line"/>
      <point x="800" y="2" type="line"/>
    </contour>
    <contour>
      <point x="720" y="162" type="line"/>
      <point x="640" y="162" type="line"/>
      <point x="640" y="242" type="line"/>
      <point x="720" y="242" type="line"/>
    </contour>
    <contour>
      <point x="640" y="242" type="line"/>
      <point x="480" y="242" type="line"/>
      <point x="480" y="322" type="line"/>
      <point x="640" y="322" type="line"/>
    </contour>
    <contour>
      <point x="640" y="322" type="line"/>
      <point x="640" y="402" type="line"/>
      <point x="720" y="402" type="line"/>
      <point x="720" y="322" type="line"/>
    </contour>
    <contour>
      <point x="480" y="322" type="line"/>
      <point x="400" y="322" type="line"/>
      <point x="400" y="402" type="line"/>
      <point x="480" y="402" type="line"/>
    </contour>
    <contour>
      <point x="720" y="402" type="line"/>
      <point x="720" y="642" type="line"/>
      <point x="800" y="642" type="line"/>
      <point x="800" y="402" type="line"/>
    </contour>
    <contour>
      <point x="400" y="402" type="line"/>
      <point x="320" y="402" type="line"/>
      <point x="320" y="642" type="line"/>
      <point x="400" y="642" type="line"/>
    </contour>
    <contour>
      <point x="720" y="642" type="line"/>
      <point x="640" y="642" type="line"/>
      <point x="640" y="722" type="line"/>
      <point x="720" y="722" type="line"/>
    </contour>
    <contour>
      <point x="400" y="642" type="line"/>
      <point x="400" y="722" type="line"/>
      <point x="480" y="722" type="line"/>
      <point x="480" y="642" type="line"/>
    </contour>
    <contour>
      <point x="480" y="722" type="line"/>
      <point x="480" y="802" type="line"/>
      <point x="640" y="802" type="line"/>
      <point x="640" y="722" type="line"/>
    </contour>
    <contour>
      <point x="480" y="802" type="line"/>
      <point x="400" y="802" type="line"/>
      <point x="400" y="882" type="line"/>
      <point x="480" y="882" type="line"/>
    </contour>
    <contour>
      <point x="400" y="882" type="line"/>
      <point x="320" y="882" type="line"/>
      <point x="320" y="1042" type="line"/>
      <point x="400" y="1042" type="line"/>
    </contour>
    <contour>
      <point x="720" y="1042" type="line"/>
      <point x="800" y="1042" type="line"/>
      <point x="800" y="882" type="line"/>
      <point x="720" y="882" type="line"/>
    </contour>
    <contour>
      <point x="720" y="1042" type="line"/>
      <point x="400" y="1042" type="line"/>
      <point x="400" y="1122" type="line"/>
      <point x="720" y="1122" type="line"/>
    </contour>
  </outline>
</glyph>
<glyph name="dieresis" format="2">
  <advance width="640"/>
  <unicode hex="00A8"/>
  <outline>
    <contour>
      <point x="480" y="882" type="line"/>
      <point x="320" y="882" type="line"/>
      <point x="320" y="1042" type="line"/>
      <point x="480" y="1042" type="line"/>
    </contour>
    <contour>
      <point x="160" y="882" type="line"/>
      <point x="0" y="882" type="line"/>
      <point x="0" y="1042" type="line"/>
      <point x="160" y="1042" type="line"/>
    </contour>
  </outline>
</glyph>
<glyph name="ordfeminine" format="2">
  <advance width="480"/>
  <unicode hex="00AA"/>
  <outline>
    <contour>
      <point x="240" y="402" type="line"/>
      <point x="80" y="402" type="line"/>
      <point x="80" y="482" type="line"/>
      <point x="240" y="482" type="line"/>
    </contour>
    <contour>
      <point x="240" y="482" type="line"/>
      <point x="240" y="642" type="line"/>
      <point x="80" y="642" type="line"/>
      <point x="80" y="482" type="line"/>
      <point x="0" y="482" type="line"/>
      <point x="0" y="642" type="line"/>
      <point x="80" y="642" type="line"/>
      <point x="80" y="722" type="line"/>
      <point x="240" y="722" type="line"/>
      <point x="240" y="802" type="line"/>
      <point x="320" y="802" type="line"/>
      <point x="320" y="482" type="line"/>
      <point x="400" y="482" type="line"/>
      <point x="400" y="402" type="line"/>
      <point x="320" y="402" type="line"/>
      <point x="320" y="482" type="line"/>
    </contour>
    <contour>
      <point x="240" y="802" type="line"/>
      <point x="80" y="802" type="line"/>
      <point x="80" y="722" type="line"/>
      <point x="0" y="722" type="line"/>
      <point x="0" y="802" type="line"/>
      <point x="80" y="802" type="line"/>
      <point x="80" y="882" type="line"/>
      <point x="240" y="882" type="line"/>
    </contour>
  </outline>
</glyph>
<glyph name="logicalnot" format="2">
  <advance width="800"/>
  <unicode hex="00AC"/>
  <outline>
    <contour>
      <point x="640" y="322" type="line"/>
      <point x="640" y="562" type="line"/>
      <point x="0" y="562" type="line"/>
      <point x="0" y="642" type="line"/>
      <point x="720" y="642" type="line"/>
      <point x="720" y="322" type="line"/>
    </contour>
  </outline>
</glyph>
<glyph name="uni00AD" format="2">
  <advance width="640"/>
  <unicode hex="00AD"/>
  <outline>
    <contour>
      <point x="560" y="402" type="line"/>
      <point x="0" y="402" type="line"/>
      <point x="0" y="482" type="line"/>
      <point x="560" y="482" type="line"/>
    </contour>
  </outline>
</glyph>
<glyph name="macron" format="2">
  <advance width="880"/>
  <unicode hex="00AF"/>
  <outline>
    <contour>
      <point x="880" y="1042" type="line"/>
      <point x="0" y="1042" type="line"/>
      <point x="0" y="1122" type="line"/>
      <point x="880" y="1122" type="line"/>
    </contour>
  </outline>
</glyph>
<glyph name="plusminus" format="2">
  <advance width="1280"/>
  <unicode hex="00B1"/>
  <outline>
    <contour>
      <point x="560" y="1042" type="line"/>
      <point x="640" y="1042" type="line"/>
      <point x="640" y="722" type="line"/>
      <point x="960" y="722" type="line"/>
      <point x="960" y="642" type="line"/>
      <point x="640" y="642" type="line"/>
      <point x="640" y="322" type="line"/>
      <point x="560" y="322" type="line"/>
      <point x="560" y="642" type="line"/>
      <point x="240" y="642" type="line"/>
      <point x="240" y="722" type="line"/>
      <point x="560" y="722" type="line"/>
    </contour>
    <contour>
      <point x="960" y="82" type="line"/>
      <point x="240" y="82" type="line"/>
      <point x="240" y="162" type="line"/>
      <point x="960" y="162" type="line"/>
    </contour>
  </outline>
</glyph>
<glyph name="uni00B2" format="2">
  <advance width="320"/>
  <unicode hex="00B2"/>
  <outline>
    <contour>
      <point x="80" y="882" type="line"/>
      <point x="160" y="882" type="line"/>
      <point x="160" y="802" type="line"/>
      <point x="240" y="802" type="line"/>
      <point x="240" y="642" type="line"/>
      <point x="160" y="642" type="line"/>
      <point x="160" y="562" type="line"/>
      <point x="240" y="562" type="line"/>
      <point x="240" y="482" type="line"/>
      <point x="0" y="482" type="line"/>
      <point x="0" y="562" type="line"/>
      <point x="80" y="562" type="line"/>
      <point x="80" y="642" type="line"/>
      <point x="160" y="642" type="line"/>
      <point x="160" y="802" type="line"/>
      <point x="80" y="802" type="line"/>
      <point x="80" y="722" type="line"/>
      <point x="0" y="722" type="line"/>
      <point x="0" y="802" type="line"/>
      <point x="80" y="802" type="line"/>
    </contour>
  </outline>
</glyph>
<glyph name="acute" format="2">
  <advance width="640"/>
  <unicode hex="00B4"/>
  <outline>
    <contour>
      <point x="240" y="1042" type="line"/>
      <point x="240" y="962" type="line"/>
      <point x="160" y="962" type="line"/>
      <point x="160" y="1042" type="line"/>
    </contour>
    <contour>
      <point x="240" y="1042" type="line"/>
      <point x="240" y="1122" type="line"/>
      <point x="400" y="1122" type="line"/>
      <point x="400" y="1042" type="line"/>
    </contour>
  </outline>
</glyph>
<glyph name="cedilla" format="2">
  <advance width="240"/>
  <unicode hex="00B8"/>
  <outline>
    <contour>
      <point x="80" y="322" type="line"/>
      <point x="80" y="242" type="line"/>
      <point x="0" y="242" type="line"/>
      <point x="0" y="322" type="line"/>
    </contour>
    <contour>
      <point x="80" y="322" type="line"/>
      <point x="80" y="402" type="line"/>
      <point x="0" y="402" type="line"/>
      <point x="0" y="562" type="line"/>
      <point x="160" y="562" type="line"/>
      <point x="160" y="322" type="line"/>
    </contour>
  </outline>
</glyph>
<glyph name="uni00B9" format="2">
  <advance width="320"/>
  <unicode hex="00B9"/>
  <outline>
    <contour>
      <point x="80" y="882" type="line"/>
      <point x="160" y="882" type="line"/>
      <point x="160" y="482" type="line"/>
      <point x="80" y="482" type="line"/>
      <point x="80" y="722" type="line"/>
      <point x="0" y="722" type="line"/>
      <point x="0" y="802" type="line"/>
      <point x="80" y="802" type="line"/>
    </contour>
  </outline>
</glyph>
<glyph name="ordmasculine" format="2">
  <advance width="320"/>
  <unicode hex="00BA"/>
  <outline>
    <contour>
      <point x="80" y="882" type="line"/>
      <point x="160" y="882" type="line"/>
      <point x="160" y="802" type="line"/>
      <point x="240" y="802" type="line"/>
      <point x="240" y="562" type="line"/>
      <point x="160" y="562" type="line"/>
      <point x="160" y="482" type="line"/>
      <point x="80" y="482" type="line"/>
      <point x="80" y="562" type="line"/>
      <point x="160" y="562" type="line"/>
      <point x="160" y="802" type="line"/>
      <point x="80" y="802" type="line"/>
      <point x="80" y="562" type="line"/>
      <point x="0" y="562" type="line"/>
      <point x="0" y="802" type="line"/>
      <point x="80" y="802" type="line"/>
    </contour>
  </outline>
</glyph>
<glyph name="onequarter" format="2">
  <advance width="640"/>
  <unicode hex="00BC"/>
  <outline>
    <contour>
      <point x="400" y="402" type="line"/>
      <point x="480" y="402" type="line"/>
      <point x="480" y="162" type="line"/>
      <point x="560" y="162" type="line"/>
      <point x="560" y="82" type="line"/>
      <point x="480" y="82" type="line"/>
      <point x="480" y="2" type="line"/>
      <point x="400" y="2" type="line"/>
      <point x="400" y="82" type="line"/>
      <point x="240" y="82" type="line"/>
      <point x="240" y="162" type="line"/>
      <point x="160" y="162" type="line"/>
      <point x="160" y="2" type="line"/>
      <point x="80" y="2" type="line"/>
      <point x="80" y="162" type="line"/>
      <point x="160" y="162" type="line"/>
      <point x="160" y="322" type="line"/>
      <point x="240" y="322" type="line"/>
      <point x="240" y="242" type="line"/>
      <point x="320" y="242" type="line"/>
      <point x="320" y="162" type="line"/>
      <point x="400" y="162" type="line"/>
      <point x="400" y="242" type="line"/>
      <point x="320" y="242" type="line"/>
      <point x="320" y="322" type="line"/>
      <point x="400" y="322" type="line"/>
    </contour>
    <contour>
      <point x="400" y="882" type="line"/>
      <point x="480" y="882" type="line"/>
      <point x="480" y="722" type="line"/>
      <point x="400" y="722" type="line"/>
      <point x="400" y="562" type="line"/>
      <point x="320" y="562" type="line"/>
      <point x="320" y="322" type="line"/>
      <point x="240" y="322" type="line"/>
      <point x="240" y="562" type="line"/>
      <point x="320" y="562" type="line"/>
      <point x="320" y="722" type="line"/>
      <point x="400" y="722" type="line"/>
    </contour>
    <contour>
      <point x="80" y="882" type="line"/>
      <point x="160" y="882" type="line"/>
      <point x="160" y="482" type="line"/>
      <point x="80" y="482" type="line"/>
      <point x="80" y="722" type="line"/>
      <point x="0" y="722" type="line"/>
      <point x="0" y="802" type="line"/>
      <point x="80" y="802" type="line"/>
    </contour>
  </outline>
</glyph>
<glyph name="questiondown" format="2">
  <advance width="560"/>
  <unicode hex="00BF"/>
  <outline>
    <contour>
      <point x="400" y="242" type="line"/>
      <point x="480" y="242" type="line"/>
      <point x="480" y="82" type="line"/>
      <point x="400" y="82" type="line"/>
      <point x="400" y="2" type="line"/>
      <point x="80" y="2" type="line"/>
      <point x="80" y="82" type="line"/>
      <point x="400" y="82" type="line"/>
    </contour>
    <contour>
      <point x="240" y="642" type="line"/>
      <point x="320" y="642" type="line"/>
      <point x="320" y="482" type="line"/>
      <point x="240" y="482" type="line"/>
      <point x="240" y="402" type="line"/>
      <point x="160" y="402" type="line"/>
      <point x="160" y="322" type="line"/>
      <point x="80" y="322" type="line"/>
      <point x="80" y="82" type="line"/>
      <point x="0" y="82" type="line"/>
      <point x="0" y="322" type="line"/>
      <point x="80" y="322" type="line"/>
      <point x="80" y="402" type="line"/>
      <point x="160" y="402" type="line"/>
      <point x="160" y="482" type="line"/>
      <point x="240" y="482" type="line"/>
    </contour>
    <contour>
      <point x="320" y="722" type="line"/>
      <point x="160" y="722" type="line"/>
      <point x="160" y="882" type="line"/>
      <point x="320" y="882" type="line"/>
    </contour>
  </outline>
</glyph>
<glyph name="AE" format="2">
  <advance width="880"/>
  <unicode hex="00C6"/>
  <outline>
    <contour>
      <point x="800" y="2" type="line"/>
      <point x="400" y="2" type="line"/>
      <point x="400" y="242" type="line"/>
      <point x="160" y="242" type="line"/>
      <point x="160" y="162" type="line"/>
      <point x="80" y="162" type="line"/>
      <point x="80" y="2" type="line"/>
      <point x="0" y="2" type="line"/>
      <point x="0" y="162" type="line"/>
      <point x="80" y="162" type="line"/>
      <point x="80" y="322" type="line"/>
      <point x="160" y="322" type="line"/>
      <point x="160" y="482" type="line"/>
      <point x="240" y="482" type="line"/>
      <point x="240" y="322" type="line"/>
      <point x="400" y="322" type="line"/>
      <point x="400" y="642" type="line"/>
      <point x="320" y="642" type="line"/>
      <point x="320" y="482" type="line"/>
      <point x="240" y="482" type="line"/>
      <point x="240" y="642" type="line"/>
      <point x="320" y="642" type="line"/>
      <point x="320" y="802" type="line"/>
      <point x="400" y="802" type="line"/>
      <point x="400" y="882" type="line"/>
      <point x="800" y="882" type="line"/>
      <point x="800" y="802" type="line"/>
      <point x="480" y="802" type="line"/>
      <point x="480" y="482" type="line"/>
      <point x="720" y="482" type="line"/>
      <point x="720" y="402" type="line"/>
      <point x="480" y="402" type="line"/>
      <point x="480" y="82" type="line"/>
      <point x="800" y="82" type="line"/>
    </contour>
  </outline>
</glyph>
<glyph name="Ccedilla" format="2">
  <advance width="880"/>
  <unicode hex="00C7"/>
  <outline>
    <contour>
      <point x="720" y="402" type="line"/>
      <point x="800" y="402" type="line"/>
      <point x="800" y="242" type="line"/>
      <point x="720" y="242" type="line"/>
      <point x="720" y="162" type="line"/>
      <point x="640" y="162" type="line"/>
      <point x="640" y="82" type="line"/>
      <point x="560" y="82" type="line"/>
      <point x="560" y="-78" type="line"/>
      <point x="480" y="-78" type="line"/>
      <point x="480" y="-158" type="line"/>
      <point x="400" y="-158" type="line"/>
      <point x="400" y="-78" type="line"/>
      <point x="480" y="-78" type="line"/>
      <point x="480" y="2" type="line"/>
      <point x="400" y="2" type="line"/>
      <point x="400" y="82" type="line"/>
      <point x="240" y="82" type="line"/>
      <point x="240" y="162" type="line"/>
      <point x="640" y="162" type="line"/>
      <point x="640" y="242" type="line"/>
      <point x="720" y="242" type="line"/>
    </contour>
    <contour>
      <point x="240" y="162" type="line"/>
      <point x="80" y="162" type="line"/>
      <point x="80" y="322" type="line"/>
      <point x="160" y="322" type="line"/>
      <point x="160" y="242" type="line"/>
      <point x="240" y="242" type="line"/>
    </contour>
    <contour>
      <point x="80" y="322" type="line"/>
      <point x="0" y="322" type="line"/>
      <point x="0" y="642" type="line"/>
      <point x="80" y="642" type="line"/>
    </contour>
    <contour>
      <point x="80" y="642" type="line"/>
      <point x="80" y="802" type="line"/>
      <point x="240" y="802" type="line"/>
      <point x="240" y="722" type="line"/>
      <point x="160" y="722" type="line"/>
      <point x="160" y="642" type="line"/>
    </contour>
    <contour>
      <point x="720" y="722" type="line"/>
      <point x="800" y="722" type="line"/>
      <point x="800" y="562" type="line"/>
      <point x="720" y="562" type="line"/>
    </contour>
    <contour>
      <point x="720" y="722" type="line"/>
      <point x="640" y="722" type="line"/>
      <point x="640" y="802" type="line"/>
      <point x="720" y="802" type="line"/>
    </contour>
    <contour>
      <point x="640" y="802" type="line"/>
      <point x="240" y="802" type="line"/>
      <point x="240" y="882" type="line"/>
      <point x="640" y="882" type="line"/>
    </contour>
  </outline>
</glyph>
<glyph name="Egrave" format="2">
  <advance width="720"/>
  <unicode hex="00C8"/>
  <outline>
    <contour>
      <point x="160" y="1122" type="line"/>
      <point x="240" y="1122" type="line"/>
      <point x="240" y="1042" type="line"/>
      <point x="320" y="1042" type="line"/>
      <point x="320" y="962" type="line"/>
      <point x="400" y="962" type="line"/>
      <point x="400" y="882" type="line"/>
      <point x="640" y="882" type="line"/>
      <point x="640" y="802" type="line"/>
      <point x="80" y="802" type="line"/>
      <point x="80" y="482" type="line"/>
      <point x="560" y="482" type="line"/>
      <point x="560" y="402" type="line"/>
      <point x="80" y="402" type="line"/>
      <point x="80" y="82" type="line"/>
      <point x="640" y="82" type="line"/>
      <point x="640" y="2" type="line"/>
      <point x="0" y="2" type="line"/>
      <point x="0" y="882" type="line"/>
      <point x="320" y="882" type="line"/>
      <point x="320" y="962" type="line"/>
      <point x="240" y="962" type="line"/>
      <point x="240" y="1042" type="line"/>
      <point x="160" y="1042" type="line"/>
    </contour>
  </outline>
</glyph>
<glyph name="Idieresis" format="2">
  <advance width="400"/>
  <unicode hex="00CF"/>
  <outline>
    <contour>
      <point x="0" y="1122" type="line"/>
      <point x="80" y="1122" type="line"/>
      <point x="80" y="962" type="line"/>
      <point x="0" y="962" type="line"/>
    </contour>
    <contour>
      <point x="240" y="2" type="line"/>
      <point x="0" y="2" type="line"/>
      <point x="0" y="82" type="line"/>
      <point x="80" y="82" type="line"/>
      <point x="80" y="802" type="line"/>
      <point x="0" y="802" type="line"/>
      <point x="0" y="882" type="line"/>
      <point x="240" y="882" type="line"/>
      <point x="240" y="802" type="line"/>
      <point x="160" y="802" type="line"/>
      <point x="160" y="82" type="line"/>
      <point x="240" y="82" type="line"/>
    </contour>
    <contour>
      <point x="320" y="962" type="line"/>
      <point x="160" y="962" type="line"/>
      <point x="160" y="1122" type="line"/>
      <point x="320" y="1122" type="line"/>
    </contour>
  </outline>
</glyph>
<glyph name="multiply" format="2">
  <advance width="1280"/>
  <unicode hex="00D7"/>
  <outline>
    <contour>
      <point x="880" y="882" type="line"/>
      <point x="960" y="882" type="line"/>
      <point x="960" y="802" type="line"/>
      <point x="880" y="802" type="line"/>
      <point x="880" y="722" type="line"/>
      <point x="800" y="722" type="line"/>
      <point x="800" y="642" type="line"/>
      <point x="720" y="642" type="line"/>
      <point x="720" y="562" type="line"/>
      <point x="640" y="562" type="line"/>
      <point x="640" y="482" type="line"/>
      <point x="720" y="482" type="line"/>
      <point x="720" y="402" type="line"/>
      <point x="800" y="402" type="line"/>
      <point x="800" y="322" type="line"/>
      <point x="880" y="322" type="line"/>
      <point x="880" y="242" type="line"/>
      <point x="960" y="242" type="line"/>
      <point x="960" y="162" type="line"/>
      <point x="880" y="162" type="line"/>
      <point x="880" y="242" type="line"/>
      <point x="800" y="242" type="line"/>
      <point x="800" y="322" type="line"/>
      <point x="720" y="322" type="line"/>
      <point x="720" y="402" type="line"/>
      <point x="640" y="402" type="line"/>
      <point x="640" y="482" type="line"/>
      <point x="560" y="482" type="line"/>
      <point x="560" y="402" type="line"/>
      <point x="480" y="402" type="line"/>
      <point x="480" y="322" type="line"/>
      <point x="400" y="322" type="line"/>
      <point x="400" y="242" type="line"/>
      <point x="320" y="242" type="line"/>
      <point x="320" y="162" type="line"/>
      <point x="240" y="162" type="line"/>
      <point x="240" y="242" type="line"/>
      <point x="320" y="242" type="line"/>
      <point x="320" y="322" type="line"/>
      <point x="400" y="322" type="line"/>
      <point x="400" y="402" type="line"/>
      <point x="480" y="402" type="line"/>
      <point x="480" y="482" type="line"/>
      <point x="560" y="482" type="line"/>
      <point x="560" y="562" type="line"/>
      <point x="640" y="562" type="line"/>
      <point x="640" y="642" type="line"/>
      <point x="720" y="642" type="line"/>
      <point x="720" y="722" type="line"/>
      <point x="800" y="722" type="line"/>
      <point x="800" y="802" type="line"/>
      <point x="880" y="802" type="line"/>
    </contour>
    <contour>
      <point x="240" y="882" type="line"/>
      <point x="320" y="882" type="line"/>
      <point x="320" y="802" type="line"/>
      <point x="400" y="802" type="line"/>
      <point x="400" y="722" type="line"/>
      <point x="480" y="722" type="line"/>
      <point x="480" y="642" type="line"/>
      <point x="560" y="642" type="line"/>
      <point x="560" y="562" type="line"/>
      <point x="480" y="562" type="line"/>
      <point x="480" y="642" type="line"/>
      <point x="400" y="642" type="line"/>
      <point x="400" y="722" type="line"/>
      <point x="320" y="722" type="line"/>
      <point x="320" y="802" type="line"/>
      <point x="240" y="802" type="line"/>
    </contour>
  </outline>
</glyph>
<glyph name="Thorn" format="2">
  <advance width="720"/>
  <unicode hex="00DE"/>
  <outline>
    <contour>
      <point x="0" y="882" type="line"/>
      <point x="80" y="882" type="line"/>
      <point x="80" y="722" type="line"/>
      <point x="400" y="722" type="line"/>
      <point x="400" y="642" type="line"/>
      <point x="480" y="642" type="line"/>
      <point x="480" y="562" type="line"/>
      <point x="560" y="562" type="line"/>
      <point x="560" y="322" type="line"/>
      <point x="480" y="322" type="line"/>
      <point x="480" y="242" type="line"/>
      <point x="400" y="242" type="line"/>
      <point x="400" y="162" type="line"/>
      <point x="80" y="162" type="line"/>
      <point x="80" y="2" type="line"/>
      <point x="0" y="2" type="line"/>
    </contour>
    <contour>
      <point x="480" y="562" type="line"/>
      <point x="400" y="562" type="line"/>
      <point x="400" y="642" type="line"/>
      <point x="80" y="642" type="line"/>
      <point x="80" y="242" type="line"/>
      <point x="400" y="242" type="line"/>
      <point x="400" y="322" type="line"/>
      <point x="480" y="322" type="line"/>
    </contour>
  </outline>
</glyph>
<glyph name="aring" format="2">
  <advance width="640"/>
  <unicode hex="00E5"/>
  <outline>
    <contour>
      <point x="560" y="2" type="line"/>
      <point x="400" y="2" type="line"/>
      <point x="400" y="82" type="line"/>
      <point x="320" y="82" type="line"/>
      <point x="320" y="2" type="line"/>
      <point x="80" y="2" type="line"/>
      <point x="80" y="82" type="line"/>
      <point x="320" y="82" type="line"/>
      <point x="320" y="162" type="line"/>
      <point x="400" y="162" type="line"/>
      <point x="400" y="322" type="line"/>
      <point x="320" y="322" type="line"/>
      <point x="320" y="242" type="line"/>
      <point x="80" y="242" type="line"/>
      <point x="80" y="82" type="line"/>
      <point x="0" y="82" type="line"/>
      <point x="0" y="242" type="line"/>
      <point x="80" y="242" type="line"/>
      <point x="80" y="322" type="line"/>
      <point x="320" y="322" type="line"/>
      <point x="320" y="402" type="line"/>
      <point x="400" y="402" type="line"/>
      <point x="400" y="482" type="line"/>
      <point x="480" y="482" type="line"/>
      <point x="480" y="82" type="line"/>
      <point x="560" y="82" type="line"/>
    </contour>
    <contour>
      <point x="320" y="642" type="line"/>
      <point x="160" y="642" type="line"/>
      <point x="160" y="722" type="line"/>
      <point x="320" y="722" type="line"/>
    </contour>
    <contour>
      <point x="80" y="482" type="line"/>
      <point x="80" y="402" type="line"/>
      <point x="0" y="402" type="line"/>
      <point x="0" y="482" type="line"/>
    </contour>
    <contour>
      <point x="80" y="482" type="line"/>
      <point x="80" y="562" type="line"/>
      <point x="400" y="562" type="line"/>
      <point x="400" y="482" type="line"/>
    </contour>
    <contour>
      <point x="320" y="722" type="line"/>
      <point x="320" y="802" type="line"/>
      <point x="400" y="802" type="line"/>
      <point x="400" y="722" type="line"/>
    </contour>
    <contour>
      <point x="320" y="802" type="line"/>
      <point x="160" y="802" type="line"/>
      <point x="160" y="722" type="line"/>
      <point x="80" y="722" type="line"/>
      <point x="80" y="802" type="line"/>
      <point x="160" y="802" type="line"/>
      <point x="160" y="882" type="line"/>
      <point x="320" y="882" type="line"/>
    </contour>
  </outline>
</glyph>
<glyph name="ae" format="2">
  <advance width="880"/>
  <unicode hex="00E6"/>
  <outline>
    <contour>
      <point x="640" y="162" type="line"/>
      <point x="720" y="162" type="line"/>
      <point x="720" y="82" type="line"/>
      <point x="640" y="82" type="line"/>
      <point x="640" y="2" type="line"/>
      <point x="400" y="2" type="line"/>
      <point x="400" y="82" type="line"/>
      <point x="640" y="82" type="line"/>
    </contour>
    <contour>
      <point x="320" y="2" type="line"/>
      <point x="80" y="2" type="line"/>
      <point x="80" y="82" type="line"/>
      <point x="320" y="82" type="line"/>
    </contour>
    <contour>
      <point x="320" y="82" type="line"/>
      <point x="320" y="242" type="line"/>
      <point x="80" y="242" type="line"/>
      <point x="80" y="82" type="line"/>
      <point x="0" y="82" type="line"/>
      <point x="0" y="242" type="line"/>
      <point x="80" y="242" type="line"/>
      <point x="80" y="322" type="line"/>
      <point x="320" y="322" type="line"/>
      <point x="320" y="482" type="line"/>
      <point x="400" y="482" type="line"/>
      <point x="400" y="322" type="line"/>
      <point x="640" y="322" type="line"/>
      <point x="640" y="482" type="line"/>
      <point x="720" y="482" type="line"/>
      <point x="720" y="242" type="line"/>
      <point x="400" y="242" type="line"/>
      <point x="400" y="82" type="line"/>
    </contour>
    <contour>
      <point x="640" y="482" type="line"/>
      <point x="400" y="482" type="line"/>
      <point x="400" y="562" type="line"/>
      <point x="640" y="562" type="line"/>
    </contour>
    <contour>
      <point x="80" y="482" type="line"/>
      <point x="80" y="402" type="line"/>
      <point x="0" y="402" type="line"/>
      <point x="0" y="482" type="line"/>
    </contour>
    <contour>
      <point x="80" y="482" type="line"/>
      <point x="80" y="562" type="line"/>
      <point x="320" y="562" type="line"/>
      <point x="320" y="482" type="line"/>
    </contour>
  </outline>
</glyph>
<glyph name="igrave" format="2">
  <advance width="400"/>
  <unicode hex="00EC"/>
  <outline>
    <contour>
      <point x="80" y="562" type="line"/>
      <point x="160" y="562" type="line"/>
      <point x="160" y="2" type="line"/>
      <point x="80" y="2" type="line"/>
    </contour>
    <contour>
      <point x="0" y="882" type="line"/>
      <point x="80" y="882" type="line"/>
      <point x="80" y="802" type="line"/>
      <point x="160" y="802" type="line"/>
      <point x="160" y="722" type="line"/>
      <point x="240" y="722" type="line"/>
      <point x="240" y="642" type="line"/>
      <point x="160" y="642" type="line"/>
      <point x="160" y="722" type="line"/>
      <point x="80" y="722" type="line"/>
      <point x="80" y="802" type="line"/>
      <point x="0" y="802" type="line"/>
    </contour>
  </outline>
</glyph>
<glyph name="iacute" format="2">
  <advance width="400"/>
  <unicode hex="00ED"/>
  <outline>
    <contour>
      <point x="80" y="562" type="line"/>
      <point x="160" y="562" type="line"/>
      <point x="160" y="2" type="line"/>
      <point x="80" y="2" type="line"/>
    </contour>
    <contour>
      <point x="160" y="882" type="line"/>
      <point x="240" y="882" type="line"/>
      <point x="240" y="802" type="line"/>
      <point x="160" y="802" type="line"/>
      <point x="160" y="722" type="line"/>
      <point x="80" y="722" type="line"/>
      <point x="80" y="642" type="line"/>
      <point x="0" y="642" type="line"/>
      <point x="0" y="722" type="line"/>
      <point x="80" y="722" type="line"/>
      <point x="80" y="802" type="line"/>
      <point x="160" y="802" type="line"/>
    </contour>
  </outline>
</glyph>
<glyph name="idieresis" format="2">
  <advance width="480"/>
  <unicode hex="00EF"/>
  <outline>
    <contour>
      <point x="160" y="562" type="line"/>
      <point x="240" y="562" type="line"/>
      <point x="240" y="2" type="line"/>
      <point x="160" y="2" type="line"/>
    </contour>
    <contour>
      <point x="400" y="722" type="line"/>
      <point x="240" y="722" type="line"/>
      <point x="240" y="882" type="line"/>
      <point x="400" y="882" type="line"/>
    </contour>
    <contour>
      <point x="160" y="722" type="line"/>
      <point x="0" y="722" type="line"/>
      <point x="0" y="882" type="line"/>
      <point x="160" y="882" type="line"/>
    </contour>
  </outline>
</glyph>
<glyph name="divide" format="2">
  <advance width="1280"/>
  <unicode hex="00F7"/>
  <outline>
    <contour>
      <point x="640" y="162" type="line"/>
      <point x="480" y="162" type="line"/>
      <point x="480" y="322" type="line"/>
      <point x="640" y="322" type="line"/>
    </contour>
    <contour>
      <point x="960" y="482" type="line"/>
      <point x="160" y="482" type="line"/>
      <point x="160" y="562" type="line"/>
      <point x="960" y="562" type="line"/>
    </contour>
    <contour>
      <point x="640" y="722" type="line"/>
      <point x="480" y="722" type="line"/>
      <point x="480" y="882" type="line"/>
      <point x="640" y="882" type="line"/>
    </contour>
  </outline>
</glyph>
<glyph name="udieresis" format="2">
  <advance width="640"/>
  <unicode hex="00FC"/>
  <outline>
    <contour>
      <point x="400" y="562" type="line"/>
      <point x="480" y="562" type="line"/>
      <point x="480" y="2" type="line"/>
      <point x="400" y="2" type="line"/>
      <point x="400" y="82" type="line"/>
      <point x="320" y="82" type="line"/>
      <point x="320" y="2" type="line"/>
      <point x="160" y="2" type="line"/>
      <point x="160" y="82" type="line"/>
      <point x="320" y="82" type="line"/>
      <point x="320" y="162" type="line"/>
      <point x="400" y="162" type="line"/>
    </contour>
    <contour>
      <point x="0" y="562" type="line"/>
      <point x="80" y="562" type="line"/>
      <point x="80" y="162" type="line"/>
      <point x="160" y="162" type="line"/>
      <point x="160" y="82" type="line"/>
      <point x="80" y="82" type="line"/>
      <point x="80" y="162" type="line"/>
      <point x="0" y="162" type="line"/>
    </contour>
    <contour>
      <point x="480" y="642" type="line"/>
      <point x="320" y="642" type="line"/>
      <point x="320" y="802" type="line"/>
      <point x="480" y="802" type="line"/>
    </contour>
    <contour>
      <point x="160" y="642" type="line"/>
      <point x="0" y="642" type="line"/>
      <point x="0" y="802" type="line"/>
      <point x="160" y="802" type="line"/>
    </contour>
  </outline>
</glyph>
<glyph name="Aogonek" format="2">
  <advance width="880"/>
  <unicode hex="0104"/>
  <outline>
    <contour>
      <point x="320" y="882" type="line"/>
      <point x="400" y="882" type="line"/>
      <point x="400" y="722" type="line"/>
      <point x="480" y="722" type="line"/>
      <point x="480" y="562" type="line"/>
      <point x="560" y="562" type="line"/>
      <point x="560" y="322" type="line"/>
      <point x="640" y="322" type="line"/>
      <point x="640" y="162" type="line"/>
      <point x="720" y="162" type="line"/>
      <point x="720" y="82" type="line"/>
      <point x="640" y="82" type="line"/>
      <point x="640" y="-78" type="line"/>
      <point x="800" y="-78" type="line"/>
      <point x="800" y="-158" type="line"/>
      <point x="640" y="-158" type="line"/>
      <point x="640" y="-78" type="line"/>
      <point x="560" y="-78" type="line"/>
      <point x="560" y="82" type="line"/>
      <point x="640" y="82" type="line"/>
      <point x="640" y="162" type="line"/>
      <point x="560" y="162" type="line"/>
      <point x="560" y="322" type="line"/>
      <point x="160" y="322" type="line"/>
      <point x="160" y="162" type="line"/>
      <point x="80" y="162" type="line"/>
      <point x="80" y="2" type="line"/>
      <point x="0" y="2" type="line"/>
      <point x="0" y="162" type="line"/>
      <point x="80" y="162" type="line"/>
      <point x="80" y="322" type="line"/>
      <point x="160" y="322" type="line"/>
      <point x="160" y="562" type="line"/>
      <point x="240" y="562" type="line"/>
      <point x="240" y="402" type="line"/>
      <point x="480" y="402" type="line"/>
      <point x="480" y="562" type="line"/>
      <point x="400" y="562" type="line"/>
      <point x="400" y="722" type="line"/>
      <point x="320" y="722" type="line"/>
      <point x="320" y="562" type="line"/>
      <point x="240" y="562" type="line"/>
      <point x="240" y="722" type="line"/>
      <point x="320" y="722" type="line"/>
    </contour>
  </outline>
</glyph>
<glyph name="aogonek" format="2">
  <advance width="640"/>
  <unicode hex="0105"/>
  <outline>
    <contour>
      <point x="560" y="-158" type="line"/>
      <point x="400" y="-158" type="line"/>
      <point x="400" y="-78" type="line"/>
      <point x="560" y="-78" type="line"/>
    </contour>
    <contour>
      <point x="320" y="82" type="line"/>
      <point x="320" y="2" type="line"/>
      <point x="400" y="2" type="line"/>
      <point x="400" y="-78" type="line"/>
      <point x="320" y="-78" type="line"/>
      <point x="320" y="2" type="line"/>
      <point x="80" y="2" type="line"/>
      <point x="80" y="82" type="line"/>
    </contour>
    <contour>
      <point x="320" y="82" type="line"/>
      <point x="320" y="162" type="line"/>
      <point x="400" y="162" type="line"/>
      <point x="400" y="322" type="line"/>
      <point x="320" y="322" type="line"/>
      <point x="320" y="242" type="line"/>
      <point x="80" y="242" type="line"/>
      <point x="80" y="82" type="line"/>
      <point x="0" y="82" type="line"/>
      <point x="0" y="242" type="line"/>
      <point x="80" y="242" type="line"/>
      <point x="80" y="322" type="line"/>
      <point x="320" y="322" type="line"/>
      <point x="320" y="402" type="line"/>
      <point x="400" y="402" type="line"/>
      <point x="400" y="482" type="line"/>
      <point x="480" y="482" type="line"/>
      <point x="480" y="82" type="line"/>
      <point x="560" y="82" type="line"/>
      <point x="560" y="2" type="line"/>
      <point x="400" y="2" type="line"/>
      <point x="400" y="82" type="line"/>
    </contour>
    <contour>
      <point x="80" y="482" type="line"/>
      <point x="80" y="402" type="line"/>
      <point x="0" y="402" type="line"/>
      <point x="0" y="482" type="line"/>
    </contour>
    <contour>
      <point x="80" y="482" type="line"/>
      <point x="80" y="562" type="line"/>
      <point x="400" y="562" type="line"/>
      <point x="400" y="482" type="line"/>
    </contour>
  </outline>
</glyph>
<glyph name="Ccaron" format="2">
  <advance width="880"/>
  <unicode hex="010C"/>
  <outline>
    <contour>
      <point x="640" y="322" type="line"/>
      <point x="720" y="322" type="line"/>
      <point x="720" y="162" type="line"/>
      <point x="640" y="162" type="line"/>
      <point x="640" y="82" type="line"/>
      <point x="480" y="82" type="line"/>
      <point x="480" y="2" type="line"/>
      <point x="240" y="2" type="line"/>
      <point x="240" y="82" type="line"/>
      <point x="480" y="82" type="line"/>
      <point x="480" y="162" type="line"/>
      <point x="640" y="162" type="line"/>
    </contour>
    <contour>
      <point x="480" y="1122" type="line"/>
      <point x="560" y="1122" type="line"/>
      <point x="560" y="1042" type="line"/>
      <point x="480" y="1042" type="line"/>
      <point x="480" y="962" type="line"/>
      <point x="400" y="962" type="line"/>
      <point x="400" y="882" type="line"/>
      <point x="480" y="882" type="line"/>
      <point x="480" y="802" type="line"/>
      <point x="640" y="802" type="line"/>
      <point x="640" y="722" type="line"/>
      <point x="720" y="722" type="line"/>
      <point x="720" y="562" type="line"/>
      <point x="640" y="562" type="line"/>
      <point x="640" y="722" type="line"/>
      <point x="480" y="722" type="line"/>
      <point x="480" y="802" type="line"/>
      <point x="240" y="802" type="line"/>
      <point x="240" y="722" type="line"/>
      <point x="160" y="722" type="line"/>
      <point x="160" y="642" type="line"/>
      <point x="80" y="642" type="line"/>
      <point x="80" y="242" type="line"/>
      <point x="160" y="242" type="line"/>
      <point x="160" y="162" type="line"/>
      <point x="240" y="162" type="line"/>
      <point x="240" y="82" type="line"/>
      <point x="80" y="82" type="line"/>
      <point x="80" y="242" type="line"/>
      <point x="0" y="242" type="line"/>
      <point x="0" y="642" type="line"/>
      <point x="80" y="642" type="line"/>
      <point x="80" y="802" type="line"/>
      <point x="240" y="802" type="line"/>
      <point x="240" y="882" type="line"/>
      <point x="320" y="882" type="line"/>
      <point x="320" y="962" type="line"/>
      <point x="400" y="962" type="line"/>
      <point x="400" y="1042" type="line"/>
      <point x="480" y="1042" type="line"/>
    </contour>
    <contour>
      <point x="160" y="1122" type="line"/>
      <point x="240" y="1122" type="line"/>
      <point x="240" y="1042" type="line"/>
      <point x="320" y="1042" type="line"/>
      <point x="320" y="962" type="line"/>
      <point x="240" y="962" type="line"/>
      <point x="240" y="1042" type="line"/>
      <point x="160" y="1042" type="line"/>
    </contour>
  </outline>
</glyph>
<glyph name="dcroat" format="2">
  <advance width="720"/>
  <unicode hex="0111"/>
  <outline>
    <contour>
      <point x="480" y="882" type="line"/>
      <point x="560" y="882" type="line"/>
      <point x="560" y="722" type="line"/>
      <point x="640" y="722" type="line"/>
      <point x="640" y="642" type="line"/>
      <point x="560" y="642" type="line"/>
      <point x="560" y="2" type="line"/>
      <point x="480" y="2" type="line"/>
      <point x="480" y="82" type="line"/>
      <point x="400" y="82" type="line"/>
      <point x="400" y="2" type="line"/>
      <point x="160" y="2" type="line"/>
      <point x="160" y="82" type="line"/>
      <point x="400" y="82" type="line"/>
      <point x="400" y="162" type="line"/>
      <point x="480" y="162" type="line"/>
      <point x="480" y="402" type="line"/>
      <point x="400" y="402" type="line"/>
      <point x="400" y="482" type="line"/>
      <point x="480" y="482" type="line"/>
      <point x="480" y="642" type="line"/>
      <point x="320" y="642" type="line"/>
      <point x="320" y="722" type="line"/>
      <point x="480" y="722" type="line"/>
    </contour>
    <contour>
      <point x="160" y="82" type="line"/>
      <point x="80" y="82" type="line"/>
      <point x="80" y="162" type="line"/>
      <point x="160" y="162" type="line"/>
    </contour>
    <contour>
      <point x="80" y="162" type="line"/>
      <point x="0" y="162" type="line"/>
      <point x="0" y="402" type="line"/>
      <point x="80" y="402" type="line"/>
    </contour>
    <contour>
      <point x="80" y="402" type="line"/>
      <point x="80" y="482" type="line"/>
      <point x="160" y="482" type="line"/>
      <point x="160" y="402" type="line"/>
    </contour>
    <contour>
      <point x="160" y="482" type="line"/>
      <point x="160" y="562" type="line"/>
      <point x="400" y="562" type="line"/>
      <point x="400" y="482" type="line"/>
    </contour>
  </outline>
</glyph>
<glyph name="emacron" format="2">
  <advance width="640"/>
  <unicode hex="0113"/>
  <outline>
    <contour>
      <point x="480" y="162" type="line"/>
      <point x="560" y="162" type="line"/>
      <point x="560" y="82" type="line"/>
      <point x="480" y="82" type="line"/>
      <point x="480" y="2" type="line"/>
      <point x="160" y="2" type="line"/>
      <point x="160" y="82" type="line"/>
      <point x="480" y="82" type="line"/>
    </contour>
    <contour>
      <point x="480" y="642" type="line"/>
      <point x="80" y="642" type="line"/>
      <point x="80" y="722" type="line"/>
      <point x="480" y="722" type="line"/>
    </contour>
    <contour>
      <point x="160" y="82" type="line"/>
      <point x="80" y="82" type="line"/>
      <point x="80" y="162" type="line"/>
      <point x="160" y="162" type="line"/>
    </contour>
    <contour>
      <point x="80" y="162" type="line"/>
      <point x="0" y="162" type="line"/>
      <point x="0" y="402" type="line"/>
      <point x="80" y="402" type="line"/>
      <point x="80" y="322" type="line"/>
      <point x="480" y="322" type="line"/>
      <point x="480" y="402" type="line"/>
      <point x="560" y="402" type="line"/>
      <point x="560" y="242" type="line"/>
      <point x="80" y="242" type="line"/>
    </contour>
    <contour>
      <point x="480" y="402" type="line"/>
      <point x="400" y="402" type="line"/>
      <point x="400" y="482" type="line"/>
      <point x="480" y="482" type="line"/>
    </contour>
    <contour>
      <point x="80" y="402" type="line"/>
      <point x="80" y="482" type="line"/>
      <point x="160" y="482" type="line"/>
      <point x="160" y="402" type="line"/>
    </contour>
    <contour>
      <point x="400" y="482" type="line"/>
      <point x="160" y="482" type="line"/>
      <point x="160" y="562" type="line"/>
      <point x="400" y="562" type="line"/>
    </contour>
  </outline>
</glyph>
<glyph name="Eogonek" format="2">
  <advance width="720"/>
  <unicode hex="0118"/>
  <outline>
    <contour>
      <point x="640" y="-158" type="line"/>
      <point x="480" y="-158" type="line"/>
      <point x="480" y="-78" type="line"/>
      <point x="640" y="-78" type="line"/>
    </contour>
    <contour>
      <point x="480" y="-78" type="line"/>
      <point x="400" y="-78" type="line"/>
      <point x="400" y="2" type="line"/>
      <point x="0" y="2" type="line"/>
      <point x="0" y="882" type="line"/>
      <point x="640" y="882" type="line"/>
      <point x="640" y="802" type="line"/>
      <point x="80" y="802" type="line"/>
      <point x="80" y="482" type="line"/>
      <point x="560" y="482" type="line"/>
      <point x="560" y="402" type="line"/>
      <point x="80" y="402" type="line"/>
      <point x="80" y="82" type="line"/>
      <point x="640" y="82" type="line"/>
      <point x="640" y="2" type="line"/>
      <point x="480" y="2" type="line"/>
    </contour>
  </outline>
</glyph>
<glyph name="gbreve" format="2">
  <advance width="560"/>
  <unicode hex="011F"/>
  <outline>
    <contour>
      <point x="400" y="562" type="line"/>
      <point x="480" y="562" type="line"/>
      <point x="480" y="482" type="line"/>
      <point x="400" y="482" type="line"/>
      <point x="400" y="322" type="line"/>
      <point x="320" y="322" type="line"/>
      <point x="320" y="242" type="line"/>
      <point x="160" y="242" type="line"/>
      <point x="160" y="162" type="line"/>
      <point x="400" y="162" type="line"/>
      <point x="400" y="82" type="line"/>
      <point x="480" y="82" type="line"/>
      <point x="480" y="-78" type="line"/>
      <point x="400" y="-78" type="line"/>
      <point x="400" y="-158" type="line"/>
      <point x="80" y="-158" type="line"/>
      <point x="80" y="-78" type="line"/>
      <point x="400" y="-78" type="line"/>
      <point x="400" y="82" type="line"/>
      <point x="80" y="82" type="line"/>
      <point x="80" y="-78" type="line"/>
      <point x="0" y="-78" type="line"/>
      <point x="0" y="82" type="line"/>
      <point x="80" y="82" type="line"/>
      <point x="80" y="242" type="line"/>
      <point x="160" y="242" type="line"/>
      <point x="160" y="322" type="line"/>
      <point x="320" y="322" type="line"/>
      <point x="320" y="482" type="line"/>
      <point x="400" y="482" type="line"/>
    </contour>
    <contour>
      <point x="400" y="802" type="line"/>
      <point x="480" y="802" type="line"/>
      <point x="480" y="722" type="line"/>
      <point x="400" y="722" type="line"/>
      <point x="400" y="642" type="line"/>
      <point x="160" y="642" type="line"/>
      <point x="160" y="722" type="line"/>
      <point x="400" y="722" type="line"/>
    </contour>
    <contour>
      <point x="80" y="802" type="line"/>
      <point x="160" y="802" type="line"/>
      <point x="160" y="722" type="line"/>
      <point x="80" y="722" type="line"/>
    </contour>
    <contour>
      <point x="160" y="322" type="line"/>
      <point x="80" y="322" type="line"/>
      <point x="80" y="482" type="line"/>
      <point x="160" y="482" type="line"/>
    </contour>
    <contour>
      <point x="320" y="482" type="line"/>
      <point x="160" y="482" type="line"/>
      <point x="160" y="562" type="line"/>
      <point x="320" y="562" type="line"/>
    </contour>
  </outline>
</glyph>
<glyph name="Gdotaccent" format="2">
  <advance width="880"/>
  <unicode hex="0120"/>
  <outline>
    <contour>
      <point x="560" y="2" type="line"/>
      <point x="240" y="2" type="line"/>
      <point x="240" y="82" type="line"/>
      <point x="560" y="82" type="line"/>
    </contour>
    <contour>
      <point x="720" y="402" type="line"/>
      <point x="720" y="2" type="line"/>
      <point x="640" y="2" type="line"/>
      <point x="640" y="82" type="line"/>
      <point x="560" y="82" type="line"/>
      <point x="560" y="162" type="line"/>
      <point x="640" y="162" type="line"/>
      <point x="640" y="322" type="line"/>
      <point x="400" y="322" type="line"/>
      <point x="400" y="402" type="line"/>
    </contour>
    <contour>
      <point x="480" y="962" type="line"/>
      <point x="320" y="962" type="line"/>
      <point x="320" y="1122" type="line"/>
      <point x="480" y="1122" type="line"/>
    </contour>
    <contour>
      <point x="640" y="722" type="line"/>
      <point x="720" y="722" type="line"/>
      <point x="720" y="562" type="line"/>
      <point x="640" y="562" type="line"/>
    </contour>
    <contour>
      <point x="640" y="722" type="line"/>
      <point x="480" y="722" type="line"/>
      <point x="480" y="802" type="line"/>
      <point x="640" y="802" type="line"/>
    </contour>
    <contour>
      <point x="480" y="802" type="line"/>
      <point x="240" y="802" type="line"/>
      <point x="240" y="722" type="line"/>
      <point x="160" y="722" type="line"/>
      <point x="160" y="642" type="line"/>
      <point x="80" y="642" type="line"/>
      <point x="80" y="242" type="line"/>
      <point x="160" y="242" type="line"/>
      <point x="160" y="162" type="line"/>
      <point x="240" y="162" type="line"/>
      <point x="240" y="82" type="line"/>
      <point x="80" y="82" type="line"/>
      <point x="80" y="242" type="line"/>
      <point x="0" y="242" type="line"/>
      <point x="0" y="642" type="line"/>
      <point x="80" y="642" type="line"/>
      <point x="80" y="802" type="line"/>
      <point x="240" y="802" type="line"/>
      <point x="240" y="882" type="line"/>
      <point x="480" y="882" type="line"/>
    </contour>
  </outline>
</glyph>
<glyph name="hcircumflex" format="2">
  <advance width="640"/>
  <unicode hex="0125"/>
  <outline>
    <contour>
      <point x="240" y="1122" type="line"/>
      <point x="320" y="1122" type="line"/>
      <point x="320" y="1042" type="line"/>
      <point x="400" y="1042" type="line"/>
      <point x="400" y="962" type="line"/>
      <point x="480" y="962" type="line"/>
      <point x="480" y="882" type="line"/>
      <point x="400" y="882" type="line"/>
      <point x="400" y="962" type="line"/>
      <point x="320" y="962" type="line"/>
      <point x="320" y="1042" type="line"/>
      <point x="240" y="1042" type="line"/>
      <point x="240" y="962" type="line"/>
      <point x="160" y="962" type="line"/>
      <point x="160" y="882" type="line"/>
      <point x="80" y="882" type="line"/>
      <point x="80" y="482" type="line"/>
      <point x="160" y="482" type="line"/>
      <point x="160" y="402" type="line"/>
      <point x="80" y="402" type="line"/>
      <point x="80" y="2" type="line"/>
      <point x="0" y="2" type="line"/>
      <point x="0" y="882" type="line"/>
      <point x="80" y="882" type="line"/>
      <point x="80" y="962" type="line"/>
      <point x="160" y="962" type="line"/>
      <point x="160" y="1042" type="line"/>
      <point x="240" y="1042" type="line"/>
    </contour>
    <contour>
      <point x="400" y="402" type="line"/>
      <point x="480" y="402" type="line"/>
      <point x="480" y="2" type="line"/>
      <point x="400" y="2" type="line"/>
    </contour>
    <contour>
      <point x="400" y="402" type="line"/>
      <point x="320" y="402" type="line"/>
      <point x="320" y="482" type="line"/>
      <point x="400" y="482" type="line"/>
    </contour>
    <contour>
      <point x="320" y="482" type="line"/>
      <point x="160" y="482" type="line"/>
      <point x="160" y="562" type="line"/>
      <point x="320" y="562" type="line"/>
    </contour>
  </outline>
</glyph>
<glyph name="Hbar" format="2">
  <advance width="800"/>
  <unicode hex="0126"/>
  <outline>
    <contour>
      <point x="560" y="882" type="line"/>
      <point x="640" y="882" type="line"/>
      <point x="640" y="722" type="line"/>
      <point x="720" y="722" type="line"/>
      <point x="720" y="642" type="line"/>
      <point x="640" y="642" type="line"/>
      <point x="640" y="2" type="line"/>
      <point x="560" y="2" type="line"/>
      <point x="560" y="402" type="line"/>
      <point x="160" y="402" type="line"/>
      <point x="160" y="2" type="line"/>
      <point x="80" y="2" type="line"/>
      <point x="80" y="642" type="line"/>
      <point x="0" y="642" type="line"/>
      <point x="0" y="722" type="line"/>
      <point x="80" y="722" type="line"/>
      <point x="80" y="882" type="line"/>
      <point x="160" y="882" type="line"/>
      <point x="160" y="722" type="line"/>
      <point x="560" y="722" type="line"/>
    </contour>
    <contour>
      <point x="160" y="482" type="line"/>
      <point x="560" y="482" type="line"/>
      <point x="560" y="642" type="line"/>
      <point x="160" y="642" type="line"/>
    </contour>
  </outline>
</glyph>
<glyph name="Itilde" format="2">
  <advance width="560"/>
  <unicode hex="0128"/>
  <outline>
    <contour>
      <point x="400" y="1122" type="line"/>
      <point x="480" y="1122" type="line"/>
      <point x="480" y="1042" type="line"/>
      <point x="400" y="1042" type="line"/>
      <point x="400" y="962" type="line"/>
      <point x="240" y="962" type="line"/>
      <point x="240" y="1042" type="line"/>
      <point x="400" y="1042" type="line"/>
    </contour>
    <contour>
      <point x="320" y="2" type="line"/>
      <point x="80" y="2" type="line"/>
      <point x="80" y="82" type="line"/>
      <point x="160" y="82" type="line"/>
      <point x="160" y="802" type="line"/>
      <point x="80" y="802" type="line"/>
      <point x="80" y="882" type="line"/>
      <point x="320" y="882" type="line"/>
      <point x="320" y="802" type="line"/>
      <point x="240" y="802" type="line"/>
      <point x="240" y="82" type="line"/>
      <point x="320" y="82" type="line"/>
    </contour>
    <contour>
      <point x="240" y="1042" type="line"/>
      <point x="80" y="1042" type="line"/>
      <point x="80" y="962" type="line"/>
      <point x="0" y="962" type="line"/>
      <point x="0" y="1042" type="line"/>
      <point x="80" y="1042" type="line"/>
      <point x="80" y="1122" type="line"/>
      <point x="240" y="1122" type="line"/>
    </contour>
  </outline>
</glyph>
<glyph name="imacron" format="2">
  <advance width="480"/>
  <unicode hex="012B"/>
  <outline>
    <contour>
      <point x="160" y="562" type="line"/>
      <point x="240" y="562" type="line"/>
      <point x="240" y="2" type="line"/>
      <point x="160" y="2" type="line"/>
    </contour>
    <contour>
      <point x="400" y="722" type="line"/>
      <point x="0" y="722" type="line"/>
      <point x="0" y="802" type="line"/>
      <point x="400" y="802" type="line"/>
    </contour>
  </outline>
</glyph>
<glyph name="Ibreve" format="2">
  <advance width="560"/>
  <unicode hex="012C"/>
  <outline>
    <contour>
      <point x="320" y="1122" type="line"/>
      <point x="400" y="1122" type="line"/>
      <point x="400" y="1042" type="line"/>
      <point x="320" y="1042" type="line"/>
      <point x="320" y="962" type="line"/>
      <point x="80" y="962" type="line"/>
      <point x="80" y="1042" type="line"/>
      <point x="320" y="1042" type="line"/>
    </contour>
    <contour>
      <point x="0" y="1122" type="line"/>
      <point x="80" y="1122" type="line"/>
      <point x="80" y="1042" type="line"/>
      <point x="0" y="1042" type="line"/>
    </contour>
    <contour>
      <point x="320" y="2" type="line"/>
      <point x="80" y="2" type="line"/>
      <point x="80" y="82" type="line"/>
      <point x="160" y="82" type="line"/>
      <point x="160" y="802" type="line"/>
      <point x="80" y="802" type="line"/>
      <point x="80" y="882" type="line"/>
      <point x="320" y="882" type="line"/>
      <point x="320" y="802" type="line"/>
      <point x="240" y="802" type="line"/>
      <point x="240" y="82" type="line"/>
      <point x="320" y="82" type="line"/>
    </contour>
  </outline>
</glyph>
<glyph name="iogonek" format="2">
  <advance width="320"/>
  <unicode hex="012F"/>
  <outline>
    <contour>
      <point x="160" y="562" type="line"/>
      <point x="240" y="562" type="line"/>
      <point x="240" y="-78" type="line"/>
      <point x="400" y="-78" type="line"/>
      <point x="400" y="-158" type="line"/>
      <point x="240" y="-158" type="line"/>
      <point x="240" y="-78" type="line"/>
      <point x="160" y="-78" type="line"/>
    </contour>
    <contour>
      <point x="160" y="882" type="line"/>
      <point x="240" y="882" type="line"/>
      <point x="240" y="722" type="line"/>
      <point x="160" y="722" type="line"/>
    </contour>
  </outline>
</glyph>
<glyph name="dotlessi" format="2">
  <advance width="240"/>
  <unicode hex="0131"/>
  <outline>
    <contour>
      <point x="0" y="562" type="line"/>
      <point x="80" y="562" type="line"/>
      <point x="80" y="2" type="line"/>
      <point x="0" y="2" type="line"/>
    </contour>
  </outline>
</glyph>
<glyph name="ij" format="2">
  <advance width="480"/>
  <unicode hex="0133"/>
  <outline>
    <contour>
      <point x="320" y="562" type="line"/>
      <point x="400" y="562" type="line"/>
      <point x="400" y="-78" type="line"/>
      <point x="320" y="-78" type="line"/>
      <point x="320" y="-158" type="line"/>
      <point x="160" y="-158" type="line"/>
      <point x="160" y="-78" type="line"/>
      <point x="320" y="-78" type="line"/>
    </contour>
    <contour>
      <point x="0" y="562" type="line"/>
      <point x="80" y="562" type="line"/>
      <point x="80" y="2" type="line"/>
      <point x="0" y="2" type="line"/>
    </contour>
    <contour>
      <point x="320" y="882" type="line"/>
      <point x="400" y="882" type="line"/>
      <point x="400" y="722" type="line"/>
      <point x="320" y="722" type="line"/>
    </contour>
    <contour>
      <point x="0" y="882" type="line"/>
      <point x="80" y="882" type="line"/>
      <point x="80" y="722" type="line"/>
      <point x="0" y="722" type="line"/>
    </contour>
  </outline>
</glyph>
<glyph name="uni0137" format="2">
  <advance width="560"/>
  <unicode hex="0137"/>
  <outline>
    <contour>
      <point x="320" y="562" type="line"/>
      <point x="400" y="562" type="line"/>
      <point x="400" y="482" type="line"/>
      <point x="320" y="482" type="line"/>
      <point x="320" y="402" type="line"/>
      <point x="240" y="402" type="line"/>
      <point x="240" y="242" type="line"/>
      <point x="320" y="242" type="line"/>
      <point x="320" y="162" type="line"/>
      <point x="400" y="162" type="line"/>
      <point x="400" y="82" type="line"/>
      <point x="480" y="82" type="line"/>
      <point x="480" y="2" type="line"/>
      <point x="400" y="2" type="line"/>
      <point x="400" y="82" type="line"/>
      <point x="320" y="82" type="line"/>
      <point x="320" y="-78" type="line"/>
      <point x="240" y="-78" type="line"/>
      <point x="240" y="-158" type="line"/>
      <point x="160" y="-158" type="line"/>
      <point x="160" y="-78" type="line"/>
      <point x="240" y="-78" type="line"/>
      <point x="240" y="2" type="line"/>
      <point x="160" y="2" type="line"/>
      <point x="160" y="82" type="line"/>
      <point x="320" y="82" type="line"/>
      <point x="320" y="162" type="line"/>
      <point x="240" y="162" type="line"/>
      <point x="240" y="242" type="line"/>
      <point x="80" y="242" type="line"/>
      <point x="80" y="2" type="line"/>
      <point x="0" y="2" type="line"/>
      <point x="0" y="882" type="line"/>
      <point x="80" y="882" type="line"/>
      <point x="80" y="322" type="line"/>
      <point x="160" y="322" type="line"/>
      <point x="160" y="402" type="line"/>
      <point x="240" y="402" type="line"/>
      <point x="240" y="482" type="line"/>
      <point x="320" y="482" type="line"/>
    </contour>
  </outline>
</glyph>
<glyph name="lacute" format="2">
  <advance width="320"/>
  <unicode hex="013A"/>
  <outline>
    <contour>
      <point x="160" y="1122" type="line"/>
      <point x="240" y="1122" type="line"/>
      <point x="240" y="1042" type="line"/>
      <point x="160" y="1042" type="line"/>
      <point x="160" y="962" type="line"/>
      <point x="80" y="962" type="line"/>
      <point x="80" y="2" type="line"/>
      <point x="0" y="2" type="line"/>
      <point x="0" y="962" type="line"/>
      <point x="80" y="962" type="line"/>
      <point x="80" y="1042" type="line"/>
      <point x="160" y="1042" type="line"/>
    </contour>
  </outline>
</glyph>
<glyph name="uni013C" format="2">
  <advance width="320"/>
  <unicode hex="013C"/>
  <outline>
    <contour>
      <point x="80" y="882" type="line"/>
      <point x="160" y="882" type="line"/>
      <point x="160" y="-78" type="line"/>
      <point x="80" y="-78" type="line"/>
      <point x="80" y="-158" type="line"/>
      <point x="0" y="-158" type="line"/>
      <point x="0" y="-78" type="line"/>
      <point x="80" y="-78" type="line"/>
    </contour>
  </outline>
</glyph>
<glyph name="Lcaron" format="2">
  <advance width="720"/>
  <unicode hex="013D"/>
  <outline>
    <contour>
      <point x="0" y="882" type="line"/>
      <point x="80" y="882" type="line"/>
      <point x="80" y="82" type="line"/>
      <point x="560" y="82" type="line"/>
      <point x="560" y="2" type="line"/>
      <point x="0" y="2" type="line"/>
    </contour>
    <contour>
      <point x="400" y="722" type="line"/>
      <point x="400" y="642" type="line"/>
      <point x="320" y="642" type="line"/>
      <point x="320" y="722" type="line"/>
    </contour>
    <contour>
      <point x="400" y="722" type="line"/>
      <point x="400" y="802" type="line"/>
      <point x="320" y="802" type="line"/>
      <point x="320" y="882" type="line"/>
      <point x="480" y="882" type="line"/>
      <point x="480" y="722" type="line"/>
    </contour>
  </outline>
</glyph>
<glyph name="Ldot" format="2">
  <advance width="720"/>
  <unicode hex="013F"/>
  <outline>
    <contour>
      <point x="0" y="882" type="line"/>
      <point x="80" y="882" type="line"/>
      <point x="80" y="82" type="line"/>
      <point x="560" y="82" type="line"/>
      <point x="560" y="2" type="line"/>
      <point x="0" y="2" type="line"/>
    </contour>
    <contour>
      <point x="400" y="562" type="line"/>
      <point x="240" y="562" type="line"/>
      <point x="240" y="722" type="line"/>
      <point x="400" y="722" type="line"/>
    </contour>
  </outline>
</glyph>
<glyph name="ldot" format="2">
  <advance width="400"/>
  <unicode hex="0140"/>
  <outline>
    <contour>
      <point x="0" y="882" type="line"/>
      <point x="80" y="882" type="line"/>
      <point x="80" y="2" type="line"/>
      <point x="0" y="2" type="line"/>
    </contour>
    <contour>
      <point x="320" y="562" type="line"/>
      <point x="160" y="562" type="line"/>
      <point x="160" y="722" type="line"/>
      <point x="320" y="722" type="line"/>
    </contour>
  </outline>
</glyph>
<glyph name="lslash" format="2">
  <advance width="400"/>
  <unicode hex="0142"/>
  <outline>
    <contour>
      <point x="240" y="642" type="line"/>
      <point x="320" y="642" type="line"/>
      <point x="320" y="562" type="line"/>
      <point x="240" y="562" type="line"/>
      <point x="240" y="482" type="line"/>
      <point x="160" y="482" type="line"/>
      <point x="160" y="2" type="line"/>
      <point x="80" y="2" type="line"/>
      <point x="80" y="402" type="line"/>
      <point x="0" y="402" type="line"/>
      <point x="0" y="482" type="line"/>
      <point x="80" y="482" type="line"/>
      <point x="80" y="882" type="line"/>
      <point x="160" y="882" type="line"/>
      <point x="160" y="562" type="line"/>
      <point x="240" y="562" type="line"/>
    </contour>
  </outline>
</glyph>
<glyph name="uni0145" format="2">
  <advance width="800"/>
  <unicode hex="0145"/>
  <outline>
    <contour>
      <point x="560" y="882" type="line"/>
      <point x="640" y="882" type="line"/>
      <point x="640" y="2" type="line"/>
      <point x="560" y="2" type="line"/>
      <point x="560" y="82" type="line"/>
      <point x="480" y="82" type="line"/>
      <point x="480" y="242" type="line"/>
      <point x="560" y="242" type="line"/>
    </contour>
    <contour>
      <point x="0" y="882" type="line"/>
      <point x="80" y="882" type="line"/>
      <point x="80" y="802" type="line"/>
      <point x="160" y="802" type="line"/>
      <point x="160" y="642" type="line"/>
      <point x="240" y="642" type="line"/>
      <point x="240" y="562" type="line"/>
      <point x="320" y="562" type="line"/>
      <point x="320" y="402" type="line"/>
      <point x="400" y="402" type="line"/>
      <point x="400" y="322" type="line"/>
      <point x="480" y="322" type="line"/>
      <point x="480" y="242" type="line"/>
      <point x="400" y="242" type="line"/>
      <point x="400" y="322" type="line"/>
      <point x="320" y="322" type="line"/>
      <point x="320" y="402" type="line"/>
      <point x="240" y="402" type="line"/>
      <point x="240" y="562" type="line"/>
      <point x="160" y="562" type="line"/>
      <point x="160" y="642" type="line"/>
      <point x="80" y="642" type="line"/>
      <point x="80" y="2" type="line"/>
      <point x="0" y="2" type="line"/>
    </contour>
    <contour>
      <point x="320" y="-78" type="line"/>
      <point x="320" y="-158" type="line"/>
      <point x="240" y="-158" type="line"/>
      <point x="240" y="-78" type="line"/>
    </contour>
    <contour>
      <point x="320" y="-78" type="line"/>
      <point x="320" y="2" type="line"/>
      <point x="240" y="2" type="line"/>
      <point x="240" y="82" type="line"/>
      <point x="400" y="82" type="line"/>
      <point x="400" y="-78" type="line"/>
    </contour>
  </outline>
</glyph>
<glyph name="napostrophe" format="2">
  <advance width="640"/>
  <unicode hex="0149"/>
  <outline>
    <contour>
      <point x="0" y="562" type="line"/>
      <point x="80" y="562" type="line"/>
      <point x="80" y="482" type="line"/>
      <point x="160" y="482" type="line"/>
      <point x="160" y="402" type="line"/>
      <point x="80" y="402" type="line"/>
      <point x="80" y="2" type="line"/>
      <point x="0" y="2" type="line"/>
    </contour>
    <contour>
      <point x="400" y="402" type="line"/>
      <point x="480" y="402" type="line"/>
      <point x="480" y="2" type="line"/>
      <point x="400" y="2" type="line"/>
    </contour>
    <contour>
      <point x="400" y="402" type="line"/>
      <point x="320" y="402" type="line"/>
      <point x="320" y="482" type="line"/>
      <point x="400" y="482" type="line"/>
    </contour>
    <contour>
      <point x="80" y="722" type="line"/>
      <point x="80" y="642" type="line"/>
      <point x="0" y="642" type="line"/>
      <point x="0" y="722" type="line"/>
    </contour>
    <contour>
      <point x="80" y="722" type="line"/>
      <point x="80" y="802" type="line"/>
      <point x="0" y="802" type="line"/>
      <point x="0" y="882" type="line"/>
      <point x="160" y="882" type="line"/>
      <point x="160" y="722" type="line"/>
    </contour>
    <contour>
      <point x="320" y="482" type="line"/>
      <point x="160" y="482" type="line"/>
      <point x="160" y="562" type="line"/>
      <point x="320" y="562" type="line"/>
    </contour>
  </outline>
</glyph>
<glyph name="Ohungarumlaut" format="2">
  <advance width="880"/>
  <unicode hex="0150"/>
  <outline>
    <contour>
      <point x="560" y="1122" type="line"/>
      <point x="640" y="1122" type="line"/>
      <point x="640" y="1042" type="line"/>
      <point x="560" y="1042" type="line"/>
      <point x="560" y="962" type="line"/>
      <point x="480" y="962" type="line"/>
      <point x="480" y="802" type="line"/>
      <point x="640" y="802" type="line"/>
      <point x="640" y="642" type="line"/>
      <point x="720" y="642" type="line"/>
      <point x="720" y="242" type="line"/>
      <point x="640" y="242" type="line"/>
      <point x="640" y="82" type="line"/>
      <point x="480" y="82" type="line"/>
      <point x="480" y="2" type="line"/>
      <point x="240" y="2" type="line"/>
      <point x="240" y="82" type="line"/>
      <point x="480" y="82" type="line"/>
      <point x="480" y="162" type="line"/>
      <point x="560" y="162" type="line"/>
      <point x="560" y="242" type="line"/>
      <point x="640" y="242" type="line"/>
      <point x="640" y="642" type="line"/>
      <point x="560" y="642" type="line"/>
      <point x="560" y="722" type="line"/>
      <point x="480" y="722" type="line"/>
      <point x="480" y="802" type="line"/>
      <point x="240" y="802" type="line"/>
      <point x="240" y="722" type="line"/>
      <point x="160" y="722" type="line"/>
      <point x="160" y="642" type="line"/>
      <point x="80" y="642" type="line"/>
      <point x="80" y="242" type="line"/>
      <point x="160" y="242" type="line"/>
      <point x="160" y="162" type="line"/>
      <point x="240" y="162" type="line"/>
      <point x="240" y="82" type="line"/>
      <point x="80" y="82" type="line"/>
      <point x="80" y="242" type="line"/>
      <point x="0" y="242" type="line"/>
      <point x="0" y="642" type="line"/>
      <point x="80" y="642" type="line"/>
      <point x="80" y="802" type="line"/>
      <point x="240" y="802" type="line"/>
      <point x="240" y="882" type="line"/>
      <point x="400" y="882" type="line"/>
      <point x="400" y="962" type="line"/>
      <point x="480" y="962" type="line"/>
      <point x="480" y="1042" type="line"/>
      <point x="560" y="1042" type="line"/>
    </contour>
    <contour>
      <point x="320" y="1122" type="line"/>
      <point x="400" y="1122" type="line"/>
      <point x="400" y="1042" type="line"/>
      <point x="320" y="1042" type="line"/>
      <point x="320" y="962" type="line"/>
      <point x="240" y="962" type="line"/>
      <point x="240" y="882" type="line"/>
      <point x="160" y="882" type="line"/>
      <point x="160" y="962" type="line"/>
      <point x="240" y="962" type="line"/>
      <point x="240" y="1042" type="line"/>
      <point x="320" y="1042" type="line"/>
    </contour>
  </outline>
</glyph>
<glyph name="racute" format="2">
  <advance width="480"/>
  <unicode hex="0155"/>
  <outline>
    <contour>
      <point x="0" y="562" type="line"/>
      <point x="80" y="562" type="line"/>
      <point x="80" y="402" type="line"/>
      <point x="160" y="402" type="line"/>
      <point x="160" y="322" type="line"/>
      <point x="80" y="322" type="line"/>
      <point x="80" y="2" type="line"/>
      <point x="0" y="2" type="line"/>
    </contour>
    <contour>
      <point x="240" y="882" type="line"/>
      <point x="320" y="882" type="line"/>
      <point x="320" y="802" type="line"/>
      <point x="240" y="802" type="line"/>
      <point x="240" y="722" type="line"/>
      <point x="160" y="722" type="line"/>
      <point x="160" y="642" type="line"/>
      <point x="80" y="642" type="line"/>
      <point x="80" y="722" type="line"/>
      <point x="160" y="722" type="line"/>
      <point x="160" y="802" type="line"/>
      <point x="240" y="802" type="line"/>
    </contour>
    <contour>
      <point x="240" y="482" type="line"/>
      <point x="240" y="402" type="line"/>
      <point x="160" y="402" type="line"/>
      <point x="160" y="482" type="line"/>
    </contour>
    <contour>
      <point x="240" y="482" type="line"/>
      <point x="240" y="562" type="line"/>
      <point x="400" y="562" type="line"/>
      <point x="400" y="482" type="line"/>
    </contour>
  </outline>
</glyph>
<glyph name="Scedilla" format="2">
  <advance width="800"/>
  <unicode hex="015E"/>
  <outline>
    <contour>
      <point x="0" y="322" type="line"/>
      <point x="80" y="322" type="line"/>
      <point x="80" y="162" type="line"/>
      <point x="160" y="162" type="line"/>
      <point x="160" y="82" type="line"/>
      <point x="480" y="82" type="line"/>
      <point x="480" y="2" type="line"/>
      <point x="400" y="2" type="line"/>
      <point x="400" y="-78" type="line"/>
      <point x="320" y="-78" type="line"/>
      <point x="320" y="-158" type="line"/>
      <point x="240" y="-158" type="line"/>
      <point x="240" y="-78" type="line"/>
      <point x="320" y="-78" type="line"/>
      <point x="320" y="2" type="line"/>
      <point x="160" y="2" type="line"/>
      <point x="160" y="82" type="line"/>
      <point x="80" y="82" type="line"/>
      <point x="80" y="162" type="line"/>
      <point x="0" y="162" type="line"/>
    </contour>
    <contour>
      <point x="480" y="82" type="line"/>
      <point x="480" y="162" type="line"/>
      <point x="560" y="162" type="line"/>
      <point x="560" y="82" type="line"/>
    </contour>
    <contour>
      <point x="560" y="162" type="line"/>
      <point x="560" y="322" type="line"/>
      <point x="640" y="322" type="line"/>
      <point x="640" y="162" type="line"/>
    </contour>
    <contour>
      <point x="560" y="322" type="line"/>
      <point x="480" y="322" type="line"/>
      <point x="480" y="402" type="line"/>
      <point x="560" y="402" type="line"/>
    </contour>
    <contour>
      <point x="480" y="402" type="line"/>
      <point x="240" y="402" type="line"/>
      <point x="240" y="482" type="line"/>
      <point x="480" y="482" type="line"/>
    </contour>
    <contour>
      <point x="240" y="482" type="line"/>
      <point x="80" y="482" type="line"/>
      <point x="80" y="562" type="line"/>
      <point x="240" y="562" type="line"/>
    </contour>
    <contour>
      <point x="80" y="562" type="line"/>
      <point x="0" y="562" type="line"/>
      <point x="0" y="722" type="line"/>
      <point x="80" y="722" type="line"/>
    </contour>
    <contour>
      <point x="560" y="722" type="line"/>
      <point x="640" y="722" type="line"/>
      <point x="640" y="562" type="line"/>
      <point x="560" y="562" type="line"/>
    </contour>
    <contour>
      <point x="560" y="722" type="line"/>
      <point x="480" y="722" type="line"/>
      <point x="480" y="802" type="line"/>
      <point x="560" y="802" type="line"/>
    </contour>
    <contour>
      <point x="80" y="722" type="line"/>
      <point x="80" y="802" type="line"/>
      <point x="160" y="802" type="line"/>
      <point x="160" y="722" type="line"/>
    </contour>
    <contour>
      <point x="480" y="802" type="line"/>
      <point x="160" y="802" type="line"/>
      <point x="160" y="882" type="line"/>
      <point x="480" y="882" type="line"/>
    </contour>
  </outline>
</glyph>
<glyph name="Scaron" format="2">
  <advance width="800"/>
  <unicode hex="0160"/>
  <outline>
    <contour>
      <point x="0" y="322" type="line"/>
      <point x="80" y="322" type="line"/>
      <point x="80" y="162" type="line"/>
      <point x="160" y="162" type="line"/>
      <point x="160" y="82" type="line"/>
      <point x="480" y="82" type="line"/>
      <point x="480" y="2" type="line"/>
      <point x="160" y="2" type="line"/>
      <point x="160" y="82" type="line"/>
      <point x="80" y="82" type="line"/>
      <point x="80" y="162" type="line"/>
      <point x="0" y="162" type="line"/>
    </contour>
    <contour>
      <point x="400" y="1122" type="line"/>
      <point x="480" y="1122" type="line"/>
      <point x="480" y="1042" type="line"/>
      <point x="400" y="1042" type="line"/>
      <point x="400" y="962" type="line"/>
      <point x="320" y="962" type="line"/>
      <point x="320" y="882" type="line"/>
      <point x="480" y="882" type="line"/>
      <point x="480" y="802" type="line"/>
      <point x="560" y="802" type="line"/>
      <point x="560" y="722" type="line"/>
      <point x="640" y="722" type="line"/>
      <point x="640" y="562" type="line"/>
      <point x="560" y="562" type="line"/>
      <point x="560" y="722" type="line"/>
      <point x="480" y="722" type="line"/>
      <point x="480" y="802" type="line"/>
      <point x="160" y="802" type="line"/>
      <point x="160" y="722" type="line"/>
      <point x="80" y="722" type="line"/>
      <point x="80" y="562" type="line"/>
      <point x="240" y="562" type="line"/>
      <point x="240" y="482" type="line"/>
      <point x="480" y="482" type="line"/>
      <point x="480" y="402" type="line"/>
      <point x="560" y="402" type="line"/>
      <point x="560" y="322" type="line"/>
      <point x="640" y="322" type="line"/>
      <point x="640" y="162" type="line"/>
      <point x="560" y="162" type="line"/>
      <point x="560" y="82" type="line"/>
      <point x="480" y="82" type="line"/>
      <point x="480" y="162" type="line"/>
      <point x="560" y="162" type="line"/>
      <point x="560" y="322" type="line"/>
      <point x="480" y="322" type="line"/>
      <point x="480" y="402" type="line"/>
      <point x="240" y="402" type="line"/>
      <point x="240" y="482" type="line"/>
      <point x="80" y="482" type="line"/>
      <point x="80" y="562" type="line"/>
      <point x="0" y="562" type="line"/>
      <point x="0" y="722" type="line"/>
      <point x="80" y="722" type="line"/>
      <point x="80" y="802" type="line"/>
      <point x="160" y="802" type="line"/>
      <point x="160" y="882" type="line"/>
      <point x="240" y="882" type="line"/>
      <point x="240" y="962" type="line"/>
      <point x="320" y="962" type="line"/>
      <point x="320" y="1042" type="line"/>
      <point x="400" y="1042" type="line"/>
    </contour>
    <contour>
      <point x="80" y="1122" type="line"/>
      <point x="160" y="1122" type="line"/>
      <point x="160" y="1042" type="line"/>
      <point x="240" y="1042" type="line"/>
      <point x="240" y="962" type="line"/>
      <point x="160" y="962" type="line"/>
      <point x="160" y="1042" type="line"/>
      <point x="80" y="1042" type="line"/>
    </contour>
  </outline>
</glyph>
<glyph name="uni0162" format="2">
  <advance width="720"/>
  <unicode hex="0162"/>
  <outline>
    <contour>
      <point x="320" y="-158" type="line"/>
      <point x="160" y="-158" type="line"/>
      <point x="160" y="-78" type="line"/>
      <point x="320" y="-78" type="line"/>
    </contour>
    <contour>
      <point x="320" y="-78" type="line"/>
      <point x="320" y="802" type="line"/>
      <point x="0" y="802" type="line"/>
      <point x="0" y="882" type="line"/>
      <point x="720" y="882" type="line"/>
      <point x="720" y="802" type="line"/>
      <point x="400" y="802" type="line"/>
      <point x="400" y="-78" type="line"/>
    </contour>
  </outline>
</glyph>
<glyph name="Tbar" format="2">
  <advance width="720"/>
  <unicode hex="0166"/>
  <outline>
    <contour>
      <point x="240" y="2" type="line"/>
      <point x="240" y="402" type="line"/>
      <point x="0" y="402" type="line"/>
      <point x="0" y="482" type="line"/>
      <point x="240" y="482" type="line"/>
      <point x="240" y="802" type="line"/>
      <point x="0" y="802" type="line"/>
      <point x="0" y="882" type="line"/>
      <point x="640" y="882" type="line"/>
      <point x="640" y="802" type="line"/>
      <point x="320" y="802" type="line"/>
      <point x="320" y="482" type="line"/>
      <point x="560" y="482" type="line"/>
      <point x="560" y="402" type="line"/>
      <point x="320" y="402" type="line"/>
      <point x="320" y="2" type="line"/>
    </contour>
  </outline>
</glyph>
<glyph name="Umacron" format="2">
  <advance width="800"/>
  <unicode hex="016A"/>
  <outline>
    <contour>
      <point x="560" y="882" type="line"/>
      <point x="640" y="882" type="line"/>
      <point x="640" y="162" type="line"/>
      <point x="560" y="162" type="line"/>
      <point x="560" y="82" type="line"/>
      <point x="480" y="82" type="line"/>
      <point x="480" y="2" type="line"/>
      <point x="160" y="2" type="line"/>
      <point x="160" y="82" type="line"/>
      <point x="480" y="82" type="line"/>
      <point x="480" y="162" type="line"/>
      <point x="560" y="162" type="line"/>
    </contour>
    <contour>
      <point x="0" y="882" type="line"/>
      <point x="80" y="882" type="line"/>
      <point x="80" y="162" type="line"/>
      <point x="160" y="162" type="line"/>
      <point x="160" y="82" type="line"/>
      <point x="80" y="82" type="line"/>
      <point x="80" y="162" type="line"/>
      <point x="0" y="162" type="line"/>
    </contour>
    <contour>
      <point x="560" y="962" type="line"/>
      <point x="80" y="962" type="line"/>
      <point x="80" y="1042" type="line"/>
      <point x="560" y="1042" type="line"/>
    </contour>
  </outline>
</glyph>
<glyph name="uhungarumlaut" format="2">
  <advance width="640"/>
  <unicode hex="0171"/>
  <outline>
    <contour>
      <point x="400" y="562" type="line"/>
      <point x="480" y="562" type="line"/>
      <point x="480" y="2" type="line"/>
      <point x="400" y="2" type="line"/>
      <point x="400" y="82" type="line"/>
      <point x="320" y="82" type="line"/>
      <point x="320" y="2" type="line"/>
      <point x="160" y="2" type="line"/>
      <point x="160" y="82" type="line"/>
      <point x="320" y="82" type="line"/>
      <point x="320" y="162" type="line"/>
      <point x="400" y="162" type="line"/>
    </contour>
    <contour>
      <point x="0" y="562" type="line"/>
      <point x="80" y="562" type="line"/>
      <point x="80" y="162" type="line"/>
      <point x="160" y="162" type="line"/>
      <point x="160" y="82" type="line"/>
      <point x="80" y="82" type="line"/>
      <point x="80" y="162" type="line"/>
      <point x="0" y="162" type="line"/>
    </contour>
    <contour>
      <point x="400" y="882" type="line"/>
      <point x="480" y="882" type="line"/>
      <point x="480" y="802" type="line"/>
      <point x="400" y="802" type="line"/>
      <point x="400" y="722" type="line"/>
      <point x="320" y="722" type="line"/>
      <point x="320" y="642" type="line"/>
      <point x="240" y="642" type="line"/>
      <point x="240" y="722" type="line"/>
      <point x="320" y="722" type="line"/>
      <point x="320" y="802" type="line"/>
      <point x="400" y="802" type="line"/>
    </contour>
    <contour>
      <point x="160" y="882" type="line"/>
      <point x="240" y="882" type="line"/>
      <point x="240" y="802" type="line"/>
      <point x="160" y="802" type="line"/>
      <point x="160" y="722" type="line"/>
      <point x="80" y="722" type="line"/>
      <point x="80" y="642" type="line"/>
      <point x="0" y="642" type="line"/>
      <point x="0" y="722" type="line"/>
      <point x="80" y="722" type="line"/>
      <point x="80" y="802" type="line"/>
      <point x="160" y="802" type="line"/>
    </contour>
  </outline>
</glyph>
<glyph name="uogonek" format="2">
  <advance width="640"/>
  <unicode hex="0173"/>
  <outline>
    <contour>
      <point x="400" y="562" type="line"/>
      <point x="480" y="562" type="line"/>
      <point x="480" y="2" type="line"/>
      <point x="400" y="2" type="line"/>
      <point x="400" y="82" type="line"/>
      <point x="320" y="82" type="line"/>
      <point x="320" y="2" type="line"/>
      <point x="240" y="2" type="line"/>
      <point x="240" y="-78" type="line"/>
      <point x="400" y="-78" type="line"/>
      <point x="400" y="-158" type="line"/>
      <point x="240" y="-158" type="line"/>
      <point x="240" y="-78" type="line"/>
      <point x="160" y="-78" type="line"/>
      <point x="160" y="82" type="line"/>
      <point x="320" y="82" type="line"/>
      <point x="320" y="162" type="line"/>
      <point x="400" y="162" type="line"/>
    </contour>
    <contour>
      <point x="0" y="562" type="line"/>
      <point x="80" y="562" type="line"/>
      <point x="80" y="162" type="line"/>
      <point x="160" y="162" type="line"/>
      <point x="160" y="82" type="line"/>
      <point x="80" y="82" type="line"/>
      <point x="80" y="162" type="line"/>
      <point x="0" y="162" type="line"/>
    </contour>
  </outline>
</glyph>
<glyph name="wcircumflex" format="2">
  <advance width="800"/>
  <unicode hex="0175"/>
  <outline>
    <contour>
      <point x="640" y="562" type="line"/>
      <point x="720" y="562" type="line"/>
      <point x="720" y="402" type="line"/>
      <point x="640" y="402" type="line"/>
      <point x="640" y="162" type="line"/>
      <point x="560" y="162" type="line"/>
      <point x="560" y="2" type="line"/>
      <point x="480" y="2" type="line"/>
      <point x="480" y="162" type="line"/>
      <point x="560" y="162" type="line"/>
      <point x="560" y="402" type="line"/>
      <point x="640" y="402" type="line"/>
    </contour>
    <contour>
      <point x="320" y="562" type="line"/>
      <point x="400" y="562" type="line"/>
      <point x="400" y="402" type="line"/>
      <point x="480" y="402" type="line"/>
      <point x="480" y="162" type="line"/>
      <point x="400" y="162" type="line"/>
      <point x="400" y="402" type="line"/>
      <point x="320" y="402" type="line"/>
      <point x="320" y="162" type="line"/>
      <point x="240" y="162" type="line"/>
      <point x="240" y="2" type="line"/>
      <point x="160" y="2" type="line"/>
      <point x="160" y="162" type="line"/>
      <point x="240" y="162" type="line"/>
      <point x="240" y="402" type="line"/>
      <point x="320" y="402" type="line"/>
    </contour>
    <contour>
      <point x="0" y="562" type="line"/>
      <point x="80" y="562" type="line"/>
      <point x="80" y="402" type="line"/>
      <point x="160" y="402" type="line"/>
      <point x="160" y="162" type="line"/>
      <point x="80" y="162" type="line"/>
      <point x="80" y="402" type="line"/>
      <point x="0" y="402" type="line"/>
    </contour>
    <contour>
      <point x="320" y="882" type="line"/>
      <point x="400" y="882" type="line"/>
      <point x="400" y="802" type="line"/>
      <point x="480" y="802" type="line"/>
      <point x="480" y="722" type="line"/>
      <point x="560" y="722" type="line"/>
      <point x="560" y="642" type="line"/>
      <point x="480" y="642" type="line"/>
      <point x="480" y="722" type="line"/>
      <point x="400" y="722" type="line"/>
      <point x="400" y="802" type="line"/>
      <point x="320" y="802" type="line"/>
      <point x="320" y="722" type="line"/>
      <point x="240" y="722" type="line"/>
      <point x="240" y="642" type="line"/>
      <point x="160" y="642" type="line"/>
      <point x="160" y="722" type="line"/>
      <point x="240" y="722" type="line"/>
      <point x="240" y="802" type="line"/>
      <point x="320" y="802" type="line"/>
    </contour>
  </outline>
</glyph>
<glyph name="Ycircumflex" format="2">
  <advance width="720"/>
  <unicode hex="0176"/>
  <outline>
    <contour>
      <point x="640" y="882" type="line"/>
      <point x="720" y="882" type="line"/>
      <point x="720" y="722" type="line"/>
      <point x="640" y="722" type="line"/>
      <point x="640" y="642" type="line"/>
      <point x="560" y="642" type="line"/>
      <point x="560" y="482" type="line"/>
      <point x="480" y="482" type="line"/>
      <point x="480" y="402" type="line"/>
      <point x="400" y="402" type="line"/>
      <point x="400" y="2" type="line"/>
      <point x="320" y="2" type="line"/>
      <point x="320" y="402" type="line"/>
      <point x="400" y="402" type="line"/>
      <point x="400" y="482" type="line"/>
      <point x="480" y="482" type="line"/>
      <point x="480" y="642" type="line"/>
      <point x="560" y="642" type="line"/>
      <point x="560" y="722" type="line"/>
      <point x="640" y="722" type="line"/>
    </contour>
    <contour>
      <point x="0" y="882" type="line"/>
      <point x="80" y="882" type="line"/>
      <point x="80" y="722" type="line"/>
      <point x="160" y="722" type="line"/>
      <point x="160" y="642" type="line"/>
      <point x="240" y="642" type="line"/>
      <point x="240" y="482" type="line"/>
      <point x="320" y="482" type="line"/>
      <point x="320" y="402" type="line"/>
      <point x="240" y="402" type="line"/>
      <point x="240" y="482" type="line"/>
      <point x="160" y="482" type="line"/>
      <point x="160" y="642" type="line"/>
      <point x="80" y="642" type="line"/>
      <point x="80" y="722" type="line"/>
      <point x="0" y="722" type="line"/>
    </contour>
    <contour>
      <point x="320" y="1122" type="line"/>
      <point x="400" y="1122" type="line"/>
      <point x="400" y="1042" type="line"/>
      <point x="480" y="1042" type="line"/>
      <point x="480" y="962" type="line"/>
      <point x="560" y="962" type="line"/>
      <point x="560" y="882" type="line"/>
      <point x="480" y="882" type="line"/>
      <point x="480" y="962" type="line"/>
      <point x="400" y="962" type="line"/>
      <point x="400" y="1042" type="line"/>
      <point x="320" y="1042" type="line"/>
      <point x="320" y="962" type="line"/>
      <point x="240" y="962" type="line"/>
      <point x="240" y="882" type="line"/>
      <point x="160" y="882" type="line"/>
      <point x="160" y="962" type="line"/>
      <point x="240" y="962" type="line"/>
      <point x="240" y="1042" type="line"/>
      <point x="320" y="1042" type="line"/>
    </contour>
  </outline>
</glyph>
<glyph name="Ydieresis" format="2">
  <advance width="720"/>
  <unicode hex="0178"/>
  <outline>
    <contour>
      <point x="640" y="882" type="line"/>
      <point x="720" y="882" type="line"/>
      <point x="720" y="722" type="line"/>
      <point x="640" y="722" type="line"/>
      <point x="640" y="642" type="line"/>
      <point x="560" y="642" type="line"/>
      <point x="560" y="482" type="line"/>
      <point x="480" y="482" type="line"/>
      <point x="480" y="402" type="line"/>
      <point x="400" y="402" type="line"/>
      <point x="400" y="2" type="line"/>
      <point x="320" y="2" type="line"/>
      <point x="320" y="402" type="line"/>
      <point x="400" y="402" type="line"/>
      <point x="400" y="482" type="line"/>
      <point x="480" y="482" type="line"/>
      <point x="480" y="642" type="line"/>
      <point x="560" y="642" type="line"/>
      <point x="560" y="722" type="line"/>
      <point x="640" y="722" type="line"/>
    </contour>
    <contour>
      <point x="0" y="882" type="line"/>
      <point x="80" y="882" type="line"/>
      <point x="80" y="722" type="line"/>
      <point x="160" y="722" type="line"/>
      <point x="160" y="642" type="line"/>
      <point x="240" y="642" type="line"/>
      <point x="240" y="482" type="line"/>
      <point x="320" y="482" type="line"/>
      <point x="320" y="402" type="line"/>
      <point x="240" y="402" type="line"/>
      <point x="240" y="482" type="line"/>
      <point x="160" y="482" type="line"/>
      <point x="160" y="642" type="line"/>
      <point x="80" y="642" type="line"/>
      <point x="80" y="722" type="line"/>
      <point x="0" y="722" type="line"/>
    </contour>
    <contour>
      <point x="560" y="962" type="line"/>
      <point x="400" y="962" type="line"/>
      <point x="400" y="1122" type="line"/>
      <point x="560" y="1122" type="line"/>
    </contour>
    <contour>
      <point x="320" y="962" type="line"/>
      <point x="160" y="962" type="line"/>
      <point x="160" y="1122" type="line"/>
      <point x="320" y="1122" type="line"/>
    </contour>
  </outline>
</glyph>
<glyph name="zacute" format="2">
  <advance width="560"/>
  <unicode hex="017A"/>
  <outline>
    <contour>
      <point x="240" y="882" type="line"/>
      <point x="320" y="882" type="line"/>
      <point x="320" y="802" type="line"/>
      <point x="240" y="802" type="line"/>
      <point x="240" y="722" type="line"/>
      <point x="160" y="722" type="line"/>
      <point x="160" y="642" type="line"/>
      <point x="80" y="642" type="line"/>
      <point x="80" y="722" type="line"/>
      <point x="160" y="722" type="line"/>
      <point x="160" y="802" type="line"/>
      <point x="240" y="802" type="line"/>
    </contour>
    <contour>
      <point x="480" y="2" type="line"/>
      <point x="0" y="2" type="line"/>
      <point x="0" y="82" type="line"/>
      <point x="80" y="82" type="line"/>
      <point x="80" y="162" type="line"/>
      <point x="160" y="162" type="line"/>
      <point x="160" y="82" type="line"/>
      <point x="480" y="82" type="line"/>
    </contour>
    <contour>
      <point x="320" y="402" type="line"/>
      <point x="320" y="322" type="line"/>
      <point x="240" y="322" type="line"/>
      <point x="240" y="162" type="line"/>
      <point x="160" y="162" type="line"/>
      <point x="160" y="322" type="line"/>
      <point x="240" y="322" type="line"/>
      <point x="240" y="402" type="line"/>
    </contour>
    <contour>
      <point x="320" y="402" type="line"/>
      <point x="320" y="482" type="line"/>
      <point x="0" y="482" type="line"/>
      <point x="0" y="562" type="line"/>
      <point x="480" y="562" type="line"/>
      <point x="480" y="482" type="line"/>
      <point x="400" y="482" type="line"/>
      <point x="400" y="402" type="line"/>
    </contour>
  </outline>
</glyph>
<glyph name="Zcaron" format="2">
  <advance width="720"/>
  <unicode hex="017D"/>
  <outline>
    <contour>
      <point x="400" y="1122" type="line"/>
      <point x="480" y="1122" type="line"/>
      <point x="480" y="1042" type="line"/>
      <point x="400" y="1042" type="line"/>
      <point x="400" y="962" type="line"/>
      <point x="320" y="962" type="line"/>
      <point x="320" y="882" type="line"/>
      <point x="640" y="882" type="line"/>
      <point x="640" y="802" type="line"/>
      <point x="560" y="802" type="line"/>
      <point x="560" y="642" type="line"/>
      <point x="480" y="642" type="line"/>
      <point x="480" y="562" type="line"/>
      <point x="400" y="562" type="line"/>
      <point x="400" y="402" type="line"/>
      <point x="320" y="402" type="line"/>
      <point x="320" y="322" type="line"/>
      <point x="240" y="322" type="line"/>
      <point x="240" y="162" type="line"/>
      <point x="160" y="162" type="line"/>
      <point x="160" y="82" type="line"/>
      <point x="640" y="82" type="line"/>
      <point x="640" y="2" type="line"/>
      <point x="0" y="2" type="line"/>
      <point x="0" y="82" type="line"/>
      <point x="80" y="82" type="line"/>
      <point x="80" y="162" type="line"/>
      <point x="160" y="162" type="line"/>
      <point x="160" y="322" type="line"/>
      <point x="240" y="322" type="line"/>
      <point x="240" y="402" type="line"/>
      <point x="320" y="402" type="line"/>
      <point x="320" y="562" type="line"/>
      <point x="400" y="562" type="line"/>
      <point x="400" y="642" type="line"/>
      <point x="480" y="642" type="line"/>
      <point x="480" y="802" type="line"/>
      <point x="0" y="802" type="line"/>
      <point x="0" y="882" type="line"/>
      <point x="240" y="882" type="line"/>
      <point x="240" y="962" type="line"/>
      <point x="320" y="962" type="line"/>
      <point x="320" y="1042" type="line"/>
      <point x="400" y="1042" type="line"/>
    </contour>
    <contour>
      <point x="80" y="1122" type="line"/>
      <point x="160" y="1122" type="line"/>
      <point x="160" y="1042" type="line"/>
      <point x="240" y="1042" type="line"/>
      <point x="240" y="962" type="line"/>
      <point x="160" y="962" type="line"/>
      <point x="160" y="1042" type="line"/>
      <point x="80" y="1042" type="line"/>
    </contour>
  </outline>
</glyph>
<glyph name="longs" format="2">
  <advance width="640"/>
  <unicode hex="017F"/>
  <outline>
    <contour>
      <point x="0" y="2" type="line"/>
      <point x="0" y="722" type="line"/>
      <point x="80" y="722" type="line"/>
      <point x="80" y="2" type="line"/>
    </contour>
    <contour>
      <point x="480" y="722" type="line"/>
      <point x="560" y="722" type="line"/>
      <point x="560" y="562" type="line"/>
      <point x="480" y="562" type="line"/>
    </contour>
    <contour>
      <point x="480" y="722" type="line"/>
      <point x="400" y="722" type="line"/>
      <point x="400" y="802" type="line"/>
      <point x="480" y="802" type="line"/>
    </contour>
    <contour>
      <point x="400" y="802" type="line"/>
      <point x="160" y="802" type="line"/>
      <point x="160" y="722" type="line"/>
      <point x="80" y="722" type="line"/>
      <point x="80" y="802" type="line"/>
      <point x="160" y="802" type="line"/>
      <point x="160" y="882" type="line"/>
      <point x="400" y="882" type="line"/>
    </contour>
  </outline>
</glyph>
<glyph name="florin" format="2">
  <advance width="800"/>
  <unicode hex="0192"/>
  <outline>
    <contour>
      <point x="0" y="2" type="line"/>
      <point x="80" y="2" type="line"/>
      <point x="80" y="-78" type="line"/>
      <point x="240" y="-78" type="line"/>
      <point x="240" y="-158" type="line"/>
      <point x="80" y="-158" type="line"/>
      <point x="80" y="-78" type="line"/>
      <point x="0" y="-78" type="line"/>
    </contour>
    <contour>
      <point x="240" y="-78" type="line"/>
      <point x="240" y="82" type="line"/>
      <point x="320" y="82" type="line"/>
      <point x="320" y="-78" type="line"/>
    </contour>
    <contour>
      <point x="320" y="82" type="line"/>
      <point x="320" y="562" type="line"/>
      <point x="80" y="562" type="line"/>
      <point x="80" y="642" type="line"/>
      <point x="320" y="642" type="line"/>
      <point x="320" y="802" type="line"/>
      <point x="400" y="802" type="line"/>
      <point x="400" y="642" type="line"/>
      <point x="640" y="642" type="line"/>
      <point x="640" y="562" type="line"/>
      <point x="400" y="562" type="line"/>
      <point x="400" y="82" type="line"/>
    </contour>
    <contour>
      <point x="400" y="802" type="line"/>
      <point x="400" y="962" type="line"/>
      <point x="480" y="962" type="line"/>
      <point x="480" y="802" type="line"/>
    </contour>
    <contour>
      <point x="640" y="962" type="line"/>
      <point x="720" y="962" type="line"/>
      <point x="720" y="882" type="line"/>
      <point x="640" y="882" type="line"/>
    </contour>
    <contour>
      <point x="640" y="962" type="line"/>
      <point x="480" y="962" type="line"/>
      <point x="480" y="1042" type="line"/>
      <point x="640" y="1042" type="line"/>
    </contour>
  </outline>
</glyph>
<glyph name="uni0251" format="2">
  <advance width="640"/>
  <unicode hex="0251"/>
  <outline>
    <contour>
      <point x="560" y="2" type="line"/>
      <point x="480" y="2" type="line"/>
      <point x="480" y="82" type="line"/>
      <point x="400" y="82" type="line"/>
      <point x="400" y="162" type="line"/>
      <point x="480" y="162" type="line"/>
      <point x="480" y="402" type="line"/>
      <point x="400" y="402" type="line"/>
      <point x="400" y="482" type="line"/>
      <point x="160" y="482" type="line"/>
      <point x="160" y="562" type="line"/>
      <point x="560" y="562" type="line"/>
    </contour>
    <contour>
      <point x="400" y="2" type="line"/>
      <point x="160" y="2" type="line"/>
      <point x="160" y="82" type="line"/>
      <point x="80" y="82" type="line"/>
      <point x="80" y="482" type="line"/>
      <point x="160" y="482" type="line"/>
      <point x="160" y="162" type="line"/>
      <point x="240" y="162" type="line"/>
      <point x="240" y="82" type="line"/>
      <point x="400" y="82" type="line"/>
    </contour>
  </outline>
</glyph>
<glyph name="uni0279" format="2">
  <advance width="480"/>
  <unicode hex="0279"/>
  <outline>
    <contour>
      <point x="320" y="562" type="line"/>
      <point x="400" y="562" type="line"/>
      <point x="400" y="2" type="line"/>
      <point x="320" y="2" type="line"/>
      <point x="320" y="82" type="line"/>
      <point x="160" y="82" type="line"/>
      <point x="160" y="162" type="line"/>
      <point x="240" y="162" type="line"/>
      <point x="240" y="242" type="line"/>
      <point x="320" y="242" type="line"/>
    </contour>
    <contour>
      <point x="160" y="82" type="line"/>
      <point x="160" y="2" type="line"/>
      <point x="0" y="2" type="line"/>
      <point x="0" y="82" type="line"/>
    </contour>
  </outline>
</glyph>
<glyph name="uni027A" format="2">
  <advance width="480"/>
  <unicode hex="027A"/>
  <outline>
    <contour>
      <point x="160" y="2" type="line"/>
      <point x="0" y="2" type="line"/>
      <point x="0" y="82" type="line"/>
      <point x="160" y="82" type="line"/>
    </contour>
    <contour>
      <point x="400" y="2" type="line"/>
      <point x="320" y="2" type="line"/>
      <point x="320" y="82" type="line"/>
      <point x="160" y="82" type="line"/>
      <point x="160" y="162" type="line"/>
      <point x="240" y="162" type="line"/>
      <point x="240" y="242" type="line"/>
      <point x="320" y="242" type="line"/>
      <point x="320" y="882" type="line"/>
      <point x="400" y="882" type="line"/>
    </contour>
  </outline>
</glyph>
<glyph name="uni027C" format="2">
  <advance width="480"/>
  <unicode hex="027C"/>
  <outline>
    <contour>
      <point x="160" y="-158" type="line"/>
      <point x="80" y="-158" type="line"/>
      <point x="80" y="562" type="line"/>
      <point x="160" y="562" type="line"/>
      <point x="160" y="482" type="line"/>
      <point x="240" y="482" type="line"/>
      <point x="240" y="562" type="line"/>
      <point x="480" y="562" type="line"/>
      <point x="480" y="482" type="line"/>
      <point x="240" y="482" type="line"/>
      <point x="240" y="402" type="line"/>
      <point x="160" y="402" type="line"/>
    </contour>
  </outline>
</glyph>
<glyph name="uni027E" format="2">
  <advance width="560"/>
  <unicode hex="027E"/>
  <outline>
    <contour>
      <point x="160" y="562" type="line"/>
      <point x="480" y="562" type="line"/>
      <point x="480" y="402" type="line"/>
      <point x="400" y="402" type="line"/>
      <point x="400" y="482" type="line"/>
      <point x="160" y="482" type="line"/>
    </contour>
    <contour>
      <point x="160" y="482" type="line"/>
      <point x="160" y="2" type="line"/>
      <point x="80" y="2" type="line"/>
      <point x="80" y="482" type="line"/>
    </contour>
  </outline>
</glyph>
<glyph name="uni027F" format="2">
  <advance width="560"/>
  <unicode hex="027F"/>
  <outline>
    <contour>
      <point x="160" y="402" type="line"/>
      <point x="80" y="402" type="line"/>
      <point x="80" y="562" type="line"/>
      <point x="400" y="562" type="line"/>
      <point x="400" y="482" type="line"/>
      <point x="160" y="482" type="line"/>
    </contour>
    <contour>
      <point x="480" y="2" type="line"/>
      <point x="400" y="2" type="line"/>
      <point x="400" y="482" type="line"/>
      <point x="480" y="482" type="line"/>
    </contour>
  </outline>
</glyph>
<glyph name="uni0288" format="2">
  <advance width="480"/>
  <unicode hex="0288"/>
  <outline>
    <contour>
      <point x="400" y="-158" type="line"/>
      <point x="160" y="-158" type="line"/>
      <point x="160" y="482" type="line"/>
      <point x="0" y="482" type="line"/>
      <point x="0" y="562" type="line"/>
      <point x="160" y="562" type="line"/>
      <point x="160" y="802" type="line"/>
      <point x="240" y="802" type="line"/>
      <point x="240" y="562" type="line"/>
      <point x="400" y="562" type="line"/>
      <point x="400" y="482" type="line"/>
      <point x="240" y="482" type="line"/>
      <point x="240" y="-78" type="line"/>
      <point x="320" y="-78" type="line"/>
      <point x="320" y="2" type="line"/>
      <point x="400" y="2" type="line"/>
    </contour>
  </outline>
</glyph>
<glyph name="uni02C8" format="2">
  <advance width="240"/>
  <unicode hex="02C8"/>
  <outline>
    <contour>
      <point x="160" y="482" type="line"/>
      <point x="80" y="482" type="line"/>
      <point x="80" y="1122" type="line"/>
      <point x="160" y="1122" type="line"/>
    </contour>
  </outline>
</glyph>
<glyph name="uni02C9" format="2">
  <advance width="480"/>
  <unicode hex="02C9"/>
  <outline>
    <contour>
      <point x="400" y="962" type="line"/>
      <point x="0" y="962" type="line"/>
      <point x="0" y="1042" type="line"/>
      <point x="400" y="1042" type="line"/>
    </contour>
  </outline>
</glyph>
<glyph name="uni02CC" format="2">
  <advance width="240"/>
  <unicode hex="02CC"/>
  <outline>
    <contour>
      <point x="0" y="482" type="line"/>
      <point x="80" y="482" type="line"/>
      <point x="80" y="-158" type="line"/>
      <point x="0" y="-158" type="line"/>
    </contour>
  </outline>
</glyph>
<glyph name="breve" format="2">
  <advance width="560"/>
  <unicode hex="02D8"/>
  <outline>
    <contour>
      <point x="320" y="1122" type="line"/>
      <point x="400" y="1122" type="line"/>
      <point x="400" y="1042" type="line"/>
      <point x="320" y="1042" type="line"/>
      <point x="320" y="962" type="line"/>
      <point x="80" y="962" type="line"/>
      <point x="80" y="1042" type="line"/>
      <point x="320" y="1042" type="line"/>
    </contour>
    <contour>
      <point x="0" y="1122" type="line"/>
      <point x="80" y="1122" type="line"/>
      <point x="80" y="1042" type="line"/>
      <point x="0" y="1042" type="line"/>
    </contour>
  </outline>
</glyph>
<glyph name="dotaccent" format="2">
  <advance width="240"/>
  <unicode hex="02D9"/>
  <outline>
    <contour>
      <point x="160" y="962" type="line"/>
      <point x="0" y="962" type="line"/>
      <point x="0" y="1122" type="line"/>
      <point x="160" y="1122" type="line"/>
    </contour>
  </outline>
</glyph>
<glyph name="ogonek" format="2">
  <advance width="320"/>
  <unicode hex="02DB"/>
  <outline>
    <contour>
      <point x="0" y="82" type="line"/>
      <point x="80" y="82" type="line"/>
      <point x="80" y="-78" type="line"/>
      <point x="240" y="-78" type="line"/>
      <point x="240" y="-158" type="line"/>
      <point x="80" y="-158" type="line"/>
      <point x="80" y="-78" type="line"/>
      <point x="0" y="-78" type="line"/>
    </contour>
  </outline>
</glyph>
<glyph name="uni02DE" format="2">
  <advance width="640"/>
  <unicode hex="02DE"/>
  <outline>
    <contour>
      <point x="240" y="642" type="line"/>
      <point x="160" y="642" type="line"/>
      <point x="160" y="802" type="line"/>
      <point x="320" y="802" type="line"/>
      <point x="320" y="722" type="line"/>
      <point x="240" y="722" type="line"/>
    </contour>
    <contour>
      <point x="640" y="562" type="line"/>
      <point x="320" y="562" type="line"/>
      <point x="320" y="722" type="line"/>
      <point x="400" y="722" type="line"/>
      <point x="400" y="642" type="line"/>
      <point x="640" y="642" type="line"/>
    </contour>
  </outline>
</glyph>
<glyph name="uni02E5" format="2">
  <advance width="880"/>
  <unicode hex="02E5"/>
  <outline>
    <contour>
      <point x="480" y="1042" type="line"/>
      <point x="0" y="1042" type="line"/>
      <point x="0" y="1122" type="line"/>
      <point x="560" y="1122" type="line"/>
      <point x="560" y="1042" type="line"/>
      <point x="560" y="-158" type="line"/>
      <point x="480" y="-158" type="line"/>
    </contour>
  </outline>
</glyph>
<glyph name="gravecomb" format="2">
  <advance width="400"/>
  <unicode hex="0300"/>
  <outline>
    <contour>
      <point x="320" y="882" type="line"/>
      <point x="240" y="882" type="line"/>
      <point x="240" y="962" type="line"/>
      <point x="320" y="962" type="line"/>
    </contour>
    <contour>
      <point x="240" y="962" type="line"/>
      <point x="160" y="962" type="line"/>
      <point x="160" y="1042" type="line"/>
      <point x="0" y="1042" type="line"/>
      <point x="0" y="1122" type="line"/>
      <point x="240" y="1122" type="line"/>
    </contour>
  </outline>
</glyph>
<glyph name="acutecomb" format="2">
  <advance width="400"/>
  <unicode hex="0301"/>
  <outline>
    <contour>
      <point x="160" y="882" type="line"/>
      <point x="0" y="882" type="line"/>
      <point x="0" y="962" type="line"/>
      <point x="80" y="962" type="line"/>
      <point x="80" y="1042" type="line"/>
      <point x="160" y="1042" type="line"/>
      <point x="160" y="1122" type="line"/>
      <point x="320" y="1122" type="line"/>
      <point x="320" y="1042" type="line"/>
      <point x="240" y="1042" type="line"/>
      <point x="240" y="962" type="line"/>
      <point x="160" y="962" type="line"/>
    </contour>
  </outline>
</glyph>
<glyph name="uni0302" format="2">
  <advance width="560"/>
  <unicode hex="0302"/>
  <outline>
    <contour>
      <point x="560" y="882" type="line"/>
      <point x="400" y="882" type="line"/>
      <point x="400" y="962" type="line"/>
      <point x="320" y="962" type="line"/>
      <point x="320" y="1042" type="line"/>
      <point x="400" y="1042" type="line"/>
      <point x="400" y="962" type="line"/>
      <point x="560" y="962" type="line"/>
    </contour>
    <contour>
      <point x="160" y="882" type="line"/>
      <point x="0" y="882" type="line"/>
      <point x="0" y="962" type="line"/>
      <point x="160" y="962" type="line"/>
      <point x="160" y="1042" type="line"/>
      <point x="240" y="1042" type="line"/>
      <point x="240" y="1122" type="line"/>
      <point x="320" y="1122" type="line"/>
      <point x="320" y="1042" type="line"/>
      <point x="240" y="1042" type="line"/>
      <point x="240" y="962" type="line"/>
      <point x="160" y="962" type="line"/>
    </contour>
  </outline>
</glyph>
<glyph name="uni0304" format="2">
  <advance width="480"/>
  <unicode hex="0304"/>
  <outline>
    <contour>
      <point x="80" y="1042" type="line"/>
      <point x="400" y="1042" type="line"/>
      <point x="400" y="962" type="line"/>
      <point x="80" y="962" type="line"/>
    </contour>
  </outline>
</glyph>
<glyph name="uni0308" format="2">
  <advance width="480"/>
  <unicode hex="0308"/>
  <outline>
    <contour>
      <point x="0" y="802" type="line"/>
      <point x="160" y="802" type="line"/>
      <point x="160" y="722" type="line"/>
      <point x="0" y="722" type="line"/>
    </contour>
    <contour>
      <point x="240" y="802" type="line"/>
      <point x="400" y="802" type="line"/>
      <point x="400" y="722" type="line"/>
      <point x="240" y="722" type="line"/>
    </contour>
  </outline>
</glyph>
<glyph name="uni030F" format="2">
  <advance width="560"/>
  <unicode hex="030F"/>
  <outline>
    <contour>
      <point x="0" y="1122" type="line"/>
      <point x="400" y="1122" type="line"/>
      <point x="400" y="1042" type="line"/>
      <point x="480" y="1042" type="line"/>
      <point x="480" y="962" type="line"/>
      <point x="320" y="962" type="line"/>
      <point x="320" y="882" type="line"/>
      <point x="240" y="882" type="line"/>
      <point x="240" y="962" type="line"/>
      <point x="160" y="962" type="line"/>
      <point x="160" y="1042" type="line"/>
      <point x="0" y="1042" type="line"/>
    </contour>
    <contour>
      <point x="560" y="962" type="line"/>
      <point x="560" y="882" type="line"/>
      <point x="480" y="882" type="line"/>
      <point x="480" y="962" type="line"/>
    </contour>
    <contour>
      <point x="240" y="962" type="line"/>
      <point x="320" y="962" type="line"/>
      <point x="320" y="1042" type="line"/>
      <point x="240" y="1042" type="line"/>
    </contour>
  </outline>
</glyph>
<glyph name="uni0318" format="2">
  <advance width="320"/>
  <unicode hex="0318"/>
  <outline>
    <contour>
      <point x="240" y="-158" type="line"/>
      <point x="0" y="-158" type="line"/>
      <point x="0" y="-78" type="line"/>
      <point x="160" y="-78" type="line"/>
      <point x="160" y="2" type="line"/>
      <point x="240" y="2" type="line"/>
    </contour>
  </outline>
</glyph>
<glyph name="uni0329" format="2">
  <advance width="240"/>
  <unicode hex="0329"/>
  <outline>
    <contour>
      <point x="160" y="-158" type="line"/>
      <point x="80" y="-158" type="line"/>
      <point x="80" y="2" type="line"/>
      <point x="160" y="2" type="line"/>
    </contour>
  </outline>
</glyph>
<glyph name="uni033B" format="2">
  <advance width="560"/>
  <unicode hex="033B"/>
  <outline>
    <contour>
      <point x="480" y="-158" type="line"/>
      <point x="80" y="-158" type="line"/>
      <point x="80" y="2" type="line"/>
      <point x="480" y="2" type="line"/>
    </contour>
  </outline>
</glyph>
<glyph name="uni035D" format="2">
  <advance width="0"/>
  <unicode hex="035D"/>
  <outline>
    <contour>
      <point x="480" y="802" type="line"/>
      <point x="160" y="802" type="line"/>
      <point x="160" y="882" type="line"/>
      <point x="0" y="882" type="line"/>
      <point x="0" y="962" type="line"/>
      <point x="160" y="962" type="line"/>
      <point x="160" y="882" type="line"/>
      <point x="480" y="882" type="line"/>
      <point x="480" y="962" type="line"/>
      <point x="640" y="962" type="line"/>
      <point x="640" y="1042" type="line"/>
      <point x="720" y="1042" type="line"/>
      <point x="720" y="962" type="line"/>
      <point x="640" y="962" type="line"/>
      <point x="640" y="882" type="line"/>
      <point x="480" y="882" type="line"/>
    </contour>
    <contour>
      <point x="0" y="962" type="line"/>
      <point x="-80" y="962" type="line"/>
      <point x="-80" y="1042" type="line"/>
      <point x="0" y="1042" type="line"/>
    </contour>
  </outline>
</glyph>
<glyph name="uni035E" format="2">
  <advance width="0"/>
  <unicode hex="035E"/>
  <outline>
    <contour>
      <point x="720" y="802" type="line"/>
      <point x="-80" y="802" type="line"/>
      <point x="-80" y="882" type="line"/>
      <point x="720" y="882" type="line"/>
    </contour>
  </outline>
</glyph>
<glyph name="uni0375" format="2">
  <advance width="400"/>
  <unicode hex="0375"/>
  <outline>
    <contour>
      <point x="160" y="2" type="line"/>
      <point x="320" y="2" type="line"/>
      <point x="320" y="-78" type="line"/>
      <point x="160" y="-78" type="line"/>
      <point x="160" y="-158" type="line"/>
      <point x="0" y="-158" type="line"/>
      <point x="0" y="-78" type="line"/>
      <point x="160" y="-78" type="line"/>
    </contour>
  </outline>
</glyph>
<glyph name="uni037E" format="2">
  <advance width="240"/>
  <unicode hex="037E"/>
  <outline>
    <contour>
      <point x="160" y="482" type="line"/>
      <point x="0" y="482" type="line"/>
      <point x="0" y="642" type="line"/>
      <point x="160" y="642" type="line"/>
    </contour>
    <contour>
      <point x="80" y="-78" type="line"/>
      <point x="80" y="-158" type="line"/>
      <point x="0" y="-158" type="line"/>
      <point x="0" y="-78" type="line"/>
    </contour>
    <contour>
      <point x="80" y="-78" type="line"/>
      <point x="80" y="2" type="line"/>
      <point x="0" y="2" type="line"/>
      <point x="0" y="162" type="line"/>
      <point x="160" y="162" type="line"/>
      <point x="160" y="-78" type="line"/>
    </contour>
  </outline>
</glyph>
<glyph name="dieresistonos" format="2">
  <advance width="480"/>
  <unicode hex="0385"/>
  <outline>
    <contour>
      <point x="240" y="1122" type="line"/>
      <point x="320" y="1122" type="line"/>
      <point x="320" y="1042" type="line"/>
      <point x="240" y="1042" type="line"/>
      <point x="240" y="962" type="line"/>
      <point x="160" y="962" type="line"/>
      <point x="160" y="1042" type="line"/>
      <point x="240" y="1042" type="line"/>
    </contour>
    <contour>
      <point x="400" y="722" type="line"/>
      <point x="240" y="722" type="line"/>
      <point x="240" y="882" type="line"/>
      <point x="400" y="882" type="line"/>
    </contour>
    <contour>
      <point x="160" y="722" type="line"/>
      <point x="0" y="722" type="line"/>
      <point x="0" y="882" type="line"/>
      <point x="160" y="882" type="line"/>
    </contour>
  </outline>
</glyph>
<glyph name="anoteleia" format="2">
  <advance width="240"/>
  <unicode hex="0387"/>
  <outline>
    <contour>
      <point x="160" y="402" type="line"/>
      <point x="0" y="402" type="line"/>
      <point x="0" y="562" type="line"/>
      <point x="160" y="562" type="line"/>
    </contour>
  </outline>
</glyph>
<glyph name="Epsilontonos" format="2">
  <advance width="800"/>
  <unicode hex="0388"/>
  <outline>
    <contour>
      <point x="80" y="962" type="line"/>
      <point x="160" y="962" type="line"/>
      <point x="160" y="802" type="line"/>
      <point x="80" y="802" type="line"/>
      <point x="80" y="722" type="line"/>
      <point x="0" y="722" type="line"/>
      <point x="0" y="802" type="line"/>
      <point x="80" y="802" type="line"/>
    </contour>
    <contour>
      <point x="720" y="2" type="line"/>
      <point x="240" y="2" type="line"/>
      <point x="240" y="882" type="line"/>
      <point x="720" y="882" type="line"/>
      <point x="720" y="802" type="line"/>
      <point x="320" y="802" type="line"/>
      <point x="320" y="482" type="line"/>
      <point x="640" y="482" type="line"/>
      <point x="640" y="402" type="line"/>
      <point x="320" y="402" type="line"/>
      <point x="320" y="82" type="line"/>
      <point x="720" y="82" type="line"/>
    </contour>
  </outline>
</glyph>
<glyph name="Etatonos" format="2">
  <advance width="880"/>
  <unicode hex="0389"/>
  <outline>
    <contour>
      <point x="720" y="882" type="line"/>
      <point x="800" y="882" type="line"/>
      <point x="800" y="2" type="line"/>
      <point x="720" y="2" type="line"/>
      <point x="720" y="402" type="line"/>
      <point x="320" y="402" type="line"/>
      <point x="320" y="2" type="line"/>
      <point x="240" y="2" type="line"/>
      <point x="240" y="882" type="line"/>
      <point x="320" y="882" type="line"/>
      <point x="320" y="482" type="line"/>
      <point x="720" y="482" type="line"/>
    </contour>
    <contour>
      <point x="80" y="962" type="line"/>
      <point x="160" y="962" type="line"/>
      <point x="160" y="802" type="line"/>
      <point x="80" y="802" type="line"/>
      <point x="80" y="722" type="line"/>
      <point x="0" y="722" type="line"/>
      <point x="0" y="802" type="line"/>
      <point x="80" y="802" type="line"/>
    </contour>
  </outline>
</glyph>
<glyph name="Iotatonos" format="2">
  <advance width="560"/>
  <unicode hex="038A"/>
  <outline>
    <contour>
      <point x="80" y="962" type="line"/>
      <point x="160" y="962" type="line"/>
      <point x="160" y="802" type="line"/>
      <point x="80" y="802" type="line"/>
      <point x="80" y="722" type="line"/>
      <point x="0" y="722" type="line"/>
      <point x="0" y="802" type="line"/>
      <point x="80" y="802" type="line"/>
    </contour>
    <contour>
      <point x="480" y="2" type="line"/>
      <point x="240" y="2" type="line"/>
      <point x="240" y="82" type="line"/>
      <point x="320" y="82" type="line"/>
      <point x="320" y="802" type="line"/>
      <point x="240" y="802" type="line"/>
      <point x="240" y="882" type="line"/>
      <point x="480" y="882" type="line"/>
      <point x="480" y="802" type="line"/>
      <point x="400" y="802" type="line"/>
      <point x="400" y="82" type="line"/>
      <point x="480" y="82" type="line"/>
    </contour>
  </outline>
</glyph>
<glyph name="Alpha" format="2">
  <advance width="1280"/>
  <unicode hex="0391"/>
  <outline>
    <contour>
      <point x="560" y="1042" type="line"/>
      <point x="640" y="1042" type="line"/>
      <point x="640" y="882" type="line"/>
      <point x="720" y="882" type="line"/>
      <point x="720" y="722" type="line"/>
      <point x="800" y="722" type="line"/>
      <point x="800" y="562" type="line"/>
      <point x="880" y="562" type="line"/>
      <point x="880" y="402" type="line"/>
      <point x="960" y="402" type="line"/>
      <point x="960" y="162" type="line"/>
      <point x="1040" y="162" type="line"/>
      <point x="1040" y="2" type="line"/>
      <point x="960" y="2" type="line"/>
      <point x="960" y="162" type="line"/>
      <point x="880" y="162" type="line"/>
      <point x="880" y="322" type="line"/>
      <point x="320" y="322" type="line"/>
      <point x="320" y="162" type="line"/>
      <point x="240" y="162" type="line"/>
      <point x="240" y="2" type="line"/>
      <point x="160" y="2" type="line"/>
      <point x="160" y="162" type="line"/>
      <point x="240" y="162" type="line"/>
      <point x="240" y="402" type="line"/>
      <point x="320" y="402" type="line"/>
      <point x="320" y="562" type="line"/>
      <point x="400" y="562" type="line"/>
      <point x="400" y="402" type="line"/>
      <point x="800" y="402" type="line"/>
      <point x="800" y="562" type="line"/>
      <point x="720" y="562" type="line"/>
      <point x="720" y="722" type="line"/>
      <point x="640" y="722" type="line"/>
      <point x="640" y="882" type="line"/>
      <point x="560" y="882" type="line"/>
      <point x="560" y="722" type="line"/>
      <point x="480" y="722" type="line"/>
      <point x="480" y="562" type="line"/>
      <point x="400" y="562" type="line"/>
      <point x="400" y="722" type="line"/>
      <point x="480" y="722" type="line"/>
      <point x="480" y="882" type="line"/>
      <point x="560" y="882" type="line"/>
    </contour>
  </outline>
</glyph>
<glyph name="Gamma" format="2">
  <advance width="1280"/>
  <unicode hex="0393"/>
  <outline>
    <contour>
      <point x="320" y="2" type="line"/>
      <point x="320" y="1042" type="line"/>
      <point x="960" y="1042" type="line"/>
      <point x="960" y="962" type="line"/>
      <point x="400" y="962" type="line"/>
      <point x="400" y="2" type="line"/>
    </contour>
  </outline>
</glyph>
<glyph name="uni0394" format="2">
  <advance width="1280"/>
  <unicode hex="0394"/>
  <outline>
    <contour>
      <point x="560" y="1042" type="line"/>
      <point x="640" y="1042" type="line"/>
      <point x="640" y="882" type="line"/>
      <point x="720" y="882" type="line"/>
      <point x="720" y="722" type="line"/>
      <point x="800" y="722" type="line"/>
      <point x="800" y="562" type="line"/>
      <point x="880" y="562" type="line"/>
      <point x="880" y="402" type="line"/>
      <point x="960" y="402" type="line"/>
      <point x="960" y="242" type="line"/>
      <point x="1040" y="242" type="line"/>
      <point x="1040" y="82" type="line"/>
      <point x="1120" y="82" type="line"/>
      <point x="1120" y="2" type="line"/>
      <point x="80" y="2" type="line"/>
      <point x="80" y="82" type="line"/>
      <point x="160" y="82" type="line"/>
      <point x="160" y="242" type="line"/>
      <point x="240" y="242" type="line"/>
      <point x="240" y="82" type="line"/>
      <point x="960" y="82" type="line"/>
      <point x="960" y="242" type="line"/>
      <point x="880" y="242" type="line"/>
      <point x="880" y="402" type="line"/>
      <point x="800" y="402" type="line"/>
      <point x="800" y="562" type="line"/>
      <point x="720" y="562" type="line"/>
      <point x="720" y="722" type="line"/>
      <point x="640" y="722" type="line"/>
      <point x="640" y="882" type="line"/>
      <point x="560" y="882" type="line"/>
      <point x="560" y="722" type="line"/>
      <point x="480" y="722" type="line"/>
      <point x="480" y="562" type="line"/>
      <point x="400" y="562" type="line"/>
      <point x="400" y="402" type="line"/>
      <point x="320" y="402" type="line"/>
      <point x="320" y="242" type="line"/>
      <point x="240" y="242" type="line"/>
      <point x="240" y="402" type="line"/>
      <point x="320" y="402" type="line"/>
      <point x="320" y="562" type="line"/>
      <point x="400" y="562" type="line"/>
      <point x="400" y="722" type="line"/>
      <point x="480" y="722" type="line"/>
      <point x="480" y="882" type="line"/>
      <point x="560" y="882" type="line"/>
    </contour>
  </outline>
</glyph>
<glyph name="Epsilon" format="2">
  <advance width="1280"/>
  <unicode hex="0395"/>
  <outline>
    <contour>
      <point x="960" y="2" type="line"/>
      <point x="240" y="2" type="line"/>
      <point x="240" y="1042" type="line"/>
      <point x="960" y="1042" type="line"/>
      <point x="960" y="962" type="line"/>
      <point x="320" y="962" type="line"/>
      <point x="320" y="562" type="line"/>
      <point x="880" y="562" type="line"/>
      <point x="880" y="482" type="line"/>
      <point x="320" y="482" type="line"/>
      <point x="320" y="82" type="line"/>
      <point x="960" y="82" type="line"/>
    </contour>
  </outline>
</glyph>
<glyph name="Eta" format="2">
  <advance width="1280"/>
  <unicode hex="0397"/>
  <outline>
    <contour>
      <point x="880" y="1042" type="line"/>
      <point x="960" y="1042" type="line"/>
      <point x="960" y="2" type="line"/>
      <point x="880" y="2" type="line"/>
      <point x="880" y="482" type="line"/>
      <point x="320" y="482" type="line"/>
      <point x="320" y="2" type="line"/>
      <point x="240" y="2" type="line"/>
      <point x="240" y="1042" type="line"/>
      <point x="320" y="1042" type="line"/>
      <point x="320" y="562" type="line"/>
      <point x="880" y="562" type="line"/>
    </contour>
  </outline>
</glyph>
<glyph name="Theta" format="2">
  <advance width="1280"/>
  <unicode hex="0398"/>
  <outline>
    <contour>
      <point x="720" y="2" type="line"/>
      <point x="480" y="2" type="line"/>
      <point x="480" y="82" type="line"/>
      <point x="720" y="82" type="line"/>
    </contour>
    <contour>
      <point x="800" y="482" type="line"/>
      <point x="400" y="482" type="line"/>
      <point x="400" y="562" type="line"/>
      <point x="800" y="562" type="line"/>
    </contour>
    <contour>
      <point x="880" y="882" type="line"/>
      <point x="960" y="882" type="line"/>
      <point x="960" y="722" type="line"/>
      <point x="1040" y="722" type="line"/>
      <point x="1040" y="322" type="line"/>
      <point x="960" y="322" type="line"/>
      <point x="960" y="162" type="line"/>
      <point x="880" y="162" type="line"/>
      <point x="880" y="82" type="line"/>
      <point x="720" y="82" type="line"/>
      <point x="720" y="162" type="line"/>
      <point x="880" y="162" type="line"/>
      <point x="880" y="322" type="line"/>
      <point x="960" y="322" type="line"/>
      <point x="960" y="722" type="line"/>
      <point x="880" y="722" type="line"/>
    </contour>
    <contour>
      <point x="880" y="882" type="line"/>
      <point x="720" y="882" type="line"/>
      <point x="720" y="962" type="line"/>
      <point x="880" y="962" type="line"/>
    </contour>
    <contour>
      <point x="720" y="962" type="line"/>
      <point x="480" y="962" type="line"/>
      <point x="480" y="882" type="line"/>
      <point x="320" y="882" type="line"/>
      <point x="320" y="722" type="line"/>
      <point x="240" y="722" type="line"/>
      <point x="240" y="322" type="line"/>
      <point x="320" y="322" type="line"/>
      <point x="320" y="162" type="line"/>
      <point x="480" y="162" type="line"/>
      <point x="480" y="82" type="line"/>
      <point x="320" y="82" type="line"/>
      <point x="320" y="162" type="line"/>
      <point x="240" y="162" type="line"/>
      <point x="240" y="322" type="line"/>
      <point x="160" y="322" type="line"/>
      <point x="160" y="722" type="line"/>
      <point x="240" y="722" type="line"/>
      <point x="240" y="882" type="line"/>
      <point x="320" y="882" type="line"/>
      <point x="320" y="962" type="line"/>
      <point x="480" y="962" type="line"/>
      <point x="480" y="1042" type="line"/>
      <point x="720" y="1042" type="line"/>
    </contour>
  </outline>
</glyph>
<glyph name="Iota" format="2">
  <advance width="1280"/>
  <unicode hex="0399"/>
  <outline>
    <contour>
      <point x="720" y="2" type="line"/>
      <point x="480" y="2" type="line"/>
      <point x="480" y="82" type="line"/>
      <point x="560" y="82" type="line"/>
      <point x="560" y="962" type="line"/>
      <point x="480" y="962" type="line"/>
      <point x="480" y="1042" type="line"/>
      <point x="720" y="1042" type="line"/>
      <point x="720" y="962" type="line"/>
      <point x="640" y="962" type="line"/>
      <point x="640" y="82" type="line"/>
      <point x="720" y="82" type="line"/>
    </contour>
  </outline>
</glyph>
<glyph name="Mu" format="2">
  <advance width="1280"/>
  <unicode hex="039C"/>
  <outline>
    <contour>
      <point x="960" y="1042" type="line"/>
      <point x="1040" y="1042" type="line"/>
      <point x="1040" y="2" type="line"/>
      <point x="960" y="2" type="line"/>
      <point x="960" y="802" type="line"/>
      <point x="880" y="802" type="line"/>
      <point x="880" y="562" type="line"/>
      <point x="800" y="562" type="line"/>
      <point x="800" y="402" type="line"/>
      <point x="720" y="402" type="line"/>
      <point x="720" y="162" type="line"/>
      <point x="640" y="162" type="line"/>
      <point x="640" y="2" type="line"/>
      <point x="560" y="2" type="line"/>
      <point x="560" y="162" type="line"/>
      <point x="640" y="162" type="line"/>
      <point x="640" y="402" type="line"/>
      <point x="720" y="402" type="line"/>
      <point x="720" y="562" type="line"/>
      <point x="800" y="562" type="line"/>
      <point x="800" y="802" type="line"/>
      <point x="880" y="802" type="line"/>
      <point x="880" y="962" type="line"/>
      <point x="960" y="962" type="line"/>
    </contour>
    <contour>
      <point x="160" y="1042" type="line"/>
      <point x="240" y="1042" type="line"/>
      <point x="240" y="962" type="line"/>
      <point x="320" y="962" type="line"/>
      <point x="320" y="802" type="line"/>
      <point x="400" y="802" type="line"/>
      <point x="400" y="562" type="line"/>
      <point x="480" y="562" type="line"/>
      <point x="480" y="402" type="line"/>
      <point x="560" y="402" type="line"/>
      <point x="560" y="162" type="line"/>
      <point x="480" y="162" type="line"/>
      <point x="480" y="402" type="line"/>
      <point x="400" y="402" type="line"/>
      <point x="400" y="562" type="line"/>
      <point x="320" y="562" type="line"/>
      <point x="320" y="802" type="line"/>
      <point x="240" y="802" type="line"/>
      <point x="240" y="2" type="line"/>
      <point x="160" y="2" type="line"/>
    </contour>
  </outline>
</glyph>
<glyph name="Xi" format="2">
  <advance width="1280"/>
  <unicode hex="039E"/>
  <outline>
    <contour>
      <point x="960" y="2" type="line"/>
      <point x="240" y="2" type="line"/>
      <point x="240" y="82" type="line"/>
      <point x="960" y="82" type="line"/>
    </contour>
    <contour>
      <point x="880" y="482" type="line"/>
      <point x="320" y="482" type="line"/>
      <point x="320" y="562" type="line"/>
      <point x="880" y="562" type="line"/>
    </contour>
    <contour>
      <point x="960" y="962" type="line"/>
      <point x="240" y="962" type="line"/>
      <point x="240" y="1042" type="line"/>
      <point x="960" y="1042" type="line"/>
    </contour>
  </outline>
</glyph>
<glyph name="Omicron" format="2">
  <advance width="1280"/>
  <unicode hex="039F"/>
  <outline>
    <contour>
      <point x="720" y="2" type="line"/>
      <point x="480" y="2" type="line"/>
      <point x="480" y="82" type="line"/>
      <point x="720" y="82" type="line"/>
    </contour>
    <contour>
      <point x="880" y="882" type="line"/>
      <point x="960" y="882" type="line"/>
      <point x="960" y="722" type="line"/>
      <point x="1040" y="722" type="line"/>
      <point x="1040" y="322" type="line"/>
      <point x="960" y="322" type="line"/>
      <point x="960" y="162" type="line"/>
      <point x="880" y="162" type="line"/>
      <point x="880" y="82" type="line"/>
      <point x="720" y="82" type="line"/>
      <point x="720" y="162" type="line"/>
      <point x="880" y="162" type="line"/>
      <point x="880" y="322" type="line"/>
      <point x="960" y="322" type="line"/>
      <point x="960" y="722" type="line"/>
      <point x="880" y="722" type="line"/>
    </contour>
    <contour>
      <point x="880" y="882" type="line"/>
      <point x="720" y="882" type="line"/>
      <point x="720" y="962" type="line"/>
      <point x="880" y="962" type="line"/>
    </contour>
    <contour>
      <point x="720" y="962" type="line"/>
      <point x="480" y="962" type="line"/>
      <point x="480" y="882" type="line"/>
      <point x="320" y="882" type="line"/>
      <point x="320" y="722" type="line"/>
      <point x="240" y="722" type="line"/>
      <point x="240" y="322" type="line"/>
      <point x="320" y="322" type="line"/>
      <point x="320" y="162" type="line"/>
      <point x="480" y="162" type="line"/>
      <point x="480" y="82" type="line"/>
      <point x="320" y="82" type="line"/>
      <point x="320" y="162" type="line"/>
      <point x="240" y="162" type="line"/>
      <point x="240" y="322" type="line"/>
      <point x="160" y="322" type="line"/>
      <point x="160" y="722" type="line"/>
      <point x="240" y="722" type="line"/>
      <point x="240" y="882" type="line"/>
      <point x="320" y="882" type="line"/>
      <point x="320" y="962" type="line"/>
      <point x="480" y="962" type="line"/>
      <point x="480" y="1042" type="line"/>
      <point x="720" y="1042" type="line"/>
    </contour>
  </outline>
</glyph>
<glyph name="Tau" format="2">
  <advance width="1280"/>
  <unicode hex="03A4"/>
  <outline>
    <contour>
      <point x="560" y="2" type="line"/>
      <point x="560" y="962" type="line"/>
      <point x="160" y="962" type="line"/>
      <point x="160" y="1042" type="line"/>
      <point x="1040" y="1042" type="line"/>
      <point x="1040" y="962" type="line"/>
      <point x="640" y="962" type="line"/>
      <point x="640" y="2" type="line"/>
    </contour>
  </outline>
</glyph>
<glyph name="Upsilondieresis" format="2">
  <advance width="720"/>
  <unicode hex="03AB"/>
  <outline>
    <contour>
      <point x="480" y="882" type="line"/>
      <point x="560" y="882" type="line"/>
      <point x="560" y="722" type="line"/>
      <point x="480" y="722" type="line"/>
      <point x="480" y="562" type="line"/>
      <point x="400" y="562" type="line"/>
      <point x="400" y="402" type="line"/>
      <point x="320" y="402" type="line"/>
      <point x="320" y="2" type="line"/>
      <point x="240" y="2" type="line"/>
      <point x="240" y="402" type="line"/>
      <point x="320" y="402" type="line"/>
      <point x="320" y="562" type="line"/>
      <point x="400" y="562" type="line"/>
      <point x="400" y="722" type="line"/>
      <point x="480" y="722" type="line"/>
    </contour>
    <contour>
      <point x="0" y="882" type="line"/>
      <point x="80" y="882" type="line"/>
      <point x="80" y="722" type="line"/>
      <point x="160" y="722" type="line"/>
      <point x="160" y="562" type="line"/>
      <point x="240" y="562" type="line"/>
      <point x="240" y="402" type="line"/>
      <point x="160" y="402" type="line"/>
      <point x="160" y="562" type="line"/>
      <point x="80" y="562" type="line"/>
      <point x="80" y="722" type="line"/>
      <point x="0" y="722" type="line"/>
    </contour>
    <contour>
      <point x="480" y="962" type="line"/>
      <point x="320" y="962" type="line"/>
      <point x="320" y="1122" type="line"/>
      <point x="480" y="1122" type="line"/>
    </contour>
    <contour>
      <point x="240" y="962" type="line"/>
      <point x="80" y="962" type="line"/>
      <point x="80" y="1122" type="line"/>
      <point x="240" y="1122" type="line"/>
    </contour>
  </outline>
</glyph>
<glyph name="iotatonos" format="2">
  <advance width="480"/>
  <unicode hex="03AF"/>
  <outline>
    <contour>
      <point x="240" y="162" type="line"/>
      <point x="320" y="162" type="line"/>
      <point x="320" y="82" type="line"/>
      <point x="240" y="82" type="line"/>
      <point x="240" y="2" type="line"/>
      <point x="80" y="2" type="line"/>
      <point x="80" y="82" type="line"/>
      <point x="240" y="82" type="line"/>
    </contour>
    <contour>
      <point x="80" y="562" type="line"/>
      <point x="160" y="562" type="line"/>
      <point x="160" y="322" type="line"/>
      <point x="80" y="322" type="line"/>
      <point x="80" y="82" type="line"/>
      <point x="0" y="82" type="line"/>
      <point x="0" y="322" type="line"/>
      <point x="80" y="322" type="line"/>
    </contour>
    <contour>
      <point x="240" y="882" type="line"/>
      <point x="320" y="882" type="line"/>
      <point x="320" y="802" type="line"/>
      <point x="240" y="802" type="line"/>
      <point x="240" y="722" type="line"/>
      <point x="160" y="722" type="line"/>
      <point x="160" y="642" type="line"/>
      <point x="80" y="642" type="line"/>
      <point x="80" y="722" type="line"/>
      <point x="160" y="722" type="line"/>
      <point x="160" y="802" type="line"/>
      <point x="240" y="802" type="line"/>
    </contour>
  </outline>
</glyph>
<glyph name="eta" format="2">
  <advance width="1280"/>
  <unicode hex="03B7"/>
  <outline>
    <contour>
      <point x="640" y="-78" type="line"/>
      <point x="640" y="82" type="line"/>
      <point x="720" y="82" type="line"/>
      <point x="720" y="-78" type="line"/>
    </contour>
    <contour>
      <point x="320" y="82" type="line"/>
      <point x="320" y="242" type="line"/>
      <point x="400" y="242" type="line"/>
      <point x="400" y="82" type="line"/>
    </contour>
    <contour>
      <point x="880" y="482" type="line"/>
      <point x="880" y="242" type="line"/>
      <point x="800" y="242" type="line"/>
      <point x="800" y="82" type="line"/>
      <point x="720" y="82" type="line"/>
      <point x="720" y="242" type="line"/>
      <point x="800" y="242" type="line"/>
      <point x="800" y="482" type="line"/>
    </contour>
    <contour>
      <point x="880" y="482" type="line"/>
      <point x="880" y="642" type="line"/>
      <point x="960" y="642" type="line"/>
      <point x="960" y="482" type="line"/>
    </contour>
    <contour>
      <point x="880" y="642" type="line"/>
      <point x="640" y="642" type="line"/>
      <point x="640" y="562" type="line"/>
      <point x="560" y="562" type="line"/>
      <point x="560" y="482" type="line"/>
      <point x="480" y="482" type="line"/>
      <point x="480" y="242" type="line"/>
      <point x="400" y="242" type="line"/>
      <point x="400" y="482" type="line"/>
      <point x="480" y="482" type="line"/>
      <point x="480" y="642" type="line"/>
      <point x="640" y="642" type="line"/>
      <point x="640" y="722" type="line"/>
      <point x="880" y="722" type="line"/>
    </contour>
    <contour>
      <point x="320" y="642" type="line"/>
      <point x="320" y="562" type="line"/>
      <point x="240" y="562" type="line"/>
      <point x="240" y="642" type="line"/>
    </contour>
    <contour>
      <point x="320" y="642" type="line"/>
      <point x="320" y="722" type="line"/>
      <point x="480" y="722" type="line"/>
      <point x="480" y="642" type="line"/>
    </contour>
  </outline>
</glyph>
